<?xml version="1.0" encoding="UTF-8" standalone="no"?>
<!DOCTYPE svg PUBLIC "-//W3C//DTD SVG 1.1//EN"
 "http://www.w3.org/Graphics/SVG/1.1/DTD/svg11.dtd">
<!-- Generated by graphviz version 2.50.0 (0)
 -->
<!-- Pages: 1 -->
<svg width="2515pt" height="267pt"
 viewBox="0.00 0.00 2515.00 267.00" xmlns="http://www.w3.org/2000/svg" xmlns:xlink="http://www.w3.org/1999/xlink">
<g id="graph0" class="graph" transform="scale(1 1) rotate(0) translate(4 263)">
<polygon fill="white" stroke="transparent" points="-4,4 -4,-263 2511,-263 2511,4 -4,4"/>
<!-- 4857695760 -->
<g id="node1" class="node">
<title>4857695760</title>
<polygon fill="none" stroke="black" points="0,-222.5 0,-258.5 162,-258.5 162,-222.5 0,-222.5"/>
<text text-anchor="middle" x="40" y="-236.8" font-family="Times,serif" font-size="14.00">data 1.0000</text>
<polyline fill="none" stroke="black" points="80,-222.5 80,-258.5 "/>
<text text-anchor="middle" x="121" y="-236.8" font-family="Times,serif" font-size="14.00">grad 0.0000</text>
</g>
<!-- 4687930128* -->
<g id="node17" class="node">
<title>4687930128*</title>
<ellipse fill="none" stroke="black" cx="225" cy="-212.5" rx="27" ry="18"/>
<text text-anchor="middle" x="225" y="-208.8" font-family="Times,serif" font-size="14.00">*</text>
</g>
<!-- 4857695760&#45;&gt;4687930128* -->
<g id="edge17" class="edge">
<title>4857695760&#45;&gt;4687930128*</title>
<path fill="none" stroke="black" d="M162.13,-224.7C171.51,-222.85 180.67,-221.04 188.94,-219.41"/>
<polygon fill="black" stroke="black" points="189.77,-222.82 198.9,-217.45 188.42,-215.95 189.77,-222.82"/>
</g>
<!-- 4855276496 -->
<g id="node2" class="node">
<title>4855276496</title>
<polygon fill="none" stroke="black" points="576,-111.5 576,-147.5 743,-147.5 743,-111.5 576,-111.5"/>
<text text-anchor="middle" x="618.5" y="-125.8" font-family="Times,serif" font-size="14.00">data &#45;1.0000</text>
<polyline fill="none" stroke="black" points="661,-111.5 661,-147.5 "/>
<text text-anchor="middle" x="702" y="-125.8" font-family="Times,serif" font-size="14.00">grad 0.0000</text>
</g>
<!-- 4855271312* -->
<g id="node23" class="node">
<title>4855271312*</title>
<ellipse fill="none" stroke="black" cx="806" cy="-156.5" rx="27" ry="18"/>
<text text-anchor="middle" x="806" y="-152.8" font-family="Times,serif" font-size="14.00">*</text>
</g>
<!-- 4855276496&#45;&gt;4855271312* -->
<g id="edge20" class="edge">
<title>4855276496&#45;&gt;4855271312*</title>
<path fill="none" stroke="black" d="M743.3,-144.97C752.61,-146.71 761.68,-148.41 769.88,-149.94"/>
<polygon fill="black" stroke="black" points="769.27,-153.38 779.75,-151.78 770.56,-146.5 769.27,-153.38"/>
</g>
<!-- 4857466960 -->
<g id="node3" class="node">
<title>4857466960</title>
<polygon fill="none" stroke="black" points="1451,-55.5 1451,-91.5 1618,-91.5 1618,-55.5 1451,-55.5"/>
<text text-anchor="middle" x="1493.5" y="-69.8" font-family="Times,serif" font-size="14.00">data &#45;1.0000</text>
<polyline fill="none" stroke="black" points="1536,-55.5 1536,-91.5 "/>
<text text-anchor="middle" x="1577" y="-69.8" font-family="Times,serif" font-size="14.00">grad 0.0000</text>
</g>
<!-- 4857474704* -->
<g id="node7" class="node">
<title>4857474704*</title>
<ellipse fill="none" stroke="black" cx="1682" cy="-73.5" rx="27" ry="18"/>
<text text-anchor="middle" x="1682" y="-69.8" font-family="Times,serif" font-size="14.00">*</text>
</g>
<!-- 4857466960&#45;&gt;4857474704* -->
<g id="edge11" class="edge">
<title>4857466960&#45;&gt;4857474704*</title>
<path fill="none" stroke="black" d="M1618.03,-73.5C1627.41,-73.5 1636.57,-73.5 1644.87,-73.5"/>
<polygon fill="black" stroke="black" points="1644.87,-77 1654.87,-73.5 1644.87,-70 1644.87,-77"/>
</g>
<!-- 4857463440 -->
<g id="node4" class="node">
<title>4857463440</title>
<polygon fill="none" stroke="black" points="2338,-82.5 2338,-118.5 2507,-118.5 2507,-82.5 2338,-82.5"/>
<text text-anchor="middle" x="2381.5" y="-96.8" font-family="Times,serif" font-size="14.00">data 83.1599</text>
<polyline fill="none" stroke="black" points="2425,-82.5 2425,-118.5 "/>
<text text-anchor="middle" x="2466" y="-96.8" font-family="Times,serif" font-size="14.00">grad 0.0000</text>
</g>
<!-- 4857463440**2 -->
<g id="node5" class="node">
<title>4857463440**2</title>
<ellipse fill="none" stroke="black" cx="2275" cy="-100.5" rx="27" ry="18"/>
<text text-anchor="middle" x="2275" y="-96.8" font-family="Times,serif" font-size="14.00">**2</text>
</g>
<!-- 4857463440**2&#45;&gt;4857463440 -->
<g id="edge1" class="edge">
<title>4857463440**2&#45;&gt;4857463440</title>
<path fill="none" stroke="black" d="M2302.01,-100.5C2309.58,-100.5 2318.31,-100.5 2327.54,-100.5"/>
<polygon fill="black" stroke="black" points="2327.72,-104 2337.72,-100.5 2327.72,-97 2327.72,-104"/>
</g>
<!-- 4857474704 -->
<g id="node6" class="node">
<title>4857474704</title>
<polygon fill="none" stroke="black" points="1745,-55.5 1745,-91.5 1919,-91.5 1919,-55.5 1745,-55.5"/>
<text text-anchor="middle" x="1791" y="-69.8" font-family="Times,serif" font-size="14.00">data &#45;10.0000</text>
<polyline fill="none" stroke="black" points="1837,-55.5 1837,-91.5 "/>
<text text-anchor="middle" x="1878" y="-69.8" font-family="Times,serif" font-size="14.00">grad 0.0000</text>
</g>
<!-- 4857478608+ -->
<g id="node25" class="node">
<title>4857478608+</title>
<ellipse fill="none" stroke="black" cx="1982" cy="-100.5" rx="27" ry="18"/>
<text text-anchor="middle" x="1982" y="-96.8" font-family="Times,serif" font-size="14.00">+</text>
</g>
<!-- 4857474704&#45;&gt;4857478608+ -->
<g id="edge13" class="edge">
<title>4857474704&#45;&gt;4857478608+</title>
<path fill="none" stroke="black" d="M1919.09,-89.21C1928.48,-90.92 1937.6,-92.58 1945.83,-94.08"/>
<polygon fill="black" stroke="black" points="1945.27,-97.54 1955.73,-95.89 1946.52,-90.65 1945.27,-97.54"/>
</g>
<!-- 4857474704*&#45;&gt;4857474704 -->
<g id="edge2" class="edge">
<title>4857474704*&#45;&gt;4857474704</title>
<path fill="none" stroke="black" d="M1709.12,-73.5C1716.68,-73.5 1725.4,-73.5 1734.64,-73.5"/>
<polygon fill="black" stroke="black" points="1734.83,-77 1744.83,-73.5 1734.83,-70 1734.83,-77"/>
</g>
<!-- 4857462928 -->
<g id="node8" class="node">
<title>4857462928</title>
<polygon fill="none" stroke="black" points="1453.5,-110.5 1453.5,-146.5 1615.5,-146.5 1615.5,-110.5 1453.5,-110.5"/>
<text text-anchor="middle" x="1493.5" y="-124.8" font-family="Times,serif" font-size="14.00">data 1.1353</text>
<polyline fill="none" stroke="black" points="1533.5,-110.5 1533.5,-146.5 "/>
<text text-anchor="middle" x="1574.5" y="-124.8" font-family="Times,serif" font-size="14.00">grad 0.0000</text>
</g>
<!-- 4857464656**&#45;1 -->
<g id="node19" class="node">
<title>4857464656**&#45;1</title>
<ellipse fill="none" stroke="black" cx="1682" cy="-128.5" rx="27" ry="18"/>
<text text-anchor="middle" x="1682" y="-124.8" font-family="Times,serif" font-size="14.00">**&#45;1</text>
</g>
<!-- 4857462928&#45;&gt;4857464656**&#45;1 -->
<g id="edge23" class="edge">
<title>4857462928&#45;&gt;4857464656**&#45;1</title>
<path fill="none" stroke="black" d="M1615.91,-128.5C1625.91,-128.5 1635.71,-128.5 1644.56,-128.5"/>
<polygon fill="black" stroke="black" points="1644.81,-132 1654.81,-128.5 1644.81,-125 1644.81,-132"/>
</g>
<!-- 4857462928+ -->
<g id="node9" class="node">
<title>4857462928+</title>
<ellipse fill="none" stroke="black" cx="1387" cy="-128.5" rx="27" ry="18"/>
<text text-anchor="middle" x="1387" y="-124.8" font-family="Times,serif" font-size="14.00">+</text>
</g>
<!-- 4857462928+&#45;&gt;4857462928 -->
<g id="edge3" class="edge">
<title>4857462928+&#45;&gt;4857462928</title>
<path fill="none" stroke="black" d="M1414.01,-128.5C1422.56,-128.5 1432.6,-128.5 1443.17,-128.5"/>
<polygon fill="black" stroke="black" points="1443.43,-132 1453.43,-128.5 1443.43,-125 1443.43,-132"/>
</g>
<!-- 4857471888 -->
<g id="node10" class="node">
<title>4857471888</title>
<polygon fill="none" stroke="black" points="1162,-83.5 1162,-119.5 1324,-119.5 1324,-83.5 1162,-83.5"/>
<text text-anchor="middle" x="1202" y="-97.8" font-family="Times,serif" font-size="14.00">data 1.0000</text>
<polyline fill="none" stroke="black" points="1242,-83.5 1242,-119.5 "/>
<text text-anchor="middle" x="1283" y="-97.8" font-family="Times,serif" font-size="14.00">grad 0.0000</text>
</g>
<!-- 4857471888&#45;&gt;4857462928+ -->
<g id="edge12" class="edge">
<title>4857471888&#45;&gt;4857462928+</title>
<path fill="none" stroke="black" d="M1324.13,-116.74C1333.51,-118.52 1342.67,-120.26 1350.94,-121.83"/>
<polygon fill="black" stroke="black" points="1350.43,-125.3 1360.9,-123.73 1351.73,-118.42 1350.43,-125.3"/>
</g>
<!-- 4854075152 -->
<g id="node11" class="node">
<title>4854075152</title>
<polygon fill="none" stroke="black" points="1450,-0.5 1450,-36.5 1619,-36.5 1619,-0.5 1450,-0.5"/>
<text text-anchor="middle" x="1493.5" y="-14.8" font-family="Times,serif" font-size="14.00">data 10.0000</text>
<polyline fill="none" stroke="black" points="1537,-0.5 1537,-36.5 "/>
<text text-anchor="middle" x="1578" y="-14.8" font-family="Times,serif" font-size="14.00">grad 0.0000</text>
</g>
<!-- 4854075152&#45;&gt;4857474704* -->
<g id="edge24" class="edge">
<title>4854075152&#45;&gt;4857474704*</title>
<path fill="none" stroke="black" d="M1594.19,-36.56C1602.57,-39.41 1611.04,-42.43 1619,-45.5 1629.44,-49.53 1640.64,-54.41 1650.61,-58.96"/>
<polygon fill="black" stroke="black" points="1649.18,-62.16 1659.73,-63.19 1652.13,-55.81 1649.18,-62.16"/>
</g>
<!-- 4855270160 -->
<g id="node12" class="node">
<title>4855270160</title>
<polygon fill="none" stroke="black" points="1162,-138.5 1162,-174.5 1324,-174.5 1324,-138.5 1162,-138.5"/>
<text text-anchor="middle" x="1202" y="-152.8" font-family="Times,serif" font-size="14.00">data 0.1353</text>
<polyline fill="none" stroke="black" points="1242,-138.5 1242,-174.5 "/>
<text text-anchor="middle" x="1283" y="-152.8" font-family="Times,serif" font-size="14.00">grad 0.0000</text>
</g>
<!-- 4855270160&#45;&gt;4857462928+ -->
<g id="edge14" class="edge">
<title>4855270160&#45;&gt;4857462928+</title>
<path fill="none" stroke="black" d="M1324.13,-140.7C1333.51,-138.85 1342.67,-137.04 1350.94,-135.41"/>
<polygon fill="black" stroke="black" points="1351.77,-138.82 1360.9,-133.45 1350.42,-131.95 1351.77,-138.82"/>
</g>
<!-- 4855270160exp -->
<g id="node13" class="node">
<title>4855270160exp</title>
<ellipse fill="none" stroke="black" cx="1099" cy="-156.5" rx="27" ry="18"/>
<text text-anchor="middle" x="1099" y="-152.8" font-family="Times,serif" font-size="14.00">exp</text>
</g>
<!-- 4855270160exp&#45;&gt;4855270160 -->
<g id="edge4" class="edge">
<title>4855270160exp&#45;&gt;4855270160</title>
<path fill="none" stroke="black" d="M1126.04,-156.5C1133.63,-156.5 1142.38,-156.5 1151.6,-156.5"/>
<polygon fill="black" stroke="black" points="1151.76,-160 1161.76,-156.5 1151.76,-153 1151.76,-160"/>
</g>
<!-- 4687934736 -->
<g id="node14" class="node">
<title>4687934736</title>
<polygon fill="none" stroke="black" points="578.5,-166.5 578.5,-202.5 740.5,-202.5 740.5,-166.5 578.5,-166.5"/>
<text text-anchor="middle" x="618.5" y="-180.8" font-family="Times,serif" font-size="14.00">data 2.0000</text>
<polyline fill="none" stroke="black" points="658.5,-166.5 658.5,-202.5 "/>
<text text-anchor="middle" x="699.5" y="-180.8" font-family="Times,serif" font-size="14.00">grad 0.0000</text>
</g>
<!-- 4687934736&#45;&gt;4855271312* -->
<g id="edge21" class="edge">
<title>4687934736&#45;&gt;4855271312*</title>
<path fill="none" stroke="black" d="M740.78,-168.94C750.96,-166.97 760.92,-165.04 769.85,-163.31"/>
<polygon fill="black" stroke="black" points="770.65,-166.72 779.8,-161.38 769.32,-159.85 770.65,-166.72"/>
</g>
<!-- 4687934736+ -->
<g id="node15" class="node">
<title>4687934736+</title>
<ellipse fill="none" stroke="black" cx="513" cy="-184.5" rx="27" ry="18"/>
<text text-anchor="middle" x="513" y="-180.8" font-family="Times,serif" font-size="14.00">+</text>
</g>
<!-- 4687934736+&#45;&gt;4687934736 -->
<g id="edge5" class="edge">
<title>4687934736+&#45;&gt;4687934736</title>
<path fill="none" stroke="black" d="M540.17,-184.5C548.4,-184.5 558.01,-184.5 568.12,-184.5"/>
<polygon fill="black" stroke="black" points="568.37,-188 578.37,-184.5 568.37,-181 568.37,-188"/>
</g>
<!-- 4687930128 -->
<g id="node16" class="node">
<title>4687930128</title>
<polygon fill="none" stroke="black" points="288,-194.5 288,-230.5 450,-230.5 450,-194.5 288,-194.5"/>
<text text-anchor="middle" x="328" y="-208.8" font-family="Times,serif" font-size="14.00">data 2.0000</text>
<polyline fill="none" stroke="black" points="368,-194.5 368,-230.5 "/>
<text text-anchor="middle" x="409" y="-208.8" font-family="Times,serif" font-size="14.00">grad 0.0000</text>
</g>
<!-- 4687930128&#45;&gt;4687934736+ -->
<g id="edge22" class="edge">
<title>4687930128&#45;&gt;4687934736+</title>
<path fill="none" stroke="black" d="M450.13,-196.7C459.51,-194.85 468.67,-193.04 476.94,-191.41"/>
<polygon fill="black" stroke="black" points="477.77,-194.82 486.9,-189.45 476.42,-187.95 477.77,-194.82"/>
</g>
<!-- 4687930128*&#45;&gt;4687930128 -->
<g id="edge6" class="edge">
<title>4687930128*&#45;&gt;4687930128</title>
<path fill="none" stroke="black" d="M252.04,-212.5C259.63,-212.5 268.38,-212.5 277.6,-212.5"/>
<polygon fill="black" stroke="black" points="277.76,-216 287.76,-212.5 277.76,-209 277.76,-216"/>
</g>
<!-- 4857464656 -->
<g id="node18" class="node">
<title>4857464656</title>
<polygon fill="none" stroke="black" points="1751,-110.5 1751,-146.5 1913,-146.5 1913,-110.5 1751,-110.5"/>
<text text-anchor="middle" x="1791" y="-124.8" font-family="Times,serif" font-size="14.00">data 0.8808</text>
<polyline fill="none" stroke="black" points="1831,-110.5 1831,-146.5 "/>
<text text-anchor="middle" x="1872" y="-124.8" font-family="Times,serif" font-size="14.00">grad 0.0000</text>
</g>
<!-- 4857464656&#45;&gt;4857478608+ -->
<g id="edge15" class="edge">
<title>4857464656&#45;&gt;4857478608+</title>
<path fill="none" stroke="black" d="M1913.06,-113.35C1924.59,-111.17 1935.92,-109.03 1945.92,-107.14"/>
<polygon fill="black" stroke="black" points="1946.64,-110.56 1955.82,-105.26 1945.34,-103.68 1946.64,-110.56"/>
</g>
<!-- 4857464656**&#45;1&#45;&gt;4857464656 -->
<g id="edge7" class="edge">
<title>4857464656**&#45;1&#45;&gt;4857464656</title>
<path fill="none" stroke="black" d="M1709.12,-128.5C1718.3,-128.5 1729.2,-128.5 1740.65,-128.5"/>
<polygon fill="black" stroke="black" points="1740.82,-132 1750.82,-128.5 1740.82,-125 1740.82,-132"/>
</g>
<!-- 4857696016 -->
<g id="node20" class="node">
<title>4857696016</title>
<polygon fill="none" stroke="black" points="288,-139.5 288,-175.5 450,-175.5 450,-139.5 288,-139.5"/>
<text text-anchor="middle" x="328" y="-153.8" font-family="Times,serif" font-size="14.00">data 0.0000</text>
<polyline fill="none" stroke="black" points="368,-139.5 368,-175.5 "/>
<text text-anchor="middle" x="409" y="-153.8" font-family="Times,serif" font-size="14.00">grad 0.0000</text>
</g>
<!-- 4857696016&#45;&gt;4687934736+ -->
<g id="edge16" class="edge">
<title>4857696016&#45;&gt;4687934736+</title>
<path fill="none" stroke="black" d="M450.13,-172.74C459.51,-174.52 468.67,-176.26 476.94,-177.83"/>
<polygon fill="black" stroke="black" points="476.43,-181.3 486.9,-179.73 477.73,-174.42 476.43,-181.3"/>
</g>
<!-- 4857695696 -->
<g id="node21" class="node">
<title>4857695696</title>
<polygon fill="none" stroke="black" points="0,-167.5 0,-203.5 162,-203.5 162,-167.5 0,-167.5"/>
<text text-anchor="middle" x="40" y="-181.8" font-family="Times,serif" font-size="14.00">data 2.0000</text>
<polyline fill="none" stroke="black" points="80,-167.5 80,-203.5 "/>
<text text-anchor="middle" x="121" y="-181.8" font-family="Times,serif" font-size="14.00">grad 0.0000</text>
</g>
<!-- 4857695696&#45;&gt;4687930128* -->
<g id="edge19" class="edge">
<title>4857695696&#45;&gt;4687930128*</title>
<path fill="none" stroke="black" d="M162.13,-200.74C171.51,-202.52 180.67,-204.26 188.94,-205.83"/>
<polygon fill="black" stroke="black" points="188.43,-209.3 198.9,-207.73 189.73,-202.42 188.43,-209.3"/>
</g>
<!-- 4855271312 -->
<g id="node22" class="node">
<title>4855271312</title>
<polygon fill="none" stroke="black" points="869,-138.5 869,-174.5 1036,-174.5 1036,-138.5 869,-138.5"/>
<text text-anchor="middle" x="911.5" y="-152.8" font-family="Times,serif" font-size="14.00">data &#45;2.0000</text>
<polyline fill="none" stroke="black" points="954,-138.5 954,-174.5 "/>
<text text-anchor="middle" x="995" y="-152.8" font-family="Times,serif" font-size="14.00">grad 0.0000</text>
</g>
<!-- 4855271312&#45;&gt;4855270160exp -->
<g id="edge18" class="edge">
<title>4855271312&#45;&gt;4855270160exp</title>
<path fill="none" stroke="black" d="M1036.3,-156.5C1045.14,-156.5 1053.77,-156.5 1061.64,-156.5"/>
<polygon fill="black" stroke="black" points="1061.85,-160 1071.85,-156.5 1061.85,-153 1061.85,-160"/>
</g>
<!-- 4855271312*&#45;&gt;4855271312 -->
<g id="edge8" class="edge">
<title>4855271312*&#45;&gt;4855271312</title>
<path fill="none" stroke="black" d="M833.17,-156.5C840.75,-156.5 849.5,-156.5 858.74,-156.5"/>
<polygon fill="black" stroke="black" points="858.92,-160 868.92,-156.5 858.92,-153 858.92,-160"/>
</g>
<!-- 4857478608 -->
<g id="node24" class="node">
<title>4857478608</title>
<polygon fill="none" stroke="black" points="2045,-82.5 2045,-118.5 2212,-118.5 2212,-82.5 2045,-82.5"/>
<text text-anchor="middle" x="2087.5" y="-96.8" font-family="Times,serif" font-size="14.00">data &#45;9.1192</text>
<polyline fill="none" stroke="black" points="2130,-82.5 2130,-118.5 "/>
<text text-anchor="middle" x="2171" y="-96.8" font-family="Times,serif" font-size="14.00">grad 0.0000</text>
</g>
<!-- 4857478608&#45;&gt;4857463440**2 -->
<g id="edge10" class="edge">
<title>4857478608&#45;&gt;4857463440**2</title>
<path fill="none" stroke="black" d="M2212.3,-100.5C2221.14,-100.5 2229.77,-100.5 2237.64,-100.5"/>
<polygon fill="black" stroke="black" points="2237.85,-104 2247.85,-100.5 2237.85,-97 2237.85,-104"/>
</g>
<!-- 4857478608+&#45;&gt;4857478608 -->
<g id="edge9" class="edge">
<title>4857478608+&#45;&gt;4857478608</title>
<path fill="none" stroke="black" d="M2009.17,-100.5C2016.75,-100.5 2025.5,-100.5 2034.74,-100.5"/>
<polygon fill="black" stroke="black" points="2034.92,-104 2044.92,-100.5 2034.92,-97 2034.92,-104"/>
</g>
</g>
</svg>
