<?xml version="1.0" encoding="UTF-8" standalone="no"?>
<!DOCTYPE svg PUBLIC "-//W3C//DTD SVG 1.1//EN"
 "http://www.w3.org/Graphics/SVG/1.1/DTD/svg11.dtd">
<!-- Generated by graphviz version 2.50.0 (0)
 -->
<!-- Pages: 1 -->
<svg width="2515pt" height="208pt"
 viewBox="0.00 0.00 2515.00 208.00" xmlns="http://www.w3.org/2000/svg" xmlns:xlink="http://www.w3.org/1999/xlink">
<g id="graph0" class="graph" transform="scale(1 1) rotate(0) translate(4 204)">
<polygon fill="white" stroke="transparent" points="-4,4 -4,-204 2511,-204 2511,4 -4,4"/>
<!-- 4445575680 -->
<g id="node1" class="node">
<title>4445575680</title>
<polygon fill="none" stroke="black" points="1453.5,-53.5 1453.5,-89.5 1615.5,-89.5 1615.5,-53.5 1453.5,-53.5"/>
<text text-anchor="middle" x="1493.5" y="-67.8" font-family="Times,serif" font-size="14.00">data 1.1353</text>
<polyline fill="none" stroke="black" points="1533.5,-53.5 1533.5,-89.5 "/>
<text text-anchor="middle" x="1574.5" y="-67.8" font-family="Times,serif" font-size="14.00">grad 0.0000</text>
</g>
<!-- 4445576496**&#45;1 -->
<g id="node14" class="node">
<title>4445576496**&#45;1</title>
<ellipse fill="none" stroke="black" cx="1682" cy="-71.5" rx="27" ry="18"/>
<text text-anchor="middle" x="1682" y="-67.8" font-family="Times,serif" font-size="14.00">**&#45;1</text>
</g>
<!-- 4445575680&#45;&gt;4445576496**&#45;1 -->
<g id="edge12" class="edge">
<title>4445575680&#45;&gt;4445576496**&#45;1</title>
<path fill="none" stroke="black" d="M1615.91,-71.5C1625.91,-71.5 1635.71,-71.5 1644.56,-71.5"/>
<polygon fill="black" stroke="black" points="1644.81,-75 1654.81,-71.5 1644.81,-68 1644.81,-75"/>
</g>
<!-- 4445575680+ -->
<g id="node2" class="node">
<title>4445575680+</title>
<ellipse fill="none" stroke="black" cx="1387" cy="-71.5" rx="27" ry="18"/>
<text text-anchor="middle" x="1387" y="-67.8" font-family="Times,serif" font-size="14.00">+</text>
</g>
<!-- 4445575680+&#45;&gt;4445575680 -->
<g id="edge1" class="edge">
<title>4445575680+&#45;&gt;4445575680</title>
<path fill="none" stroke="black" d="M1414.01,-71.5C1422.56,-71.5 1432.6,-71.5 1443.17,-71.5"/>
<polygon fill="black" stroke="black" points="1443.43,-75 1453.43,-71.5 1443.43,-68 1443.43,-75"/>
</g>
<!-- 4445574720 -->
<g id="node3" class="node">
<title>4445574720</title>
<polygon fill="none" stroke="black" points="576,-109.5 576,-145.5 743,-145.5 743,-109.5 576,-109.5"/>
<text text-anchor="middle" x="618.5" y="-123.8" font-family="Times,serif" font-size="14.00">data &#45;1.0000</text>
<polyline fill="none" stroke="black" points="661,-109.5 661,-145.5 "/>
<text text-anchor="middle" x="702" y="-123.8" font-family="Times,serif" font-size="14.00">grad 0.0000</text>
</g>
<!-- 4445574432* -->
<g id="node12" class="node">
<title>4445574432*</title>
<ellipse fill="none" stroke="black" cx="806" cy="-99.5" rx="27" ry="18"/>
<text text-anchor="middle" x="806" y="-95.8" font-family="Times,serif" font-size="14.00">*</text>
</g>
<!-- 4445574720&#45;&gt;4445574432* -->
<g id="edge13" class="edge">
<title>4445574720&#45;&gt;4445574432*</title>
<path fill="none" stroke="black" d="M743.3,-111.46C752.61,-109.65 761.68,-107.89 769.88,-106.31"/>
<polygon fill="black" stroke="black" points="770.59,-109.73 779.75,-104.39 769.26,-102.86 770.59,-109.73"/>
</g>
<!-- 4445575776 -->
<g id="node4" class="node">
<title>4445575776</title>
<polygon fill="none" stroke="black" points="578.5,-54.5 578.5,-90.5 740.5,-90.5 740.5,-54.5 578.5,-54.5"/>
<text text-anchor="middle" x="618.5" y="-68.8" font-family="Times,serif" font-size="14.00">data 2.0000</text>
<polyline fill="none" stroke="black" points="658.5,-54.5 658.5,-90.5 "/>
<text text-anchor="middle" x="699.5" y="-68.8" font-family="Times,serif" font-size="14.00">grad 0.0000</text>
</g>
<!-- 4445575776&#45;&gt;4445574432* -->
<g id="edge21" class="edge">
<title>4445575776&#45;&gt;4445574432*</title>
<path fill="none" stroke="black" d="M740.78,-87.5C750.96,-89.4 760.92,-91.26 769.85,-92.93"/>
<polygon fill="black" stroke="black" points="769.33,-96.4 779.8,-94.79 770.61,-89.51 769.33,-96.4"/>
</g>
<!-- 4445575776+ -->
<g id="node5" class="node">
<title>4445575776+</title>
<ellipse fill="none" stroke="black" cx="513" cy="-72.5" rx="27" ry="18"/>
<text text-anchor="middle" x="513" y="-68.8" font-family="Times,serif" font-size="14.00">+</text>
</g>
<!-- 4445575776+&#45;&gt;4445575776 -->
<g id="edge2" class="edge">
<title>4445575776+&#45;&gt;4445575776</title>
<path fill="none" stroke="black" d="M540.17,-72.5C548.4,-72.5 558.01,-72.5 568.12,-72.5"/>
<polygon fill="black" stroke="black" points="568.37,-76 578.37,-72.5 568.37,-69 568.37,-76"/>
</g>
<!-- 4445574240 -->
<g id="node6" class="node">
<title>4445574240</title>
<polygon fill="none" stroke="black" points="0,-55.5 0,-91.5 162,-91.5 162,-55.5 0,-55.5"/>
<text text-anchor="middle" x="40" y="-69.8" font-family="Times,serif" font-size="14.00">data 1.0000</text>
<polyline fill="none" stroke="black" points="80,-55.5 80,-91.5 "/>
<text text-anchor="middle" x="121" y="-69.8" font-family="Times,serif" font-size="14.00">grad 0.0000</text>
</g>
<!-- 4445573568* -->
<g id="node23" class="node">
<title>4445573568*</title>
<ellipse fill="none" stroke="black" cx="225" cy="-45.5" rx="27" ry="18"/>
<text text-anchor="middle" x="225" y="-41.8" font-family="Times,serif" font-size="14.00">*</text>
</g>
<!-- 4445574240&#45;&gt;4445573568* -->
<g id="edge14" class="edge">
<title>4445574240&#45;&gt;4445573568*</title>
<path fill="none" stroke="black" d="M162.13,-57.7C171.51,-55.85 180.67,-54.04 188.94,-52.41"/>
<polygon fill="black" stroke="black" points="189.77,-55.82 198.9,-50.45 188.42,-48.95 189.77,-55.82"/>
</g>
<!-- 4445574768 -->
<g id="node7" class="node">
<title>4445574768</title>
<polygon fill="none" stroke="black" points="1745,-108.5 1745,-144.5 1919,-144.5 1919,-108.5 1745,-108.5"/>
<text text-anchor="middle" x="1791" y="-122.8" font-family="Times,serif" font-size="14.00">data &#45;10.0000</text>
<polyline fill="none" stroke="black" points="1837,-108.5 1837,-144.5 "/>
<text text-anchor="middle" x="1878" y="-122.8" font-family="Times,serif" font-size="14.00">grad 0.0000</text>
</g>
<!-- 4445573616+ -->
<g id="node25" class="node">
<title>4445573616+</title>
<ellipse fill="none" stroke="black" cx="1982" cy="-98.5" rx="27" ry="18"/>
<text text-anchor="middle" x="1982" y="-94.8" font-family="Times,serif" font-size="14.00">+</text>
</g>
<!-- 4445574768&#45;&gt;4445573616+ -->
<g id="edge16" class="edge">
<title>4445574768&#45;&gt;4445573616+</title>
<path fill="none" stroke="black" d="M1919.09,-110.21C1928.48,-108.44 1937.6,-106.71 1945.83,-105.15"/>
<polygon fill="black" stroke="black" points="1946.56,-108.58 1955.73,-103.28 1945.25,-101.7 1946.56,-108.58"/>
</g>
<!-- 4445574768* -->
<g id="node8" class="node">
<title>4445574768*</title>
<ellipse fill="none" stroke="black" cx="1682" cy="-126.5" rx="27" ry="18"/>
<text text-anchor="middle" x="1682" y="-122.8" font-family="Times,serif" font-size="14.00">*</text>
</g>
<!-- 4445574768*&#45;&gt;4445574768 -->
<g id="edge3" class="edge">
<title>4445574768*&#45;&gt;4445574768</title>
<path fill="none" stroke="black" d="M1709.12,-126.5C1716.68,-126.5 1725.4,-126.5 1734.64,-126.5"/>
<polygon fill="black" stroke="black" points="1734.83,-130 1744.83,-126.5 1734.83,-123 1734.83,-130"/>
</g>
<!-- 4445575296 -->
<g id="node9" class="node">
<title>4445575296</title>
<polygon fill="none" stroke="black" points="1451,-163.5 1451,-199.5 1618,-199.5 1618,-163.5 1451,-163.5"/>
<text text-anchor="middle" x="1493.5" y="-177.8" font-family="Times,serif" font-size="14.00">data &#45;1.0000</text>
<polyline fill="none" stroke="black" points="1536,-163.5 1536,-199.5 "/>
<text text-anchor="middle" x="1577" y="-177.8" font-family="Times,serif" font-size="14.00">grad 0.0000</text>
</g>
<!-- 4445575296&#45;&gt;4445574768* -->
<g id="edge18" class="edge">
<title>4445575296&#45;&gt;4445574768*</title>
<path fill="none" stroke="black" d="M1594.19,-163.44C1602.57,-160.59 1611.04,-157.57 1619,-154.5 1629.44,-150.47 1640.64,-145.59 1650.61,-141.04"/>
<polygon fill="black" stroke="black" points="1652.13,-144.19 1659.73,-136.81 1649.18,-137.84 1652.13,-144.19"/>
</g>
<!-- 6074983184 -->
<g id="node10" class="node">
<title>6074983184</title>
<polygon fill="none" stroke="black" points="0,-0.5 0,-36.5 162,-36.5 162,-0.5 0,-0.5"/>
<text text-anchor="middle" x="40" y="-14.8" font-family="Times,serif" font-size="14.00">data 2.0000</text>
<polyline fill="none" stroke="black" points="80,-0.5 80,-36.5 "/>
<text text-anchor="middle" x="121" y="-14.8" font-family="Times,serif" font-size="14.00">grad 0.0000</text>
</g>
<!-- 6074983184&#45;&gt;4445573568* -->
<g id="edge24" class="edge">
<title>6074983184&#45;&gt;4445573568*</title>
<path fill="none" stroke="black" d="M162.13,-33.74C171.51,-35.52 180.67,-37.26 188.94,-38.83"/>
<polygon fill="black" stroke="black" points="188.43,-42.3 198.9,-40.73 189.73,-35.42 188.43,-42.3"/>
</g>
<!-- 4445574432 -->
<g id="node11" class="node">
<title>4445574432</title>
<polygon fill="none" stroke="black" points="869,-81.5 869,-117.5 1036,-117.5 1036,-81.5 869,-81.5"/>
<text text-anchor="middle" x="911.5" y="-95.8" font-family="Times,serif" font-size="14.00">data &#45;2.0000</text>
<polyline fill="none" stroke="black" points="954,-81.5 954,-117.5 "/>
<text text-anchor="middle" x="995" y="-95.8" font-family="Times,serif" font-size="14.00">grad 0.0000</text>
</g>
<!-- 4445574480exp -->
<g id="node17" class="node">
<title>4445574480exp</title>
<ellipse fill="none" stroke="black" cx="1099" cy="-99.5" rx="27" ry="18"/>
<text text-anchor="middle" x="1099" y="-95.8" font-family="Times,serif" font-size="14.00">exp</text>
</g>
<!-- 4445574432&#45;&gt;4445574480exp -->
<g id="edge11" class="edge">
<title>4445574432&#45;&gt;4445574480exp</title>
<path fill="none" stroke="black" d="M1036.3,-99.5C1045.14,-99.5 1053.77,-99.5 1061.64,-99.5"/>
<polygon fill="black" stroke="black" points="1061.85,-103 1071.85,-99.5 1061.85,-96 1061.85,-103"/>
</g>
<!-- 4445574432*&#45;&gt;4445574432 -->
<g id="edge4" class="edge">
<title>4445574432*&#45;&gt;4445574432</title>
<path fill="none" stroke="black" d="M833.17,-99.5C840.75,-99.5 849.5,-99.5 858.74,-99.5"/>
<polygon fill="black" stroke="black" points="858.92,-103 868.92,-99.5 858.92,-96 858.92,-103"/>
</g>
<!-- 4445576496 -->
<g id="node13" class="node">
<title>4445576496</title>
<polygon fill="none" stroke="black" points="1751,-53.5 1751,-89.5 1913,-89.5 1913,-53.5 1751,-53.5"/>
<text text-anchor="middle" x="1791" y="-67.8" font-family="Times,serif" font-size="14.00">data 0.8808</text>
<polyline fill="none" stroke="black" points="1831,-53.5 1831,-89.5 "/>
<text text-anchor="middle" x="1872" y="-67.8" font-family="Times,serif" font-size="14.00">grad 0.0000</text>
</g>
<!-- 4445576496&#45;&gt;4445573616+ -->
<g id="edge10" class="edge">
<title>4445576496&#45;&gt;4445573616+</title>
<path fill="none" stroke="black" d="M1913.06,-86.11C1924.59,-88.21 1935.92,-90.28 1945.92,-92.1"/>
<polygon fill="black" stroke="black" points="1945.35,-95.55 1955.82,-93.91 1946.61,-88.67 1945.35,-95.55"/>
</g>
<!-- 4445576496**&#45;1&#45;&gt;4445576496 -->
<g id="edge5" class="edge">
<title>4445576496**&#45;1&#45;&gt;4445576496</title>
<path fill="none" stroke="black" d="M1709.12,-71.5C1718.3,-71.5 1729.2,-71.5 1740.65,-71.5"/>
<polygon fill="black" stroke="black" points="1740.82,-75 1750.82,-71.5 1740.82,-68 1740.82,-75"/>
</g>
<!-- 4445574960 -->
<g id="node15" class="node">
<title>4445574960</title>
<polygon fill="none" stroke="black" points="1450,-108.5 1450,-144.5 1619,-144.5 1619,-108.5 1450,-108.5"/>
<text text-anchor="middle" x="1493.5" y="-122.8" font-family="Times,serif" font-size="14.00">data 10.0000</text>
<polyline fill="none" stroke="black" points="1537,-108.5 1537,-144.5 "/>
<text text-anchor="middle" x="1578" y="-122.8" font-family="Times,serif" font-size="14.00">grad 0.0000</text>
</g>
<!-- 4445574960&#45;&gt;4445574768* -->
<g id="edge20" class="edge">
<title>4445574960&#45;&gt;4445574768*</title>
<path fill="none" stroke="black" d="M1619.29,-126.5C1628.15,-126.5 1636.79,-126.5 1644.66,-126.5"/>
<polygon fill="black" stroke="black" points="1644.87,-130 1654.87,-126.5 1644.87,-123 1644.87,-130"/>
</g>
<!-- 4445574480 -->
<g id="node16" class="node">
<title>4445574480</title>
<polygon fill="none" stroke="black" points="1162,-81.5 1162,-117.5 1324,-117.5 1324,-81.5 1162,-81.5"/>
<text text-anchor="middle" x="1202" y="-95.8" font-family="Times,serif" font-size="14.00">data 0.1353</text>
<polyline fill="none" stroke="black" points="1242,-81.5 1242,-117.5 "/>
<text text-anchor="middle" x="1283" y="-95.8" font-family="Times,serif" font-size="14.00">grad 0.0000</text>
</g>
<!-- 4445574480&#45;&gt;4445575680+ -->
<g id="edge23" class="edge">
<title>4445574480&#45;&gt;4445575680+</title>
<path fill="none" stroke="black" d="M1324.13,-83.7C1333.51,-81.85 1342.67,-80.04 1350.94,-78.41"/>
<polygon fill="black" stroke="black" points="1351.77,-81.82 1360.9,-76.45 1350.42,-74.95 1351.77,-81.82"/>
</g>
<!-- 4445574480exp&#45;&gt;4445574480 -->
<g id="edge6" class="edge">
<title>4445574480exp&#45;&gt;4445574480</title>
<path fill="none" stroke="black" d="M1126.04,-99.5C1133.63,-99.5 1142.38,-99.5 1151.6,-99.5"/>
<polygon fill="black" stroke="black" points="1151.76,-103 1161.76,-99.5 1151.76,-96 1151.76,-103"/>
</g>
<!-- 4445576544 -->
<g id="node18" class="node">
<title>4445576544</title>
<polygon fill="none" stroke="black" points="2338,-80.5 2338,-116.5 2507,-116.5 2507,-80.5 2338,-80.5"/>
<text text-anchor="middle" x="2381.5" y="-94.8" font-family="Times,serif" font-size="14.00">data 83.1599</text>
<polyline fill="none" stroke="black" points="2425,-80.5 2425,-116.5 "/>
<text text-anchor="middle" x="2466" y="-94.8" font-family="Times,serif" font-size="14.00">grad 0.0000</text>
</g>
<!-- 4445576544**2 -->
<g id="node19" class="node">
<title>4445576544**2</title>
<ellipse fill="none" stroke="black" cx="2275" cy="-98.5" rx="27" ry="18"/>
<text text-anchor="middle" x="2275" y="-94.8" font-family="Times,serif" font-size="14.00">**2</text>
</g>
<!-- 4445576544**2&#45;&gt;4445576544 -->
<g id="edge7" class="edge">
<title>4445576544**2&#45;&gt;4445576544</title>
<path fill="none" stroke="black" d="M2302.01,-98.5C2309.58,-98.5 2318.31,-98.5 2327.54,-98.5"/>
<polygon fill="black" stroke="black" points="2327.72,-102 2337.72,-98.5 2327.72,-95 2327.72,-102"/>
</g>
<!-- 6074982752 -->
<g id="node20" class="node">
<title>6074982752</title>
<polygon fill="none" stroke="black" points="288,-82.5 288,-118.5 450,-118.5 450,-82.5 288,-82.5"/>
<text text-anchor="middle" x="328" y="-96.8" font-family="Times,serif" font-size="14.00">data 0.0000</text>
<polyline fill="none" stroke="black" points="368,-82.5 368,-118.5 "/>
<text text-anchor="middle" x="409" y="-96.8" font-family="Times,serif" font-size="14.00">grad 0.0000</text>
</g>
<!-- 6074982752&#45;&gt;4445575776+ -->
<g id="edge15" class="edge">
<title>6074982752&#45;&gt;4445575776+</title>
<path fill="none" stroke="black" d="M450.13,-84.7C459.51,-82.85 468.67,-81.04 476.94,-79.41"/>
<polygon fill="black" stroke="black" points="477.77,-82.82 486.9,-77.45 476.42,-75.95 477.77,-82.82"/>
</g>
<!-- 4445575008 -->
<g id="node21" class="node">
<title>4445575008</title>
<polygon fill="none" stroke="black" points="1162,-26.5 1162,-62.5 1324,-62.5 1324,-26.5 1162,-26.5"/>
<text text-anchor="middle" x="1202" y="-40.8" font-family="Times,serif" font-size="14.00">data 1.0000</text>
<polyline fill="none" stroke="black" points="1242,-26.5 1242,-62.5 "/>
<text text-anchor="middle" x="1283" y="-40.8" font-family="Times,serif" font-size="14.00">grad 0.0000</text>
</g>
<!-- 4445575008&#45;&gt;4445575680+ -->
<g id="edge22" class="edge">
<title>4445575008&#45;&gt;4445575680+</title>
<path fill="none" stroke="black" d="M1324.13,-59.74C1333.51,-61.52 1342.67,-63.26 1350.94,-64.83"/>
<polygon fill="black" stroke="black" points="1350.43,-68.3 1360.9,-66.73 1351.73,-61.42 1350.43,-68.3"/>
</g>
<!-- 4445573568 -->
<g id="node22" class="node">
<title>4445573568</title>
<polygon fill="none" stroke="black" points="288,-27.5 288,-63.5 450,-63.5 450,-27.5 288,-27.5"/>
<text text-anchor="middle" x="328" y="-41.8" font-family="Times,serif" font-size="14.00">data 2.0000</text>
<polyline fill="none" stroke="black" points="368,-27.5 368,-63.5 "/>
<text text-anchor="middle" x="409" y="-41.8" font-family="Times,serif" font-size="14.00">grad 0.0000</text>
</g>
<!-- 4445573568&#45;&gt;4445575776+ -->
<g id="edge19" class="edge">
<title>4445573568&#45;&gt;4445575776+</title>
<path fill="none" stroke="black" d="M450.13,-60.74C459.51,-62.52 468.67,-64.26 476.94,-65.83"/>
<polygon fill="black" stroke="black" points="476.43,-69.3 486.9,-67.73 477.73,-62.42 476.43,-69.3"/>
</g>
<!-- 4445573568*&#45;&gt;4445573568 -->
<g id="edge8" class="edge">
<title>4445573568*&#45;&gt;4445573568</title>
<path fill="none" stroke="black" d="M252.04,-45.5C259.63,-45.5 268.38,-45.5 277.6,-45.5"/>
<polygon fill="black" stroke="black" points="277.76,-49 287.76,-45.5 277.76,-42 277.76,-49"/>
</g>
<!-- 4445573616 -->
<g id="node24" class="node">
<title>4445573616</title>
<polygon fill="none" stroke="black" points="2045,-80.5 2045,-116.5 2212,-116.5 2212,-80.5 2045,-80.5"/>
<text text-anchor="middle" x="2087.5" y="-94.8" font-family="Times,serif" font-size="14.00">data &#45;9.1192</text>
<polyline fill="none" stroke="black" points="2130,-80.5 2130,-116.5 "/>
<text text-anchor="middle" x="2171" y="-94.8" font-family="Times,serif" font-size="14.00">grad 0.0000</text>
</g>
<!-- 4445573616&#45;&gt;4445576544**2 -->
<g id="edge17" class="edge">
<title>4445573616&#45;&gt;4445576544**2</title>
<path fill="none" stroke="black" d="M2212.3,-98.5C2221.14,-98.5 2229.77,-98.5 2237.64,-98.5"/>
<polygon fill="black" stroke="black" points="2237.85,-102 2247.85,-98.5 2237.85,-95 2237.85,-102"/>
</g>
<!-- 4445573616+&#45;&gt;4445573616 -->
<g id="edge9" class="edge">
<title>4445573616+&#45;&gt;4445573616</title>
<path fill="none" stroke="black" d="M2009.17,-98.5C2016.75,-98.5 2025.5,-98.5 2034.74,-98.5"/>
<polygon fill="black" stroke="black" points="2034.92,-102 2044.92,-98.5 2034.92,-95 2034.92,-102"/>
</g>
</g>
</svg>
