<?xml version="1.0" encoding="UTF-8" standalone="no"?>
<!DOCTYPE svg PUBLIC "-//W3C//DTD SVG 1.1//EN"
 "http://www.w3.org/Graphics/SVG/1.1/DTD/svg11.dtd">
<!-- Generated by graphviz version 14.0.0 (20250921.2048)
 -->
<!-- Pages: 1 -->
<svg width="2505pt" height="236pt"
 viewBox="0.00 0.00 2505.00 236.00" xmlns="http://www.w3.org/2000/svg" xmlns:xlink="http://www.w3.org/1999/xlink">
<g id="graph0" class="graph" transform="scale(1 1) rotate(0) translate(4 232)">
<polygon fill="white" stroke="none" points="-4,4 -4,-232 2500.87,-232 2500.87,4 -4,4"/>
<!-- 4550910480 -->
<g id="node1" class="node">
<title>4550910480</title>
<polygon fill="none" stroke="black" points="2329.12,-108.5 2329.12,-144.5 2496.87,-144.5 2496.87,-108.5 2329.12,-108.5"/>
<text xml:space="preserve" text-anchor="middle" x="2372.37" y="-121.7" font-family="Times,serif" font-size="14.00">data 83.1599</text>
<polyline fill="none" stroke="black" points="2415.62,-109 2415.62,-144.5"/>
<text xml:space="preserve" text-anchor="middle" x="2456.24" y="-121.7" font-family="Times,serif" font-size="14.00">grad 0.0000</text>
</g>
<!-- 4550910480**2 -->
<g id="node2" class="node">
<title>4550910480**2</title>
<ellipse fill="none" stroke="black" cx="2266.12" cy="-126.5" rx="27" ry="18"/>
<text xml:space="preserve" text-anchor="middle" x="2266.12" y="-121.45" font-family="Times,serif" font-size="14.00">**2</text>
</g>
<!-- 4550910480**2&#45;&gt;4550910480 -->
<g id="edge1" class="edge">
<title>4550910480**2&#45;&gt;4550910480</title>
<path fill="none" stroke="black" d="M2293.35,-126.5C2300.58,-126.5 2308.85,-126.5 2317.6,-126.5"/>
<polygon fill="black" stroke="black" points="2317.38,-130 2327.38,-126.5 2317.38,-123 2317.38,-130"/>
</g>
<!-- 4550227536 -->
<g id="node3" class="node">
<title>4550227536</title>
<polygon fill="none" stroke="black" points="1157,-109.5 1157,-145.5 1318,-145.5 1318,-109.5 1157,-109.5"/>
<text xml:space="preserve" text-anchor="middle" x="1196.88" y="-122.7" font-family="Times,serif" font-size="14.00">data 1.0000</text>
<polyline fill="none" stroke="black" points="1236.75,-110 1236.75,-145.5"/>
<text xml:space="preserve" text-anchor="middle" x="1277.38" y="-122.7" font-family="Times,serif" font-size="14.00">grad 0.0000</text>
</g>
<!-- 4551174304+ -->
<g id="node13" class="node">
<title>4551174304+</title>
<ellipse fill="none" stroke="black" cx="1381" cy="-99.5" rx="27" ry="18"/>
<text xml:space="preserve" text-anchor="middle" x="1381" y="-94.45" font-family="Times,serif" font-size="14.00">+</text>
</g>
<!-- 4550227536&#45;&gt;4551174304+ -->
<g id="edge22" class="edge">
<title>4550227536&#45;&gt;4551174304+</title>
<path fill="none" stroke="black" d="M1318.35,-111.7C1327.09,-109.97 1335.64,-108.28 1343.46,-106.73"/>
<polygon fill="black" stroke="black" points="1344.08,-110.18 1353.21,-104.8 1342.72,-103.31 1344.08,-110.18"/>
</g>
<!-- 4548080720 -->
<g id="node4" class="node">
<title>4548080720</title>
<polygon fill="none" stroke="black" points="2037.62,-108.5 2037.62,-144.5 2203.12,-144.5 2203.12,-108.5 2037.62,-108.5"/>
<text xml:space="preserve" text-anchor="middle" x="2079.74" y="-121.7" font-family="Times,serif" font-size="14.00">data &#45;9.1192</text>
<polyline fill="none" stroke="black" points="2121.87,-109 2121.87,-144.5"/>
<text xml:space="preserve" text-anchor="middle" x="2162.49" y="-121.7" font-family="Times,serif" font-size="14.00">grad 0.0000</text>
</g>
<!-- 4548080720&#45;&gt;4550910480**2 -->
<g id="edge12" class="edge">
<title>4548080720&#45;&gt;4550910480**2</title>
<path fill="none" stroke="black" d="M2203.32,-126.5C2211.76,-126.5 2220.01,-126.5 2227.6,-126.5"/>
<polygon fill="black" stroke="black" points="2227.38,-130 2237.38,-126.5 2227.38,-123 2227.38,-130"/>
</g>
<!-- 4548080720+ -->
<g id="node5" class="node">
<title>4548080720+</title>
<ellipse fill="none" stroke="black" cx="1974.62" cy="-126.5" rx="27" ry="18"/>
<text xml:space="preserve" text-anchor="middle" x="1974.62" y="-121.45" font-family="Times,serif" font-size="14.00">+</text>
</g>
<!-- 4548080720+&#45;&gt;4548080720 -->
<g id="edge2" class="edge">
<title>4548080720+&#45;&gt;4548080720</title>
<path fill="none" stroke="black" d="M2001.98,-126.5C2009.08,-126.5 2017.19,-126.5 2025.75,-126.5"/>
<polygon fill="black" stroke="black" points="2025.71,-130 2035.71,-126.5 2025.71,-123 2025.71,-130"/>
</g>
<!-- 4550217296 -->
<g id="node6" class="node">
<title>4550217296</title>
<polygon fill="none" stroke="black" points="1157,-54.5 1157,-90.5 1318,-90.5 1318,-54.5 1157,-54.5"/>
<text xml:space="preserve" text-anchor="middle" x="1196.88" y="-67.7" font-family="Times,serif" font-size="14.00">data 0.1353</text>
<polyline fill="none" stroke="black" points="1236.75,-55 1236.75,-90.5"/>
<text xml:space="preserve" text-anchor="middle" x="1277.38" y="-67.7" font-family="Times,serif" font-size="14.00">grad 0.0000</text>
</g>
<!-- 4550217296&#45;&gt;4551174304+ -->
<g id="edge10" class="edge">
<title>4550217296&#45;&gt;4551174304+</title>
<path fill="none" stroke="black" d="M1318.35,-87.74C1327.09,-89.4 1335.64,-91.04 1343.46,-92.53"/>
<polygon fill="black" stroke="black" points="1342.73,-95.95 1353.21,-94.39 1344.04,-89.08 1342.73,-95.95"/>
</g>
<!-- 4550217296exp -->
<g id="node7" class="node">
<title>4550217296exp</title>
<ellipse fill="none" stroke="black" cx="1094" cy="-72.5" rx="27" ry="18"/>
<text xml:space="preserve" text-anchor="middle" x="1094" y="-67.45" font-family="Times,serif" font-size="14.00">exp</text>
</g>
<!-- 4550217296exp&#45;&gt;4550217296 -->
<g id="edge3" class="edge">
<title>4550217296exp&#45;&gt;4550217296</title>
<path fill="none" stroke="black" d="M1121.28,-72.5C1128.4,-72.5 1136.52,-72.5 1145.08,-72.5"/>
<polygon fill="black" stroke="black" points="1145.04,-76 1155.04,-72.5 1145.04,-69 1145.04,-76"/>
</g>
<!-- 4550468176 -->
<g id="node8" class="node">
<title>4550468176</title>
<polygon fill="none" stroke="black" points="865.5,-54.5 865.5,-90.5 1031,-90.5 1031,-54.5 865.5,-54.5"/>
<text xml:space="preserve" text-anchor="middle" x="907.62" y="-67.7" font-family="Times,serif" font-size="14.00">data &#45;2.0000</text>
<polyline fill="none" stroke="black" points="949.75,-55 949.75,-90.5"/>
<text xml:space="preserve" text-anchor="middle" x="990.38" y="-67.7" font-family="Times,serif" font-size="14.00">grad 0.0000</text>
</g>
<!-- 4550468176&#45;&gt;4550217296exp -->
<g id="edge15" class="edge">
<title>4550468176&#45;&gt;4550217296exp</title>
<path fill="none" stroke="black" d="M1031.2,-72.5C1039.64,-72.5 1047.9,-72.5 1055.48,-72.5"/>
<polygon fill="black" stroke="black" points="1055.27,-76 1065.27,-72.5 1055.27,-69 1055.27,-76"/>
</g>
<!-- 4550468176* -->
<g id="node9" class="node">
<title>4550468176*</title>
<ellipse fill="none" stroke="black" cx="802.5" cy="-72.5" rx="27" ry="18"/>
<text xml:space="preserve" text-anchor="middle" x="802.5" y="-67.45" font-family="Times,serif" font-size="14.00">*</text>
</g>
<!-- 4550468176*&#45;&gt;4550468176 -->
<g id="edge4" class="edge">
<title>4550468176*&#45;&gt;4550468176</title>
<path fill="none" stroke="black" d="M829.87,-72.5C836.97,-72.5 845.07,-72.5 853.64,-72.5"/>
<polygon fill="black" stroke="black" points="853.59,-76 863.59,-72.5 853.59,-69 853.59,-76"/>
</g>
<!-- 4551671408 -->
<g id="node10" class="node">
<title>4551671408</title>
<polygon fill="none" stroke="black" points="1739.37,-136.5 1739.37,-172.5 1911.62,-172.5 1911.62,-136.5 1739.37,-136.5"/>
<text xml:space="preserve" text-anchor="middle" x="1784.87" y="-149.7" font-family="Times,serif" font-size="14.00">data &#45;10.0000</text>
<polyline fill="none" stroke="black" points="1830.37,-137 1830.37,-172.5"/>
<text xml:space="preserve" text-anchor="middle" x="1870.99" y="-149.7" font-family="Times,serif" font-size="14.00">grad 0.0000</text>
</g>
<!-- 4551671408&#45;&gt;4548080720+ -->
<g id="edge21" class="edge">
<title>4551671408&#45;&gt;4548080720+</title>
<path fill="none" stroke="black" d="M1912.07,-138.21C1920.81,-136.55 1929.31,-134.93 1937.06,-133.46"/>
<polygon fill="black" stroke="black" points="1937.54,-136.93 1946.71,-131.62 1936.23,-130.05 1937.54,-136.93"/>
</g>
<!-- 4551671408* -->
<g id="node11" class="node">
<title>4551671408*</title>
<ellipse fill="none" stroke="black" cx="1675.56" cy="-154.5" rx="27" ry="18"/>
<text xml:space="preserve" text-anchor="middle" x="1675.56" y="-149.45" font-family="Times,serif" font-size="14.00">*</text>
</g>
<!-- 4551671408*&#45;&gt;4551671408 -->
<g id="edge5" class="edge">
<title>4551671408*&#45;&gt;4551671408</title>
<path fill="none" stroke="black" d="M1703.01,-154.5C1710.31,-154.5 1718.69,-154.5 1727.55,-154.5"/>
<polygon fill="black" stroke="black" points="1727.49,-158 1737.49,-154.5 1727.49,-151 1727.49,-158"/>
</g>
<!-- 4551174304 -->
<g id="node12" class="node">
<title>4551174304</title>
<polygon fill="none" stroke="black" points="1447.38,-81.5 1447.38,-117.5 1608.38,-117.5 1608.38,-81.5 1447.38,-81.5"/>
<text xml:space="preserve" text-anchor="middle" x="1487.25" y="-94.7" font-family="Times,serif" font-size="14.00">data 1.1353</text>
<polyline fill="none" stroke="black" points="1527.12,-82 1527.12,-117.5"/>
<text xml:space="preserve" text-anchor="middle" x="1567.75" y="-94.7" font-family="Times,serif" font-size="14.00">grad 0.0000</text>
</g>
<!-- 4551174544**&#45;1 -->
<g id="node22" class="node">
<title>4551174544**&#45;1</title>
<ellipse fill="none" stroke="black" cx="1675.56" cy="-99.5" rx="27.81" ry="18"/>
<text xml:space="preserve" text-anchor="middle" x="1675.56" y="-94.45" font-family="Times,serif" font-size="14.00">**&#45;1</text>
</g>
<!-- 4551174304&#45;&gt;4551174544**&#45;1 -->
<g id="edge16" class="edge">
<title>4551174304&#45;&gt;4551174544**&#45;1</title>
<path fill="none" stroke="black" d="M1608.54,-99.5C1618.02,-99.5 1627.34,-99.5 1635.86,-99.5"/>
<polygon fill="black" stroke="black" points="1635.79,-103 1645.79,-99.5 1635.79,-96 1635.79,-103"/>
</g>
<!-- 4551174304+&#45;&gt;4551174304 -->
<g id="edge6" class="edge">
<title>4551174304+&#45;&gt;4551174304</title>
<path fill="none" stroke="black" d="M1408.24,-99.5C1416.35,-99.5 1425.8,-99.5 1435.75,-99.5"/>
<polygon fill="black" stroke="black" points="1435.64,-103 1445.64,-99.5 1435.64,-96 1435.64,-103"/>
</g>
<!-- 4551283376 -->
<g id="node14" class="node">
<title>4551283376</title>
<polygon fill="none" stroke="black" points="0,-83.5 0,-119.5 161,-119.5 161,-83.5 0,-83.5"/>
<text xml:space="preserve" text-anchor="middle" x="39.88" y="-96.7" font-family="Times,serif" font-size="14.00">data 2.0000</text>
<polyline fill="none" stroke="black" points="79.75,-84 79.75,-119.5"/>
<text xml:space="preserve" text-anchor="middle" x="120.38" y="-96.7" font-family="Times,serif" font-size="14.00">grad 0.0000</text>
</g>
<!-- 4550478592* -->
<g id="node17" class="node">
<title>4550478592*</title>
<ellipse fill="none" stroke="black" cx="224" cy="-73.5" rx="27" ry="18"/>
<text xml:space="preserve" text-anchor="middle" x="224" y="-68.45" font-family="Times,serif" font-size="14.00">*</text>
</g>
<!-- 4551283376&#45;&gt;4550478592* -->
<g id="edge23" class="edge">
<title>4551283376&#45;&gt;4550478592*</title>
<path fill="none" stroke="black" d="M161.35,-85.7C170.09,-83.97 178.64,-82.28 186.46,-80.73"/>
<polygon fill="black" stroke="black" points="187.08,-84.18 196.21,-78.8 185.72,-77.31 187.08,-84.18"/>
</g>
<!-- 4551670736 -->
<g id="node15" class="node">
<title>4551670736</title>
<polygon fill="none" stroke="black" points="1445.12,-191.5 1445.12,-227.5 1610.62,-227.5 1610.62,-191.5 1445.12,-191.5"/>
<text xml:space="preserve" text-anchor="middle" x="1487.25" y="-204.7" font-family="Times,serif" font-size="14.00">data &#45;1.0000</text>
<polyline fill="none" stroke="black" points="1529.38,-192 1529.38,-227.5"/>
<text xml:space="preserve" text-anchor="middle" x="1570" y="-204.7" font-family="Times,serif" font-size="14.00">grad 0.0000</text>
</g>
<!-- 4551670736&#45;&gt;4551671408* -->
<g id="edge14" class="edge">
<title>4551670736&#45;&gt;4551671408*</title>
<path fill="none" stroke="black" d="M1588,-191.08C1596.03,-188.33 1604.12,-185.43 1611.75,-182.5 1621.98,-178.57 1632.95,-173.85 1642.81,-169.43"/>
<polygon fill="black" stroke="black" points="1643.97,-172.74 1651.62,-165.41 1641.06,-166.38 1643.97,-172.74"/>
</g>
<!-- 4550478592 -->
<g id="node16" class="node">
<title>4550478592</title>
<polygon fill="none" stroke="black" points="287,-55.5 287,-91.5 448,-91.5 448,-55.5 287,-55.5"/>
<text xml:space="preserve" text-anchor="middle" x="326.88" y="-68.7" font-family="Times,serif" font-size="14.00">data 2.0000</text>
<polyline fill="none" stroke="black" points="366.75,-56 366.75,-91.5"/>
<text xml:space="preserve" text-anchor="middle" x="407.38" y="-68.7" font-family="Times,serif" font-size="14.00">grad 0.0000</text>
</g>
<!-- 4551860176+ -->
<g id="node25" class="node">
<title>4551860176+</title>
<ellipse fill="none" stroke="black" cx="511" cy="-45.5" rx="27" ry="18"/>
<text xml:space="preserve" text-anchor="middle" x="511" y="-40.45" font-family="Times,serif" font-size="14.00">+</text>
</g>
<!-- 4550478592&#45;&gt;4551860176+ -->
<g id="edge24" class="edge">
<title>4550478592&#45;&gt;4551860176+</title>
<path fill="none" stroke="black" d="M448.35,-57.7C457.09,-55.97 465.64,-54.28 473.46,-52.73"/>
<polygon fill="black" stroke="black" points="474.08,-56.18 483.21,-50.8 472.72,-49.31 474.08,-56.18"/>
</g>
<!-- 4550478592*&#45;&gt;4550478592 -->
<g id="edge7" class="edge">
<title>4550478592*&#45;&gt;4550478592</title>
<path fill="none" stroke="black" d="M251.28,-73.5C258.4,-73.5 266.52,-73.5 275.08,-73.5"/>
<polygon fill="black" stroke="black" points="275.04,-77 285.04,-73.5 275.04,-70 275.04,-77"/>
</g>
<!-- 4550485280 -->
<g id="node18" class="node">
<title>4550485280</title>
<polygon fill="none" stroke="black" points="1444,-136.5 1444,-172.5 1611.75,-172.5 1611.75,-136.5 1444,-136.5"/>
<text xml:space="preserve" text-anchor="middle" x="1487.25" y="-149.7" font-family="Times,serif" font-size="14.00">data 10.0000</text>
<polyline fill="none" stroke="black" points="1530.5,-137 1530.5,-172.5"/>
<text xml:space="preserve" text-anchor="middle" x="1571.12" y="-149.7" font-family="Times,serif" font-size="14.00">grad 0.0000</text>
</g>
<!-- 4550485280&#45;&gt;4551671408* -->
<g id="edge13" class="edge">
<title>4550485280&#45;&gt;4551671408*</title>
<path fill="none" stroke="black" d="M1611.93,-154.5C1620.67,-154.5 1629.21,-154.5 1637.04,-154.5"/>
<polygon fill="black" stroke="black" points="1636.78,-158 1646.78,-154.5 1636.78,-151 1636.78,-158"/>
</g>
<!-- 4550467904 -->
<g id="node19" class="node">
<title>4550467904</title>
<polygon fill="none" stroke="black" points="574,-82.5 574,-118.5 739.5,-118.5 739.5,-82.5 574,-82.5"/>
<text xml:space="preserve" text-anchor="middle" x="616.12" y="-95.7" font-family="Times,serif" font-size="14.00">data &#45;1.0000</text>
<polyline fill="none" stroke="black" points="658.25,-83 658.25,-118.5"/>
<text xml:space="preserve" text-anchor="middle" x="698.88" y="-95.7" font-family="Times,serif" font-size="14.00">grad 0.0000</text>
</g>
<!-- 4550467904&#45;&gt;4550468176* -->
<g id="edge11" class="edge">
<title>4550467904&#45;&gt;4550468176*</title>
<path fill="none" stroke="black" d="M739.7,-84.54C748.5,-82.82 757.08,-81.15 764.92,-79.62"/>
<polygon fill="black" stroke="black" points="765.55,-83.07 774.7,-77.72 764.21,-76.2 765.55,-83.07"/>
</g>
<!-- 4551455632 -->
<g id="node20" class="node">
<title>4551455632</title>
<polygon fill="none" stroke="black" points="287,-0.5 287,-36.5 448,-36.5 448,-0.5 287,-0.5"/>
<text xml:space="preserve" text-anchor="middle" x="326.88" y="-13.7" font-family="Times,serif" font-size="14.00">data 0.0000</text>
<polyline fill="none" stroke="black" points="366.75,-1 366.75,-36.5"/>
<text xml:space="preserve" text-anchor="middle" x="407.38" y="-13.7" font-family="Times,serif" font-size="14.00">grad 0.0000</text>
</g>
<!-- 4551455632&#45;&gt;4551860176+ -->
<g id="edge20" class="edge">
<title>4551455632&#45;&gt;4551860176+</title>
<path fill="none" stroke="black" d="M448.35,-33.74C457.09,-35.4 465.64,-37.04 473.46,-38.53"/>
<polygon fill="black" stroke="black" points="472.73,-41.95 483.21,-40.39 474.04,-35.08 472.73,-41.95"/>
</g>
<!-- 4551174544 -->
<g id="node21" class="node">
<title>4551174544</title>
<polygon fill="none" stroke="black" points="1744.99,-81.5 1744.99,-117.5 1905.99,-117.5 1905.99,-81.5 1744.99,-81.5"/>
<text xml:space="preserve" text-anchor="middle" x="1784.87" y="-94.7" font-family="Times,serif" font-size="14.00">data 0.8808</text>
<polyline fill="none" stroke="black" points="1824.74,-82 1824.74,-117.5"/>
<text xml:space="preserve" text-anchor="middle" x="1865.37" y="-94.7" font-family="Times,serif" font-size="14.00">grad 0.0000</text>
</g>
<!-- 4551174544&#45;&gt;4548080720+ -->
<g id="edge17" class="edge">
<title>4551174544&#45;&gt;4548080720+</title>
<path fill="none" stroke="black" d="M1906.08,-114.11C1916.96,-116.1 1927.66,-118.07 1937.23,-119.82"/>
<polygon fill="black" stroke="black" points="1936.31,-123.21 1946.78,-121.57 1937.57,-116.33 1936.31,-123.21"/>
</g>
<!-- 4551174544**&#45;1&#45;&gt;4551174544 -->
<g id="edge8" class="edge">
<title>4551174544**&#45;1&#45;&gt;4551174544</title>
<path fill="none" stroke="black" d="M1703.69,-99.5C1712.42,-99.5 1722.63,-99.5 1733.34,-99.5"/>
<polygon fill="black" stroke="black" points="1733.14,-103 1743.14,-99.5 1733.14,-96 1733.14,-103"/>
</g>
<!-- 4551627216 -->
<g id="node23" class="node">
<title>4551627216</title>
<polygon fill="none" stroke="black" points="0,-28.5 0,-64.5 161,-64.5 161,-28.5 0,-28.5"/>
<text xml:space="preserve" text-anchor="middle" x="39.88" y="-41.7" font-family="Times,serif" font-size="14.00">data 1.0000</text>
<polyline fill="none" stroke="black" points="79.75,-29 79.75,-64.5"/>
<text xml:space="preserve" text-anchor="middle" x="120.38" y="-41.7" font-family="Times,serif" font-size="14.00">grad 0.0000</text>
</g>
<!-- 4551627216&#45;&gt;4550478592* -->
<g id="edge18" class="edge">
<title>4551627216&#45;&gt;4550478592*</title>
<path fill="none" stroke="black" d="M161.35,-61.74C170.09,-63.4 178.64,-65.04 186.46,-66.53"/>
<polygon fill="black" stroke="black" points="185.73,-69.95 196.21,-68.39 187.04,-63.08 185.73,-69.95"/>
</g>
<!-- 4551860176 -->
<g id="node24" class="node">
<title>4551860176</title>
<polygon fill="none" stroke="black" points="576.25,-27.5 576.25,-63.5 737.25,-63.5 737.25,-27.5 576.25,-27.5"/>
<text xml:space="preserve" text-anchor="middle" x="616.12" y="-40.7" font-family="Times,serif" font-size="14.00">data 2.0000</text>
<polyline fill="none" stroke="black" points="656,-28 656,-63.5"/>
<text xml:space="preserve" text-anchor="middle" x="696.62" y="-40.7" font-family="Times,serif" font-size="14.00">grad 0.0000</text>
</g>
<!-- 4551860176&#45;&gt;4550468176* -->
<g id="edge19" class="edge">
<title>4551860176&#45;&gt;4550468176*</title>
<path fill="none" stroke="black" d="M737.61,-60.5C747.1,-62.28 756.4,-64.03 764.84,-65.61"/>
<polygon fill="black" stroke="black" points="764.16,-69.05 774.64,-67.45 765.46,-62.17 764.16,-69.05"/>
</g>
<!-- 4551860176+&#45;&gt;4551860176 -->
<g id="edge9" class="edge">
<title>4551860176+&#45;&gt;4551860176</title>
<path fill="none" stroke="black" d="M538.37,-45.5C546.17,-45.5 555.2,-45.5 564.7,-45.5"/>
<polygon fill="black" stroke="black" points="564.52,-49 574.52,-45.5 564.52,-42 564.52,-49"/>
</g>
</g>
</svg>
