<?xml version="1.0" encoding="UTF-8" standalone="no"?>
<!DOCTYPE svg PUBLIC "-//W3C//DTD SVG 1.1//EN"
 "http://www.w3.org/Graphics/SVG/1.1/DTD/svg11.dtd">
<!-- Generated by graphviz version 2.50.0 (0)
 -->
<!-- Pages: 1 -->
<svg width="2515pt" height="236pt"
 viewBox="0.00 0.00 2515.00 236.00" xmlns="http://www.w3.org/2000/svg" xmlns:xlink="http://www.w3.org/1999/xlink">
<g id="graph0" class="graph" transform="scale(1 1) rotate(0) translate(4 232)">
<polygon fill="white" stroke="transparent" points="-4,4 -4,-232 2511,-232 2511,4 -4,4"/>
<!-- 5299144208 -->
<g id="node1" class="node">
<title>5299144208</title>
<polygon fill="none" stroke="black" points="2338,-108.5 2338,-144.5 2507,-144.5 2507,-108.5 2338,-108.5"/>
<text text-anchor="middle" x="2381.5" y="-122.8" font-family="Times,serif" font-size="14.00">data 83.1599</text>
<polyline fill="none" stroke="black" points="2425,-108.5 2425,-144.5 "/>
<text text-anchor="middle" x="2466" y="-122.8" font-family="Times,serif" font-size="14.00">grad 0.0000</text>
</g>
<!-- 5299144208**2 -->
<g id="node2" class="node">
<title>5299144208**2</title>
<ellipse fill="none" stroke="black" cx="2275" cy="-126.5" rx="27" ry="18"/>
<text text-anchor="middle" x="2275" y="-122.8" font-family="Times,serif" font-size="14.00">**2</text>
</g>
<!-- 5299144208**2&#45;&gt;5299144208 -->
<g id="edge1" class="edge">
<title>5299144208**2&#45;&gt;5299144208</title>
<path fill="none" stroke="black" d="M2302.01,-126.5C2309.58,-126.5 2318.31,-126.5 2327.54,-126.5"/>
<polygon fill="black" stroke="black" points="2327.72,-130 2337.72,-126.5 2327.72,-123 2327.72,-130"/>
</g>
<!-- 4393676320 -->
<g id="node3" class="node">
<title>4393676320</title>
<polygon fill="none" stroke="black" points="1450,-191.5 1450,-227.5 1619,-227.5 1619,-191.5 1450,-191.5"/>
<text text-anchor="middle" x="1493.5" y="-205.8" font-family="Times,serif" font-size="14.00">data 10.0000</text>
<polyline fill="none" stroke="black" points="1537,-191.5 1537,-227.5 "/>
<text text-anchor="middle" x="1578" y="-205.8" font-family="Times,serif" font-size="14.00">grad 0.0000</text>
</g>
<!-- 5299145792* -->
<g id="node6" class="node">
<title>5299145792*</title>
<ellipse fill="none" stroke="black" cx="1682" cy="-154.5" rx="27" ry="18"/>
<text text-anchor="middle" x="1682" y="-150.8" font-family="Times,serif" font-size="14.00">*</text>
</g>
<!-- 4393676320&#45;&gt;5299145792* -->
<g id="edge20" class="edge">
<title>4393676320&#45;&gt;5299145792*</title>
<path fill="none" stroke="black" d="M1594.19,-191.44C1602.57,-188.59 1611.04,-185.57 1619,-182.5 1629.44,-178.47 1640.64,-173.59 1650.61,-169.04"/>
<polygon fill="black" stroke="black" points="1652.13,-172.19 1659.73,-164.81 1649.18,-165.84 1652.13,-172.19"/>
</g>
<!-- 5299146272 -->
<g id="node4" class="node">
<title>5299146272</title>
<polygon fill="none" stroke="black" points="1451,-136.5 1451,-172.5 1618,-172.5 1618,-136.5 1451,-136.5"/>
<text text-anchor="middle" x="1493.5" y="-150.8" font-family="Times,serif" font-size="14.00">data &#45;1.0000</text>
<polyline fill="none" stroke="black" points="1536,-136.5 1536,-172.5 "/>
<text text-anchor="middle" x="1577" y="-150.8" font-family="Times,serif" font-size="14.00">grad 0.0000</text>
</g>
<!-- 5299146272&#45;&gt;5299145792* -->
<g id="edge22" class="edge">
<title>5299146272&#45;&gt;5299145792*</title>
<path fill="none" stroke="black" d="M1618.03,-154.5C1627.41,-154.5 1636.57,-154.5 1644.87,-154.5"/>
<polygon fill="black" stroke="black" points="1644.87,-158 1654.87,-154.5 1644.87,-151 1644.87,-158"/>
</g>
<!-- 5299145792 -->
<g id="node5" class="node">
<title>5299145792</title>
<polygon fill="none" stroke="black" points="1745,-136.5 1745,-172.5 1919,-172.5 1919,-136.5 1745,-136.5"/>
<text text-anchor="middle" x="1791" y="-150.8" font-family="Times,serif" font-size="14.00">data &#45;10.0000</text>
<polyline fill="none" stroke="black" points="1837,-136.5 1837,-172.5 "/>
<text text-anchor="middle" x="1878" y="-150.8" font-family="Times,serif" font-size="14.00">grad 0.0000</text>
</g>
<!-- 5299146176+ -->
<g id="node23" class="node">
<title>5299146176+</title>
<ellipse fill="none" stroke="black" cx="1982" cy="-126.5" rx="27" ry="18"/>
<text text-anchor="middle" x="1982" y="-122.8" font-family="Times,serif" font-size="14.00">+</text>
</g>
<!-- 5299145792&#45;&gt;5299146176+ -->
<g id="edge24" class="edge">
<title>5299145792&#45;&gt;5299146176+</title>
<path fill="none" stroke="black" d="M1919.09,-138.21C1928.48,-136.44 1937.6,-134.71 1945.83,-133.15"/>
<polygon fill="black" stroke="black" points="1946.56,-136.58 1955.73,-131.28 1945.25,-129.7 1946.56,-136.58"/>
</g>
<!-- 5299145792*&#45;&gt;5299145792 -->
<g id="edge2" class="edge">
<title>5299145792*&#45;&gt;5299145792</title>
<path fill="none" stroke="black" d="M1709.12,-154.5C1716.68,-154.5 1725.4,-154.5 1734.64,-154.5"/>
<polygon fill="black" stroke="black" points="1734.83,-158 1744.83,-154.5 1734.83,-151 1734.83,-158"/>
</g>
<!-- 5315366976 -->
<g id="node7" class="node">
<title>5315366976</title>
<polygon fill="none" stroke="black" points="576,-82.5 576,-118.5 743,-118.5 743,-82.5 576,-82.5"/>
<text text-anchor="middle" x="618.5" y="-96.8" font-family="Times,serif" font-size="14.00">data &#45;1.0000</text>
<polyline fill="none" stroke="black" points="661,-82.5 661,-118.5 "/>
<text text-anchor="middle" x="702" y="-96.8" font-family="Times,serif" font-size="14.00">grad 0.0000</text>
</g>
<!-- 5299144832* -->
<g id="node9" class="node">
<title>5299144832*</title>
<ellipse fill="none" stroke="black" cx="806" cy="-72.5" rx="27" ry="18"/>
<text text-anchor="middle" x="806" y="-68.8" font-family="Times,serif" font-size="14.00">*</text>
</g>
<!-- 5315366976&#45;&gt;5299144832* -->
<g id="edge18" class="edge">
<title>5315366976&#45;&gt;5299144832*</title>
<path fill="none" stroke="black" d="M743.3,-84.46C752.61,-82.65 761.68,-80.89 769.88,-79.31"/>
<polygon fill="black" stroke="black" points="770.59,-82.73 779.75,-77.39 769.26,-75.86 770.59,-82.73"/>
</g>
<!-- 5299144832 -->
<g id="node8" class="node">
<title>5299144832</title>
<polygon fill="none" stroke="black" points="869,-54.5 869,-90.5 1036,-90.5 1036,-54.5 869,-54.5"/>
<text text-anchor="middle" x="911.5" y="-68.8" font-family="Times,serif" font-size="14.00">data &#45;2.0000</text>
<polyline fill="none" stroke="black" points="954,-54.5 954,-90.5 "/>
<text text-anchor="middle" x="995" y="-68.8" font-family="Times,serif" font-size="14.00">grad 0.0000</text>
</g>
<!-- 5299145504exp -->
<g id="node17" class="node">
<title>5299145504exp</title>
<ellipse fill="none" stroke="black" cx="1099" cy="-72.5" rx="27" ry="18"/>
<text text-anchor="middle" x="1099" y="-68.8" font-family="Times,serif" font-size="14.00">exp</text>
</g>
<!-- 5299144832&#45;&gt;5299145504exp -->
<g id="edge11" class="edge">
<title>5299144832&#45;&gt;5299145504exp</title>
<path fill="none" stroke="black" d="M1036.3,-72.5C1045.14,-72.5 1053.77,-72.5 1061.64,-72.5"/>
<polygon fill="black" stroke="black" points="1061.85,-76 1071.85,-72.5 1061.85,-69 1061.85,-76"/>
</g>
<!-- 5299144832*&#45;&gt;5299144832 -->
<g id="edge3" class="edge">
<title>5299144832*&#45;&gt;5299144832</title>
<path fill="none" stroke="black" d="M833.17,-72.5C840.75,-72.5 849.5,-72.5 858.74,-72.5"/>
<polygon fill="black" stroke="black" points="858.92,-76 868.92,-72.5 858.92,-69 858.92,-76"/>
</g>
<!-- 5296389808 -->
<g id="node10" class="node">
<title>5296389808</title>
<polygon fill="none" stroke="black" points="0,-83.5 0,-119.5 162,-119.5 162,-83.5 0,-83.5"/>
<text text-anchor="middle" x="40" y="-97.8" font-family="Times,serif" font-size="14.00">data 1.0000</text>
<polyline fill="none" stroke="black" points="80,-83.5 80,-119.5 "/>
<text text-anchor="middle" x="121" y="-97.8" font-family="Times,serif" font-size="14.00">grad 0.0000</text>
</g>
<!-- 4393674496* -->
<g id="node15" class="node">
<title>4393674496*</title>
<ellipse fill="none" stroke="black" cx="225" cy="-73.5" rx="27" ry="18"/>
<text text-anchor="middle" x="225" y="-69.8" font-family="Times,serif" font-size="14.00">*</text>
</g>
<!-- 5296389808&#45;&gt;4393674496* -->
<g id="edge13" class="edge">
<title>5296389808&#45;&gt;4393674496*</title>
<path fill="none" stroke="black" d="M162.13,-85.7C171.51,-83.85 180.67,-82.04 188.94,-80.41"/>
<polygon fill="black" stroke="black" points="189.77,-83.82 198.9,-78.45 188.42,-76.95 189.77,-83.82"/>
</g>
<!-- 5315369664 -->
<g id="node11" class="node">
<title>5315369664</title>
<polygon fill="none" stroke="black" points="578.5,-27.5 578.5,-63.5 740.5,-63.5 740.5,-27.5 578.5,-27.5"/>
<text text-anchor="middle" x="618.5" y="-41.8" font-family="Times,serif" font-size="14.00">data 2.0000</text>
<polyline fill="none" stroke="black" points="658.5,-27.5 658.5,-63.5 "/>
<text text-anchor="middle" x="699.5" y="-41.8" font-family="Times,serif" font-size="14.00">grad 0.0000</text>
</g>
<!-- 5315369664&#45;&gt;5299144832* -->
<g id="edge15" class="edge">
<title>5315369664&#45;&gt;5299144832*</title>
<path fill="none" stroke="black" d="M740.78,-60.5C750.96,-62.4 760.92,-64.26 769.85,-65.93"/>
<polygon fill="black" stroke="black" points="769.33,-69.4 779.8,-67.79 770.61,-62.51 769.33,-69.4"/>
</g>
<!-- 5315369664+ -->
<g id="node12" class="node">
<title>5315369664+</title>
<ellipse fill="none" stroke="black" cx="513" cy="-45.5" rx="27" ry="18"/>
<text text-anchor="middle" x="513" y="-41.8" font-family="Times,serif" font-size="14.00">+</text>
</g>
<!-- 5315369664+&#45;&gt;5315369664 -->
<g id="edge4" class="edge">
<title>5315369664+&#45;&gt;5315369664</title>
<path fill="none" stroke="black" d="M540.17,-45.5C548.4,-45.5 558.01,-45.5 568.12,-45.5"/>
<polygon fill="black" stroke="black" points="568.37,-49 578.37,-45.5 568.37,-42 568.37,-49"/>
</g>
<!-- 5299144880 -->
<g id="node13" class="node">
<title>5299144880</title>
<polygon fill="none" stroke="black" points="1162,-109.5 1162,-145.5 1324,-145.5 1324,-109.5 1162,-109.5"/>
<text text-anchor="middle" x="1202" y="-123.8" font-family="Times,serif" font-size="14.00">data 1.0000</text>
<polyline fill="none" stroke="black" points="1242,-109.5 1242,-145.5 "/>
<text text-anchor="middle" x="1283" y="-123.8" font-family="Times,serif" font-size="14.00">grad 0.0000</text>
</g>
<!-- 5299146128+ -->
<g id="node20" class="node">
<title>5299146128+</title>
<ellipse fill="none" stroke="black" cx="1387" cy="-99.5" rx="27" ry="18"/>
<text text-anchor="middle" x="1387" y="-95.8" font-family="Times,serif" font-size="14.00">+</text>
</g>
<!-- 5299144880&#45;&gt;5299146128+ -->
<g id="edge21" class="edge">
<title>5299144880&#45;&gt;5299146128+</title>
<path fill="none" stroke="black" d="M1324.13,-111.7C1333.51,-109.85 1342.67,-108.04 1350.94,-106.41"/>
<polygon fill="black" stroke="black" points="1351.77,-109.82 1360.9,-104.45 1350.42,-102.95 1351.77,-109.82"/>
</g>
<!-- 4393674496 -->
<g id="node14" class="node">
<title>4393674496</title>
<polygon fill="none" stroke="black" points="288,-55.5 288,-91.5 450,-91.5 450,-55.5 288,-55.5"/>
<text text-anchor="middle" x="328" y="-69.8" font-family="Times,serif" font-size="14.00">data 2.0000</text>
<polyline fill="none" stroke="black" points="368,-55.5 368,-91.5 "/>
<text text-anchor="middle" x="409" y="-69.8" font-family="Times,serif" font-size="14.00">grad 0.0000</text>
</g>
<!-- 4393674496&#45;&gt;5315369664+ -->
<g id="edge23" class="edge">
<title>4393674496&#45;&gt;5315369664+</title>
<path fill="none" stroke="black" d="M450.13,-57.7C459.51,-55.85 468.67,-54.04 476.94,-52.41"/>
<polygon fill="black" stroke="black" points="477.77,-55.82 486.9,-50.45 476.42,-48.95 477.77,-55.82"/>
</g>
<!-- 4393674496*&#45;&gt;4393674496 -->
<g id="edge5" class="edge">
<title>4393674496*&#45;&gt;4393674496</title>
<path fill="none" stroke="black" d="M252.04,-73.5C259.63,-73.5 268.38,-73.5 277.6,-73.5"/>
<polygon fill="black" stroke="black" points="277.76,-77 287.76,-73.5 277.76,-70 277.76,-77"/>
</g>
<!-- 5299145504 -->
<g id="node16" class="node">
<title>5299145504</title>
<polygon fill="none" stroke="black" points="1162,-54.5 1162,-90.5 1324,-90.5 1324,-54.5 1162,-54.5"/>
<text text-anchor="middle" x="1202" y="-68.8" font-family="Times,serif" font-size="14.00">data 0.1353</text>
<polyline fill="none" stroke="black" points="1242,-54.5 1242,-90.5 "/>
<text text-anchor="middle" x="1283" y="-68.8" font-family="Times,serif" font-size="14.00">grad 0.0000</text>
</g>
<!-- 5299145504&#45;&gt;5299146128+ -->
<g id="edge17" class="edge">
<title>5299145504&#45;&gt;5299146128+</title>
<path fill="none" stroke="black" d="M1324.13,-87.74C1333.51,-89.52 1342.67,-91.26 1350.94,-92.83"/>
<polygon fill="black" stroke="black" points="1350.43,-96.3 1360.9,-94.73 1351.73,-89.42 1350.43,-96.3"/>
</g>
<!-- 5299145504exp&#45;&gt;5299145504 -->
<g id="edge6" class="edge">
<title>5299145504exp&#45;&gt;5299145504</title>
<path fill="none" stroke="black" d="M1126.04,-72.5C1133.63,-72.5 1142.38,-72.5 1151.6,-72.5"/>
<polygon fill="black" stroke="black" points="1151.76,-76 1161.76,-72.5 1151.76,-69 1151.76,-76"/>
</g>
<!-- 5296389472 -->
<g id="node18" class="node">
<title>5296389472</title>
<polygon fill="none" stroke="black" points="288,-0.5 288,-36.5 450,-36.5 450,-0.5 288,-0.5"/>
<text text-anchor="middle" x="328" y="-14.8" font-family="Times,serif" font-size="14.00">data 0.0000</text>
<polyline fill="none" stroke="black" points="368,-0.5 368,-36.5 "/>
<text text-anchor="middle" x="409" y="-14.8" font-family="Times,serif" font-size="14.00">grad 0.0000</text>
</g>
<!-- 5296389472&#45;&gt;5315369664+ -->
<g id="edge10" class="edge">
<title>5296389472&#45;&gt;5315369664+</title>
<path fill="none" stroke="black" d="M450.13,-33.74C459.51,-35.52 468.67,-37.26 476.94,-38.83"/>
<polygon fill="black" stroke="black" points="476.43,-42.3 486.9,-40.73 477.73,-35.42 476.43,-42.3"/>
</g>
<!-- 5299146128 -->
<g id="node19" class="node">
<title>5299146128</title>
<polygon fill="none" stroke="black" points="1453.5,-81.5 1453.5,-117.5 1615.5,-117.5 1615.5,-81.5 1453.5,-81.5"/>
<text text-anchor="middle" x="1493.5" y="-95.8" font-family="Times,serif" font-size="14.00">data 1.1353</text>
<polyline fill="none" stroke="black" points="1533.5,-81.5 1533.5,-117.5 "/>
<text text-anchor="middle" x="1574.5" y="-95.8" font-family="Times,serif" font-size="14.00">grad 0.0000</text>
</g>
<!-- 5299144688**&#45;1 -->
<g id="node25" class="node">
<title>5299144688**&#45;1</title>
<ellipse fill="none" stroke="black" cx="1682" cy="-99.5" rx="27" ry="18"/>
<text text-anchor="middle" x="1682" y="-95.8" font-family="Times,serif" font-size="14.00">**&#45;1</text>
</g>
<!-- 5299146128&#45;&gt;5299144688**&#45;1 -->
<g id="edge14" class="edge">
<title>5299146128&#45;&gt;5299144688**&#45;1</title>
<path fill="none" stroke="black" d="M1615.91,-99.5C1625.91,-99.5 1635.71,-99.5 1644.56,-99.5"/>
<polygon fill="black" stroke="black" points="1644.81,-103 1654.81,-99.5 1644.81,-96 1644.81,-103"/>
</g>
<!-- 5299146128+&#45;&gt;5299146128 -->
<g id="edge7" class="edge">
<title>5299146128+&#45;&gt;5299146128</title>
<path fill="none" stroke="black" d="M1414.01,-99.5C1422.56,-99.5 1432.6,-99.5 1443.17,-99.5"/>
<polygon fill="black" stroke="black" points="1443.43,-103 1453.43,-99.5 1443.43,-96 1443.43,-103"/>
</g>
<!-- 5296390048 -->
<g id="node21" class="node">
<title>5296390048</title>
<polygon fill="none" stroke="black" points="0,-28.5 0,-64.5 162,-64.5 162,-28.5 0,-28.5"/>
<text text-anchor="middle" x="40" y="-42.8" font-family="Times,serif" font-size="14.00">data 2.0000</text>
<polyline fill="none" stroke="black" points="80,-28.5 80,-64.5 "/>
<text text-anchor="middle" x="121" y="-42.8" font-family="Times,serif" font-size="14.00">grad 0.0000</text>
</g>
<!-- 5296390048&#45;&gt;4393674496* -->
<g id="edge12" class="edge">
<title>5296390048&#45;&gt;4393674496*</title>
<path fill="none" stroke="black" d="M162.13,-61.74C171.51,-63.52 180.67,-65.26 188.94,-66.83"/>
<polygon fill="black" stroke="black" points="188.43,-70.3 198.9,-68.73 189.73,-63.42 188.43,-70.3"/>
</g>
<!-- 5299146176 -->
<g id="node22" class="node">
<title>5299146176</title>
<polygon fill="none" stroke="black" points="2045,-108.5 2045,-144.5 2212,-144.5 2212,-108.5 2045,-108.5"/>
<text text-anchor="middle" x="2087.5" y="-122.8" font-family="Times,serif" font-size="14.00">data &#45;9.1192</text>
<polyline fill="none" stroke="black" points="2130,-108.5 2130,-144.5 "/>
<text text-anchor="middle" x="2171" y="-122.8" font-family="Times,serif" font-size="14.00">grad 0.0000</text>
</g>
<!-- 5299146176&#45;&gt;5299144208**2 -->
<g id="edge19" class="edge">
<title>5299146176&#45;&gt;5299144208**2</title>
<path fill="none" stroke="black" d="M2212.3,-126.5C2221.14,-126.5 2229.77,-126.5 2237.64,-126.5"/>
<polygon fill="black" stroke="black" points="2237.85,-130 2247.85,-126.5 2237.85,-123 2237.85,-130"/>
</g>
<!-- 5299146176+&#45;&gt;5299146176 -->
<g id="edge8" class="edge">
<title>5299146176+&#45;&gt;5299146176</title>
<path fill="none" stroke="black" d="M2009.17,-126.5C2016.75,-126.5 2025.5,-126.5 2034.74,-126.5"/>
<polygon fill="black" stroke="black" points="2034.92,-130 2044.92,-126.5 2034.92,-123 2034.92,-130"/>
</g>
<!-- 5299144688 -->
<g id="node24" class="node">
<title>5299144688</title>
<polygon fill="none" stroke="black" points="1751,-81.5 1751,-117.5 1913,-117.5 1913,-81.5 1751,-81.5"/>
<text text-anchor="middle" x="1791" y="-95.8" font-family="Times,serif" font-size="14.00">data 0.8808</text>
<polyline fill="none" stroke="black" points="1831,-81.5 1831,-117.5 "/>
<text text-anchor="middle" x="1872" y="-95.8" font-family="Times,serif" font-size="14.00">grad 0.0000</text>
</g>
<!-- 5299144688&#45;&gt;5299146176+ -->
<g id="edge16" class="edge">
<title>5299144688&#45;&gt;5299146176+</title>
<path fill="none" stroke="black" d="M1913.06,-114.11C1924.59,-116.21 1935.92,-118.28 1945.92,-120.1"/>
<polygon fill="black" stroke="black" points="1945.35,-123.55 1955.82,-121.91 1946.61,-116.67 1945.35,-123.55"/>
</g>
<!-- 5299144688**&#45;1&#45;&gt;5299144688 -->
<g id="edge9" class="edge">
<title>5299144688**&#45;1&#45;&gt;5299144688</title>
<path fill="none" stroke="black" d="M1709.12,-99.5C1718.3,-99.5 1729.2,-99.5 1740.65,-99.5"/>
<polygon fill="black" stroke="black" points="1740.82,-103 1750.82,-99.5 1740.82,-96 1740.82,-103"/>
</g>
</g>
</svg>
