<?xml version="1.0" encoding="UTF-8" standalone="no"?>
<!DOCTYPE svg PUBLIC "-//W3C//DTD SVG 1.1//EN"
 "http://www.w3.org/Graphics/SVG/1.1/DTD/svg11.dtd">
<!-- Generated by graphviz version 2.50.0 (0)
 -->
<!-- Pages: 1 -->
<svg width="2515pt" height="209pt"
 viewBox="0.00 0.00 2515.00 209.00" xmlns="http://www.w3.org/2000/svg" xmlns:xlink="http://www.w3.org/1999/xlink">
<g id="graph0" class="graph" transform="scale(1 1) rotate(0) translate(4 205)">
<polygon fill="white" stroke="transparent" points="-4,4 -4,-205 2511,-205 2511,4 -4,4"/>
<!-- 5004523024 -->
<g id="node1" class="node">
<title>5004523024</title>
<polygon fill="none" stroke="black" points="1450,-164.5 1450,-200.5 1619,-200.5 1619,-164.5 1450,-164.5"/>
<text text-anchor="middle" x="1493.5" y="-178.8" font-family="Times,serif" font-size="14.00">data 10.0000</text>
<polyline fill="none" stroke="black" points="1537,-164.5 1537,-200.5 "/>
<text text-anchor="middle" x="1578" y="-178.8" font-family="Times,serif" font-size="14.00">grad 0.0000</text>
</g>
<!-- 5004523936* -->
<g id="node21" class="node">
<title>5004523936*</title>
<ellipse fill="none" stroke="black" cx="1682" cy="-127.5" rx="27" ry="18"/>
<text text-anchor="middle" x="1682" y="-123.8" font-family="Times,serif" font-size="14.00">*</text>
</g>
<!-- 5004523024&#45;&gt;5004523936* -->
<g id="edge15" class="edge">
<title>5004523024&#45;&gt;5004523936*</title>
<path fill="none" stroke="black" d="M1594.19,-164.44C1602.57,-161.59 1611.04,-158.57 1619,-155.5 1629.44,-151.47 1640.64,-146.59 1650.61,-142.04"/>
<polygon fill="black" stroke="black" points="1652.13,-145.19 1659.73,-137.81 1649.18,-138.84 1652.13,-145.19"/>
</g>
<!-- 5004522016 -->
<g id="node2" class="node">
<title>5004522016</title>
<polygon fill="none" stroke="black" points="2338,-81.5 2338,-117.5 2507,-117.5 2507,-81.5 2338,-81.5"/>
<text text-anchor="middle" x="2381.5" y="-95.8" font-family="Times,serif" font-size="14.00">data 83.1599</text>
<polyline fill="none" stroke="black" points="2425,-81.5 2425,-117.5 "/>
<text text-anchor="middle" x="2466" y="-95.8" font-family="Times,serif" font-size="14.00">grad 0.0000</text>
</g>
<!-- 5004522016**2 -->
<g id="node3" class="node">
<title>5004522016**2</title>
<ellipse fill="none" stroke="black" cx="2275" cy="-99.5" rx="27" ry="18"/>
<text text-anchor="middle" x="2275" y="-95.8" font-family="Times,serif" font-size="14.00">**2</text>
</g>
<!-- 5004522016**2&#45;&gt;5004522016 -->
<g id="edge1" class="edge">
<title>5004522016**2&#45;&gt;5004522016</title>
<path fill="none" stroke="black" d="M2302.01,-99.5C2309.58,-99.5 2318.31,-99.5 2327.54,-99.5"/>
<polygon fill="black" stroke="black" points="2327.72,-103 2337.72,-99.5 2327.72,-96 2327.72,-103"/>
</g>
<!-- 5004522592 -->
<g id="node4" class="node">
<title>5004522592</title>
<polygon fill="none" stroke="black" points="1451,-109.5 1451,-145.5 1618,-145.5 1618,-109.5 1451,-109.5"/>
<text text-anchor="middle" x="1493.5" y="-123.8" font-family="Times,serif" font-size="14.00">data &#45;1.0000</text>
<polyline fill="none" stroke="black" points="1536,-109.5 1536,-145.5 "/>
<text text-anchor="middle" x="1577" y="-123.8" font-family="Times,serif" font-size="14.00">grad 0.0000</text>
</g>
<!-- 5004522592&#45;&gt;5004523936* -->
<g id="edge11" class="edge">
<title>5004522592&#45;&gt;5004523936*</title>
<path fill="none" stroke="black" d="M1618.03,-127.5C1627.41,-127.5 1636.57,-127.5 1644.87,-127.5"/>
<polygon fill="black" stroke="black" points="1644.87,-131 1654.87,-127.5 1644.87,-124 1644.87,-131"/>
</g>
<!-- 5004522112 -->
<g id="node5" class="node">
<title>5004522112</title>
<polygon fill="none" stroke="black" points="1162,-82.5 1162,-118.5 1324,-118.5 1324,-82.5 1162,-82.5"/>
<text text-anchor="middle" x="1202" y="-96.8" font-family="Times,serif" font-size="14.00">data 1.0000</text>
<polyline fill="none" stroke="black" points="1242,-82.5 1242,-118.5 "/>
<text text-anchor="middle" x="1283" y="-96.8" font-family="Times,serif" font-size="14.00">grad 0.0000</text>
</g>
<!-- 5004523696+ -->
<g id="node7" class="node">
<title>5004523696+</title>
<ellipse fill="none" stroke="black" cx="1387" cy="-72.5" rx="27" ry="18"/>
<text text-anchor="middle" x="1387" y="-68.8" font-family="Times,serif" font-size="14.00">+</text>
</g>
<!-- 5004522112&#45;&gt;5004523696+ -->
<g id="edge20" class="edge">
<title>5004522112&#45;&gt;5004523696+</title>
<path fill="none" stroke="black" d="M1324.13,-84.7C1333.51,-82.85 1342.67,-81.04 1350.94,-79.41"/>
<polygon fill="black" stroke="black" points="1351.77,-82.82 1360.9,-77.45 1350.42,-75.95 1351.77,-82.82"/>
</g>
<!-- 5004523696 -->
<g id="node6" class="node">
<title>5004523696</title>
<polygon fill="none" stroke="black" points="1453.5,-54.5 1453.5,-90.5 1615.5,-90.5 1615.5,-54.5 1453.5,-54.5"/>
<text text-anchor="middle" x="1493.5" y="-68.8" font-family="Times,serif" font-size="14.00">data 1.1353</text>
<polyline fill="none" stroke="black" points="1533.5,-54.5 1533.5,-90.5 "/>
<text text-anchor="middle" x="1574.5" y="-68.8" font-family="Times,serif" font-size="14.00">grad 0.0000</text>
</g>
<!-- 5004522304**&#45;1 -->
<g id="node14" class="node">
<title>5004522304**&#45;1</title>
<ellipse fill="none" stroke="black" cx="1682" cy="-72.5" rx="27" ry="18"/>
<text text-anchor="middle" x="1682" y="-68.8" font-family="Times,serif" font-size="14.00">**&#45;1</text>
</g>
<!-- 5004523696&#45;&gt;5004522304**&#45;1 -->
<g id="edge24" class="edge">
<title>5004523696&#45;&gt;5004522304**&#45;1</title>
<path fill="none" stroke="black" d="M1615.91,-72.5C1625.91,-72.5 1635.71,-72.5 1644.56,-72.5"/>
<polygon fill="black" stroke="black" points="1644.81,-76 1654.81,-72.5 1644.81,-69 1644.81,-76"/>
</g>
<!-- 5004523696+&#45;&gt;5004523696 -->
<g id="edge2" class="edge">
<title>5004523696+&#45;&gt;5004523696</title>
<path fill="none" stroke="black" d="M1414.01,-72.5C1422.56,-72.5 1432.6,-72.5 1443.17,-72.5"/>
<polygon fill="black" stroke="black" points="1443.43,-76 1453.43,-72.5 1443.43,-69 1443.43,-76"/>
</g>
<!-- 5004522688 -->
<g id="node8" class="node">
<title>5004522688</title>
<polygon fill="none" stroke="black" points="288,-83.5 288,-119.5 450,-119.5 450,-83.5 288,-83.5"/>
<text text-anchor="middle" x="328" y="-97.8" font-family="Times,serif" font-size="14.00">data 0.0000</text>
<polyline fill="none" stroke="black" points="368,-83.5 368,-119.5 "/>
<text text-anchor="middle" x="409" y="-97.8" font-family="Times,serif" font-size="14.00">grad 0.0000</text>
</g>
<!-- 5004524272+ -->
<g id="node10" class="node">
<title>5004524272+</title>
<ellipse fill="none" stroke="black" cx="513" cy="-73.5" rx="27" ry="18"/>
<text text-anchor="middle" x="513" y="-69.8" font-family="Times,serif" font-size="14.00">+</text>
</g>
<!-- 5004522688&#45;&gt;5004524272+ -->
<g id="edge12" class="edge">
<title>5004522688&#45;&gt;5004524272+</title>
<path fill="none" stroke="black" d="M450.13,-85.7C459.51,-83.85 468.67,-82.04 476.94,-80.41"/>
<polygon fill="black" stroke="black" points="477.77,-83.82 486.9,-78.45 476.42,-76.95 477.77,-83.82"/>
</g>
<!-- 5004524272 -->
<g id="node9" class="node">
<title>5004524272</title>
<polygon fill="none" stroke="black" points="578.5,-55.5 578.5,-91.5 740.5,-91.5 740.5,-55.5 578.5,-55.5"/>
<text text-anchor="middle" x="618.5" y="-69.8" font-family="Times,serif" font-size="14.00">data 2.0000</text>
<polyline fill="none" stroke="black" points="658.5,-55.5 658.5,-91.5 "/>
<text text-anchor="middle" x="699.5" y="-69.8" font-family="Times,serif" font-size="14.00">grad 0.0000</text>
</g>
<!-- 5004523984* -->
<g id="node24" class="node">
<title>5004523984*</title>
<ellipse fill="none" stroke="black" cx="806" cy="-45.5" rx="27" ry="18"/>
<text text-anchor="middle" x="806" y="-41.8" font-family="Times,serif" font-size="14.00">*</text>
</g>
<!-- 5004524272&#45;&gt;5004523984* -->
<g id="edge13" class="edge">
<title>5004524272&#45;&gt;5004523984*</title>
<path fill="none" stroke="black" d="M740.78,-57.94C750.96,-55.97 760.92,-54.04 769.85,-52.31"/>
<polygon fill="black" stroke="black" points="770.65,-55.72 779.8,-50.38 769.32,-48.85 770.65,-55.72"/>
</g>
<!-- 5004524272+&#45;&gt;5004524272 -->
<g id="edge3" class="edge">
<title>5004524272+&#45;&gt;5004524272</title>
<path fill="none" stroke="black" d="M540.17,-73.5C548.4,-73.5 558.01,-73.5 568.12,-73.5"/>
<polygon fill="black" stroke="black" points="568.37,-77 578.37,-73.5 568.37,-70 568.37,-77"/>
</g>
<!-- 5004523792 -->
<g id="node11" class="node">
<title>5004523792</title>
<polygon fill="none" stroke="black" points="1162,-27.5 1162,-63.5 1324,-63.5 1324,-27.5 1162,-27.5"/>
<text text-anchor="middle" x="1202" y="-41.8" font-family="Times,serif" font-size="14.00">data 0.1353</text>
<polyline fill="none" stroke="black" points="1242,-27.5 1242,-63.5 "/>
<text text-anchor="middle" x="1283" y="-41.8" font-family="Times,serif" font-size="14.00">grad 0.0000</text>
</g>
<!-- 5004523792&#45;&gt;5004523696+ -->
<g id="edge21" class="edge">
<title>5004523792&#45;&gt;5004523696+</title>
<path fill="none" stroke="black" d="M1324.13,-60.74C1333.51,-62.52 1342.67,-64.26 1350.94,-65.83"/>
<polygon fill="black" stroke="black" points="1350.43,-69.3 1360.9,-67.73 1351.73,-62.42 1350.43,-69.3"/>
</g>
<!-- 5004523792exp -->
<g id="node12" class="node">
<title>5004523792exp</title>
<ellipse fill="none" stroke="black" cx="1099" cy="-45.5" rx="27" ry="18"/>
<text text-anchor="middle" x="1099" y="-41.8" font-family="Times,serif" font-size="14.00">exp</text>
</g>
<!-- 5004523792exp&#45;&gt;5004523792 -->
<g id="edge4" class="edge">
<title>5004523792exp&#45;&gt;5004523792</title>
<path fill="none" stroke="black" d="M1126.04,-45.5C1133.63,-45.5 1142.38,-45.5 1151.6,-45.5"/>
<polygon fill="black" stroke="black" points="1151.76,-49 1161.76,-45.5 1151.76,-42 1151.76,-49"/>
</g>
<!-- 5004522304 -->
<g id="node13" class="node">
<title>5004522304</title>
<polygon fill="none" stroke="black" points="1751,-54.5 1751,-90.5 1913,-90.5 1913,-54.5 1751,-54.5"/>
<text text-anchor="middle" x="1791" y="-68.8" font-family="Times,serif" font-size="14.00">data 0.8808</text>
<polyline fill="none" stroke="black" points="1831,-54.5 1831,-90.5 "/>
<text text-anchor="middle" x="1872" y="-68.8" font-family="Times,serif" font-size="14.00">grad 0.0000</text>
</g>
<!-- 5004521824+ -->
<g id="node17" class="node">
<title>5004521824+</title>
<ellipse fill="none" stroke="black" cx="1982" cy="-99.5" rx="27" ry="18"/>
<text text-anchor="middle" x="1982" y="-95.8" font-family="Times,serif" font-size="14.00">+</text>
</g>
<!-- 5004522304&#45;&gt;5004521824+ -->
<g id="edge17" class="edge">
<title>5004522304&#45;&gt;5004521824+</title>
<path fill="none" stroke="black" d="M1913.06,-87.11C1924.59,-89.21 1935.92,-91.28 1945.92,-93.1"/>
<polygon fill="black" stroke="black" points="1945.35,-96.55 1955.82,-94.91 1946.61,-89.67 1945.35,-96.55"/>
</g>
<!-- 5004522304**&#45;1&#45;&gt;5004522304 -->
<g id="edge5" class="edge">
<title>5004522304**&#45;1&#45;&gt;5004522304</title>
<path fill="none" stroke="black" d="M1709.12,-72.5C1718.3,-72.5 1729.2,-72.5 1740.65,-72.5"/>
<polygon fill="black" stroke="black" points="1740.82,-76 1750.82,-72.5 1740.82,-69 1740.82,-76"/>
</g>
<!-- 5004522832 -->
<g id="node15" class="node">
<title>5004522832</title>
<polygon fill="none" stroke="black" points="0,-56.5 0,-92.5 162,-92.5 162,-56.5 0,-56.5"/>
<text text-anchor="middle" x="40" y="-70.8" font-family="Times,serif" font-size="14.00">data 1.0000</text>
<polyline fill="none" stroke="black" points="80,-56.5 80,-92.5 "/>
<text text-anchor="middle" x="121" y="-70.8" font-family="Times,serif" font-size="14.00">grad 0.0000</text>
</g>
<!-- 5004521872* -->
<g id="node19" class="node">
<title>5004521872*</title>
<ellipse fill="none" stroke="black" cx="225" cy="-46.5" rx="27" ry="18"/>
<text text-anchor="middle" x="225" y="-42.8" font-family="Times,serif" font-size="14.00">*</text>
</g>
<!-- 5004522832&#45;&gt;5004521872* -->
<g id="edge19" class="edge">
<title>5004522832&#45;&gt;5004521872*</title>
<path fill="none" stroke="black" d="M162.13,-58.7C171.51,-56.85 180.67,-55.04 188.94,-53.41"/>
<polygon fill="black" stroke="black" points="189.77,-56.82 198.9,-51.45 188.42,-49.95 189.77,-56.82"/>
</g>
<!-- 5004521824 -->
<g id="node16" class="node">
<title>5004521824</title>
<polygon fill="none" stroke="black" points="2045,-81.5 2045,-117.5 2212,-117.5 2212,-81.5 2045,-81.5"/>
<text text-anchor="middle" x="2087.5" y="-95.8" font-family="Times,serif" font-size="14.00">data &#45;9.1192</text>
<polyline fill="none" stroke="black" points="2130,-81.5 2130,-117.5 "/>
<text text-anchor="middle" x="2171" y="-95.8" font-family="Times,serif" font-size="14.00">grad 0.0000</text>
</g>
<!-- 5004521824&#45;&gt;5004522016**2 -->
<g id="edge16" class="edge">
<title>5004521824&#45;&gt;5004522016**2</title>
<path fill="none" stroke="black" d="M2212.3,-99.5C2221.14,-99.5 2229.77,-99.5 2237.64,-99.5"/>
<polygon fill="black" stroke="black" points="2237.85,-103 2247.85,-99.5 2237.85,-96 2237.85,-103"/>
</g>
<!-- 5004521824+&#45;&gt;5004521824 -->
<g id="edge6" class="edge">
<title>5004521824+&#45;&gt;5004521824</title>
<path fill="none" stroke="black" d="M2009.17,-99.5C2016.75,-99.5 2025.5,-99.5 2034.74,-99.5"/>
<polygon fill="black" stroke="black" points="2034.92,-103 2044.92,-99.5 2034.92,-96 2034.92,-103"/>
</g>
<!-- 5004521872 -->
<g id="node18" class="node">
<title>5004521872</title>
<polygon fill="none" stroke="black" points="288,-28.5 288,-64.5 450,-64.5 450,-28.5 288,-28.5"/>
<text text-anchor="middle" x="328" y="-42.8" font-family="Times,serif" font-size="14.00">data 2.0000</text>
<polyline fill="none" stroke="black" points="368,-28.5 368,-64.5 "/>
<text text-anchor="middle" x="409" y="-42.8" font-family="Times,serif" font-size="14.00">grad 0.0000</text>
</g>
<!-- 5004521872&#45;&gt;5004524272+ -->
<g id="edge18" class="edge">
<title>5004521872&#45;&gt;5004524272+</title>
<path fill="none" stroke="black" d="M450.13,-61.74C459.51,-63.52 468.67,-65.26 476.94,-66.83"/>
<polygon fill="black" stroke="black" points="476.43,-70.3 486.9,-68.73 477.73,-63.42 476.43,-70.3"/>
</g>
<!-- 5004521872*&#45;&gt;5004521872 -->
<g id="edge7" class="edge">
<title>5004521872*&#45;&gt;5004521872</title>
<path fill="none" stroke="black" d="M252.04,-46.5C259.63,-46.5 268.38,-46.5 277.6,-46.5"/>
<polygon fill="black" stroke="black" points="277.76,-50 287.76,-46.5 277.76,-43 277.76,-50"/>
</g>
<!-- 5004523936 -->
<g id="node20" class="node">
<title>5004523936</title>
<polygon fill="none" stroke="black" points="1745,-109.5 1745,-145.5 1919,-145.5 1919,-109.5 1745,-109.5"/>
<text text-anchor="middle" x="1791" y="-123.8" font-family="Times,serif" font-size="14.00">data &#45;10.0000</text>
<polyline fill="none" stroke="black" points="1837,-109.5 1837,-145.5 "/>
<text text-anchor="middle" x="1878" y="-123.8" font-family="Times,serif" font-size="14.00">grad 0.0000</text>
</g>
<!-- 5004523936&#45;&gt;5004521824+ -->
<g id="edge23" class="edge">
<title>5004523936&#45;&gt;5004521824+</title>
<path fill="none" stroke="black" d="M1919.09,-111.21C1928.48,-109.44 1937.6,-107.71 1945.83,-106.15"/>
<polygon fill="black" stroke="black" points="1946.56,-109.58 1955.73,-104.28 1945.25,-102.7 1946.56,-109.58"/>
</g>
<!-- 5004523936*&#45;&gt;5004523936 -->
<g id="edge8" class="edge">
<title>5004523936*&#45;&gt;5004523936</title>
<path fill="none" stroke="black" d="M1709.12,-127.5C1716.68,-127.5 1725.4,-127.5 1734.64,-127.5"/>
<polygon fill="black" stroke="black" points="1734.83,-131 1744.83,-127.5 1734.83,-124 1734.83,-131"/>
</g>
<!-- 5004524992 -->
<g id="node22" class="node">
<title>5004524992</title>
<polygon fill="none" stroke="black" points="0,-1.5 0,-37.5 162,-37.5 162,-1.5 0,-1.5"/>
<text text-anchor="middle" x="40" y="-15.8" font-family="Times,serif" font-size="14.00">data 2.0000</text>
<polyline fill="none" stroke="black" points="80,-1.5 80,-37.5 "/>
<text text-anchor="middle" x="121" y="-15.8" font-family="Times,serif" font-size="14.00">grad 0.0000</text>
</g>
<!-- 5004524992&#45;&gt;5004521872* -->
<g id="edge14" class="edge">
<title>5004524992&#45;&gt;5004521872*</title>
<path fill="none" stroke="black" d="M162.13,-34.74C171.51,-36.52 180.67,-38.26 188.94,-39.83"/>
<polygon fill="black" stroke="black" points="188.43,-43.3 198.9,-41.73 189.73,-36.42 188.43,-43.3"/>
</g>
<!-- 5004523984 -->
<g id="node23" class="node">
<title>5004523984</title>
<polygon fill="none" stroke="black" points="869,-27.5 869,-63.5 1036,-63.5 1036,-27.5 869,-27.5"/>
<text text-anchor="middle" x="911.5" y="-41.8" font-family="Times,serif" font-size="14.00">data &#45;2.0000</text>
<polyline fill="none" stroke="black" points="954,-27.5 954,-63.5 "/>
<text text-anchor="middle" x="995" y="-41.8" font-family="Times,serif" font-size="14.00">grad 0.0000</text>
</g>
<!-- 5004523984&#45;&gt;5004523792exp -->
<g id="edge22" class="edge">
<title>5004523984&#45;&gt;5004523792exp</title>
<path fill="none" stroke="black" d="M1036.3,-45.5C1045.14,-45.5 1053.77,-45.5 1061.64,-45.5"/>
<polygon fill="black" stroke="black" points="1061.85,-49 1071.85,-45.5 1061.85,-42 1061.85,-49"/>
</g>
<!-- 5004523984*&#45;&gt;5004523984 -->
<g id="edge9" class="edge">
<title>5004523984*&#45;&gt;5004523984</title>
<path fill="none" stroke="black" d="M833.17,-45.5C840.75,-45.5 849.5,-45.5 858.74,-45.5"/>
<polygon fill="black" stroke="black" points="858.92,-49 868.92,-45.5 858.92,-42 858.92,-49"/>
</g>
<!-- 5004524512 -->
<g id="node25" class="node">
<title>5004524512</title>
<polygon fill="none" stroke="black" points="576,-0.5 576,-36.5 743,-36.5 743,-0.5 576,-0.5"/>
<text text-anchor="middle" x="618.5" y="-14.8" font-family="Times,serif" font-size="14.00">data &#45;1.0000</text>
<polyline fill="none" stroke="black" points="661,-0.5 661,-36.5 "/>
<text text-anchor="middle" x="702" y="-14.8" font-family="Times,serif" font-size="14.00">grad 0.0000</text>
</g>
<!-- 5004524512&#45;&gt;5004523984* -->
<g id="edge10" class="edge">
<title>5004524512&#45;&gt;5004523984*</title>
<path fill="none" stroke="black" d="M743.3,-33.97C752.61,-35.71 761.68,-37.41 769.88,-38.94"/>
<polygon fill="black" stroke="black" points="769.27,-42.38 779.75,-40.78 770.56,-35.5 769.27,-42.38"/>
</g>
</g>
</svg>
