<?xml version="1.0" encoding="UTF-8" standalone="no"?>
<!DOCTYPE svg PUBLIC "-//W3C//DTD SVG 1.1//EN"
 "http://www.w3.org/Graphics/SVG/1.1/DTD/svg11.dtd">
<!-- Generated by graphviz version 2.50.0 (0)
 -->
<!-- Pages: 1 -->
<svg width="2515pt" height="263pt"
 viewBox="0.00 0.00 2515.00 263.00" xmlns="http://www.w3.org/2000/svg" xmlns:xlink="http://www.w3.org/1999/xlink">
<g id="graph0" class="graph" transform="scale(1 1) rotate(0) translate(4 259)">
<polygon fill="white" stroke="transparent" points="-4,4 -4,-259 2511,-259 2511,4 -4,4"/>
<!-- 5884016720 -->
<g id="node1" class="node">
<title>5884016720</title>
<polygon fill="none" stroke="black" points="1453.5,-108.5 1453.5,-144.5 1615.5,-144.5 1615.5,-108.5 1453.5,-108.5"/>
<text text-anchor="middle" x="1493.5" y="-122.8" font-family="Times,serif" font-size="14.00">data 1.1353</text>
<polyline fill="none" stroke="black" points="1533.5,-108.5 1533.5,-144.5 "/>
<text text-anchor="middle" x="1574.5" y="-122.8" font-family="Times,serif" font-size="14.00">grad 0.0000</text>
</g>
<!-- 5884016048**&#45;1 -->
<g id="node20" class="node">
<title>5884016048**&#45;1</title>
<ellipse fill="none" stroke="black" cx="1682" cy="-126.5" rx="27" ry="18"/>
<text text-anchor="middle" x="1682" y="-122.8" font-family="Times,serif" font-size="14.00">**&#45;1</text>
</g>
<!-- 5884016720&#45;&gt;5884016048**&#45;1 -->
<g id="edge16" class="edge">
<title>5884016720&#45;&gt;5884016048**&#45;1</title>
<path fill="none" stroke="black" d="M1615.91,-126.5C1625.91,-126.5 1635.71,-126.5 1644.56,-126.5"/>
<polygon fill="black" stroke="black" points="1644.81,-130 1654.81,-126.5 1644.81,-123 1644.81,-130"/>
</g>
<!-- 5884016720+ -->
<g id="node2" class="node">
<title>5884016720+</title>
<ellipse fill="none" stroke="black" cx="1387" cy="-126.5" rx="27" ry="18"/>
<text text-anchor="middle" x="1387" y="-122.8" font-family="Times,serif" font-size="14.00">+</text>
</g>
<!-- 5884016720+&#45;&gt;5884016720 -->
<g id="edge1" class="edge">
<title>5884016720+&#45;&gt;5884016720</title>
<path fill="none" stroke="black" d="M1414.01,-126.5C1422.56,-126.5 1432.6,-126.5 1443.17,-126.5"/>
<polygon fill="black" stroke="black" points="1443.43,-130 1453.43,-126.5 1443.43,-123 1443.43,-130"/>
</g>
<!-- 5884017248 -->
<g id="node3" class="node">
<title>5884017248</title>
<polygon fill="none" stroke="black" points="1162,-136.5 1162,-172.5 1324,-172.5 1324,-136.5 1162,-136.5"/>
<text text-anchor="middle" x="1202" y="-150.8" font-family="Times,serif" font-size="14.00">data 1.0000</text>
<polyline fill="none" stroke="black" points="1242,-136.5 1242,-172.5 "/>
<text text-anchor="middle" x="1283" y="-150.8" font-family="Times,serif" font-size="14.00">grad 0.0000</text>
</g>
<!-- 5884017248&#45;&gt;5884016720+ -->
<g id="edge13" class="edge">
<title>5884017248&#45;&gt;5884016720+</title>
<path fill="none" stroke="black" d="M1324.13,-138.7C1333.51,-136.85 1342.67,-135.04 1350.94,-133.41"/>
<polygon fill="black" stroke="black" points="1351.77,-136.82 1360.9,-131.45 1350.42,-129.95 1351.77,-136.82"/>
</g>
<!-- 5884014704 -->
<g id="node4" class="node">
<title>5884014704</title>
<polygon fill="none" stroke="black" points="869,-81.5 869,-117.5 1036,-117.5 1036,-81.5 869,-81.5"/>
<text text-anchor="middle" x="911.5" y="-95.8" font-family="Times,serif" font-size="14.00">data &#45;2.0000</text>
<polyline fill="none" stroke="black" points="954,-81.5 954,-117.5 "/>
<text text-anchor="middle" x="995" y="-95.8" font-family="Times,serif" font-size="14.00">grad 0.0000</text>
</g>
<!-- 5884017056exp -->
<g id="node18" class="node">
<title>5884017056exp</title>
<ellipse fill="none" stroke="black" cx="1099" cy="-99.5" rx="27" ry="18"/>
<text text-anchor="middle" x="1099" y="-95.8" font-family="Times,serif" font-size="14.00">exp</text>
</g>
<!-- 5884014704&#45;&gt;5884017056exp -->
<g id="edge19" class="edge">
<title>5884014704&#45;&gt;5884017056exp</title>
<path fill="none" stroke="black" d="M1036.3,-99.5C1045.14,-99.5 1053.77,-99.5 1061.64,-99.5"/>
<polygon fill="black" stroke="black" points="1061.85,-103 1071.85,-99.5 1061.85,-96 1061.85,-103"/>
</g>
<!-- 5884014704* -->
<g id="node5" class="node">
<title>5884014704*</title>
<ellipse fill="none" stroke="black" cx="806" cy="-99.5" rx="27" ry="18"/>
<text text-anchor="middle" x="806" y="-95.8" font-family="Times,serif" font-size="14.00">*</text>
</g>
<!-- 5884014704*&#45;&gt;5884014704 -->
<g id="edge2" class="edge">
<title>5884014704*&#45;&gt;5884014704</title>
<path fill="none" stroke="black" d="M833.17,-99.5C840.75,-99.5 849.5,-99.5 858.74,-99.5"/>
<polygon fill="black" stroke="black" points="858.92,-103 868.92,-99.5 858.92,-96 858.92,-103"/>
</g>
<!-- 5883789952 -->
<g id="node6" class="node">
<title>5883789952</title>
<polygon fill="none" stroke="black" points="0,-55.5 0,-91.5 162,-91.5 162,-55.5 0,-55.5"/>
<text text-anchor="middle" x="40" y="-69.8" font-family="Times,serif" font-size="14.00">data 1.0000</text>
<polyline fill="none" stroke="black" points="80,-55.5 80,-91.5 "/>
<text text-anchor="middle" x="121" y="-69.8" font-family="Times,serif" font-size="14.00">grad 0.0000</text>
</g>
<!-- 5884015088* -->
<g id="node25" class="node">
<title>5884015088*</title>
<ellipse fill="none" stroke="black" cx="225" cy="-45.5" rx="27" ry="18"/>
<text text-anchor="middle" x="225" y="-41.8" font-family="Times,serif" font-size="14.00">*</text>
</g>
<!-- 5883789952&#45;&gt;5884015088* -->
<g id="edge14" class="edge">
<title>5883789952&#45;&gt;5884015088*</title>
<path fill="none" stroke="black" d="M162.13,-57.7C171.51,-55.85 180.67,-54.04 188.94,-52.41"/>
<polygon fill="black" stroke="black" points="189.77,-55.82 198.9,-50.45 188.42,-48.95 189.77,-55.82"/>
</g>
<!-- 5884018352 -->
<g id="node7" class="node">
<title>5884018352</title>
<polygon fill="none" stroke="black" points="2045,-135.5 2045,-171.5 2212,-171.5 2212,-135.5 2045,-135.5"/>
<text text-anchor="middle" x="2087.5" y="-149.8" font-family="Times,serif" font-size="14.00">data &#45;9.1192</text>
<polyline fill="none" stroke="black" points="2130,-135.5 2130,-171.5 "/>
<text text-anchor="middle" x="2171" y="-149.8" font-family="Times,serif" font-size="14.00">grad 0.0000</text>
</g>
<!-- 5884016528**2 -->
<g id="node16" class="node">
<title>5884016528**2</title>
<ellipse fill="none" stroke="black" cx="2275" cy="-153.5" rx="27" ry="18"/>
<text text-anchor="middle" x="2275" y="-149.8" font-family="Times,serif" font-size="14.00">**2</text>
</g>
<!-- 5884018352&#45;&gt;5884016528**2 -->
<g id="edge22" class="edge">
<title>5884018352&#45;&gt;5884016528**2</title>
<path fill="none" stroke="black" d="M2212.3,-153.5C2221.14,-153.5 2229.77,-153.5 2237.64,-153.5"/>
<polygon fill="black" stroke="black" points="2237.85,-157 2247.85,-153.5 2237.85,-150 2237.85,-157"/>
</g>
<!-- 5884018352+ -->
<g id="node8" class="node">
<title>5884018352+</title>
<ellipse fill="none" stroke="black" cx="1982" cy="-153.5" rx="27" ry="18"/>
<text text-anchor="middle" x="1982" y="-149.8" font-family="Times,serif" font-size="14.00">+</text>
</g>
<!-- 5884018352+&#45;&gt;5884018352 -->
<g id="edge3" class="edge">
<title>5884018352+&#45;&gt;5884018352</title>
<path fill="none" stroke="black" d="M2009.17,-153.5C2016.75,-153.5 2025.5,-153.5 2034.74,-153.5"/>
<polygon fill="black" stroke="black" points="2034.92,-157 2044.92,-153.5 2034.92,-150 2034.92,-157"/>
</g>
<!-- 5883793120 -->
<g id="node9" class="node">
<title>5883793120</title>
<polygon fill="none" stroke="black" points="0,-0.5 0,-36.5 162,-36.5 162,-0.5 0,-0.5"/>
<text text-anchor="middle" x="40" y="-14.8" font-family="Times,serif" font-size="14.00">data 2.0000</text>
<polyline fill="none" stroke="black" points="80,-0.5 80,-36.5 "/>
<text text-anchor="middle" x="121" y="-14.8" font-family="Times,serif" font-size="14.00">grad 0.0000</text>
</g>
<!-- 5883793120&#45;&gt;5884015088* -->
<g id="edge15" class="edge">
<title>5883793120&#45;&gt;5884015088*</title>
<path fill="none" stroke="black" d="M162.13,-33.74C171.51,-35.52 180.67,-37.26 188.94,-38.83"/>
<polygon fill="black" stroke="black" points="188.43,-42.3 198.9,-40.73 189.73,-35.42 188.43,-42.3"/>
</g>
<!-- 5884016096 -->
<g id="node10" class="node">
<title>5884016096</title>
<polygon fill="none" stroke="black" points="1745,-163.5 1745,-199.5 1919,-199.5 1919,-163.5 1745,-163.5"/>
<text text-anchor="middle" x="1791" y="-177.8" font-family="Times,serif" font-size="14.00">data &#45;10.0000</text>
<polyline fill="none" stroke="black" points="1837,-163.5 1837,-199.5 "/>
<text text-anchor="middle" x="1878" y="-177.8" font-family="Times,serif" font-size="14.00">grad 0.0000</text>
</g>
<!-- 5884016096&#45;&gt;5884018352+ -->
<g id="edge17" class="edge">
<title>5884016096&#45;&gt;5884018352+</title>
<path fill="none" stroke="black" d="M1919.09,-165.21C1928.48,-163.44 1937.6,-161.71 1945.83,-160.15"/>
<polygon fill="black" stroke="black" points="1946.56,-163.58 1955.73,-158.28 1945.25,-156.7 1946.56,-163.58"/>
</g>
<!-- 5884016096* -->
<g id="node11" class="node">
<title>5884016096*</title>
<ellipse fill="none" stroke="black" cx="1682" cy="-181.5" rx="27" ry="18"/>
<text text-anchor="middle" x="1682" y="-177.8" font-family="Times,serif" font-size="14.00">*</text>
</g>
<!-- 5884016096*&#45;&gt;5884016096 -->
<g id="edge4" class="edge">
<title>5884016096*&#45;&gt;5884016096</title>
<path fill="none" stroke="black" d="M1709.12,-181.5C1716.68,-181.5 1725.4,-181.5 1734.64,-181.5"/>
<polygon fill="black" stroke="black" points="1734.83,-185 1744.83,-181.5 1734.83,-178 1734.83,-185"/>
</g>
<!-- 5884015424 -->
<g id="node12" class="node">
<title>5884015424</title>
<polygon fill="none" stroke="black" points="1451,-218.5 1451,-254.5 1618,-254.5 1618,-218.5 1451,-218.5"/>
<text text-anchor="middle" x="1493.5" y="-232.8" font-family="Times,serif" font-size="14.00">data &#45;1.0000</text>
<polyline fill="none" stroke="black" points="1536,-218.5 1536,-254.5 "/>
<text text-anchor="middle" x="1577" y="-232.8" font-family="Times,serif" font-size="14.00">grad 0.0000</text>
</g>
<!-- 5884015424&#45;&gt;5884016096* -->
<g id="edge24" class="edge">
<title>5884015424&#45;&gt;5884016096*</title>
<path fill="none" stroke="black" d="M1594.19,-218.44C1602.57,-215.59 1611.04,-212.57 1619,-209.5 1629.44,-205.47 1640.64,-200.59 1650.61,-196.04"/>
<polygon fill="black" stroke="black" points="1652.13,-199.19 1659.73,-191.81 1649.18,-192.84 1652.13,-199.19"/>
</g>
<!-- 5883792352 -->
<g id="node13" class="node">
<title>5883792352</title>
<polygon fill="none" stroke="black" points="288,-82.5 288,-118.5 450,-118.5 450,-82.5 288,-82.5"/>
<text text-anchor="middle" x="328" y="-96.8" font-family="Times,serif" font-size="14.00">data 0.0000</text>
<polyline fill="none" stroke="black" points="368,-82.5 368,-118.5 "/>
<text text-anchor="middle" x="409" y="-96.8" font-family="Times,serif" font-size="14.00">grad 0.0000</text>
</g>
<!-- 5884017632+ -->
<g id="node23" class="node">
<title>5884017632+</title>
<ellipse fill="none" stroke="black" cx="513" cy="-72.5" rx="27" ry="18"/>
<text text-anchor="middle" x="513" y="-68.8" font-family="Times,serif" font-size="14.00">+</text>
</g>
<!-- 5883792352&#45;&gt;5884017632+ -->
<g id="edge23" class="edge">
<title>5883792352&#45;&gt;5884017632+</title>
<path fill="none" stroke="black" d="M450.13,-84.7C459.51,-82.85 468.67,-81.04 476.94,-79.41"/>
<polygon fill="black" stroke="black" points="477.77,-82.82 486.9,-77.45 476.42,-75.95 477.77,-82.82"/>
</g>
<!-- 5883789808 -->
<g id="node14" class="node">
<title>5883789808</title>
<polygon fill="none" stroke="black" points="1450,-163.5 1450,-199.5 1619,-199.5 1619,-163.5 1450,-163.5"/>
<text text-anchor="middle" x="1493.5" y="-177.8" font-family="Times,serif" font-size="14.00">data 10.0000</text>
<polyline fill="none" stroke="black" points="1537,-163.5 1537,-199.5 "/>
<text text-anchor="middle" x="1578" y="-177.8" font-family="Times,serif" font-size="14.00">grad 0.0000</text>
</g>
<!-- 5883789808&#45;&gt;5884016096* -->
<g id="edge21" class="edge">
<title>5883789808&#45;&gt;5884016096*</title>
<path fill="none" stroke="black" d="M1619.29,-181.5C1628.15,-181.5 1636.79,-181.5 1644.66,-181.5"/>
<polygon fill="black" stroke="black" points="1644.87,-185 1654.87,-181.5 1644.87,-178 1644.87,-185"/>
</g>
<!-- 5884016528 -->
<g id="node15" class="node">
<title>5884016528</title>
<polygon fill="none" stroke="black" points="2338,-135.5 2338,-171.5 2507,-171.5 2507,-135.5 2338,-135.5"/>
<text text-anchor="middle" x="2381.5" y="-149.8" font-family="Times,serif" font-size="14.00">data 83.1599</text>
<polyline fill="none" stroke="black" points="2425,-135.5 2425,-171.5 "/>
<text text-anchor="middle" x="2466" y="-149.8" font-family="Times,serif" font-size="14.00">grad 0.0000</text>
</g>
<!-- 5884016528**2&#45;&gt;5884016528 -->
<g id="edge5" class="edge">
<title>5884016528**2&#45;&gt;5884016528</title>
<path fill="none" stroke="black" d="M2302.01,-153.5C2309.58,-153.5 2318.31,-153.5 2327.54,-153.5"/>
<polygon fill="black" stroke="black" points="2327.72,-157 2337.72,-153.5 2327.72,-150 2327.72,-157"/>
</g>
<!-- 5884017056 -->
<g id="node17" class="node">
<title>5884017056</title>
<polygon fill="none" stroke="black" points="1162,-81.5 1162,-117.5 1324,-117.5 1324,-81.5 1162,-81.5"/>
<text text-anchor="middle" x="1202" y="-95.8" font-family="Times,serif" font-size="14.00">data 0.1353</text>
<polyline fill="none" stroke="black" points="1242,-81.5 1242,-117.5 "/>
<text text-anchor="middle" x="1283" y="-95.8" font-family="Times,serif" font-size="14.00">grad 0.0000</text>
</g>
<!-- 5884017056&#45;&gt;5884016720+ -->
<g id="edge10" class="edge">
<title>5884017056&#45;&gt;5884016720+</title>
<path fill="none" stroke="black" d="M1324.13,-114.74C1333.51,-116.52 1342.67,-118.26 1350.94,-119.83"/>
<polygon fill="black" stroke="black" points="1350.43,-123.3 1360.9,-121.73 1351.73,-116.42 1350.43,-123.3"/>
</g>
<!-- 5884017056exp&#45;&gt;5884017056 -->
<g id="edge6" class="edge">
<title>5884017056exp&#45;&gt;5884017056</title>
<path fill="none" stroke="black" d="M1126.04,-99.5C1133.63,-99.5 1142.38,-99.5 1151.6,-99.5"/>
<polygon fill="black" stroke="black" points="1151.76,-103 1161.76,-99.5 1151.76,-96 1151.76,-103"/>
</g>
<!-- 5884016048 -->
<g id="node19" class="node">
<title>5884016048</title>
<polygon fill="none" stroke="black" points="1751,-108.5 1751,-144.5 1913,-144.5 1913,-108.5 1751,-108.5"/>
<text text-anchor="middle" x="1791" y="-122.8" font-family="Times,serif" font-size="14.00">data 0.8808</text>
<polyline fill="none" stroke="black" points="1831,-108.5 1831,-144.5 "/>
<text text-anchor="middle" x="1872" y="-122.8" font-family="Times,serif" font-size="14.00">grad 0.0000</text>
</g>
<!-- 5884016048&#45;&gt;5884018352+ -->
<g id="edge20" class="edge">
<title>5884016048&#45;&gt;5884018352+</title>
<path fill="none" stroke="black" d="M1913.06,-141.11C1924.59,-143.21 1935.92,-145.28 1945.92,-147.1"/>
<polygon fill="black" stroke="black" points="1945.35,-150.55 1955.82,-148.91 1946.61,-143.67 1945.35,-150.55"/>
</g>
<!-- 5884016048**&#45;1&#45;&gt;5884016048 -->
<g id="edge7" class="edge">
<title>5884016048**&#45;1&#45;&gt;5884016048</title>
<path fill="none" stroke="black" d="M1709.12,-126.5C1718.3,-126.5 1729.2,-126.5 1740.65,-126.5"/>
<polygon fill="black" stroke="black" points="1740.82,-130 1750.82,-126.5 1740.82,-123 1740.82,-130"/>
</g>
<!-- 5884015520 -->
<g id="node21" class="node">
<title>5884015520</title>
<polygon fill="none" stroke="black" points="576,-109.5 576,-145.5 743,-145.5 743,-109.5 576,-109.5"/>
<text text-anchor="middle" x="618.5" y="-123.8" font-family="Times,serif" font-size="14.00">data &#45;1.0000</text>
<polyline fill="none" stroke="black" points="661,-109.5 661,-145.5 "/>
<text text-anchor="middle" x="702" y="-123.8" font-family="Times,serif" font-size="14.00">grad 0.0000</text>
</g>
<!-- 5884015520&#45;&gt;5884014704* -->
<g id="edge18" class="edge">
<title>5884015520&#45;&gt;5884014704*</title>
<path fill="none" stroke="black" d="M743.3,-111.46C752.61,-109.65 761.68,-107.89 769.88,-106.31"/>
<polygon fill="black" stroke="black" points="770.59,-109.73 779.75,-104.39 769.26,-102.86 770.59,-109.73"/>
</g>
<!-- 5884017632 -->
<g id="node22" class="node">
<title>5884017632</title>
<polygon fill="none" stroke="black" points="578.5,-54.5 578.5,-90.5 740.5,-90.5 740.5,-54.5 578.5,-54.5"/>
<text text-anchor="middle" x="618.5" y="-68.8" font-family="Times,serif" font-size="14.00">data 2.0000</text>
<polyline fill="none" stroke="black" points="658.5,-54.5 658.5,-90.5 "/>
<text text-anchor="middle" x="699.5" y="-68.8" font-family="Times,serif" font-size="14.00">grad 0.0000</text>
</g>
<!-- 5884017632&#45;&gt;5884014704* -->
<g id="edge11" class="edge">
<title>5884017632&#45;&gt;5884014704*</title>
<path fill="none" stroke="black" d="M740.78,-87.5C750.96,-89.4 760.92,-91.26 769.85,-92.93"/>
<polygon fill="black" stroke="black" points="769.33,-96.4 779.8,-94.79 770.61,-89.51 769.33,-96.4"/>
</g>
<!-- 5884017632+&#45;&gt;5884017632 -->
<g id="edge8" class="edge">
<title>5884017632+&#45;&gt;5884017632</title>
<path fill="none" stroke="black" d="M540.17,-72.5C548.4,-72.5 558.01,-72.5 568.12,-72.5"/>
<polygon fill="black" stroke="black" points="568.37,-76 578.37,-72.5 568.37,-69 568.37,-76"/>
</g>
<!-- 5884015088 -->
<g id="node24" class="node">
<title>5884015088</title>
<polygon fill="none" stroke="black" points="288,-27.5 288,-63.5 450,-63.5 450,-27.5 288,-27.5"/>
<text text-anchor="middle" x="328" y="-41.8" font-family="Times,serif" font-size="14.00">data 2.0000</text>
<polyline fill="none" stroke="black" points="368,-27.5 368,-63.5 "/>
<text text-anchor="middle" x="409" y="-41.8" font-family="Times,serif" font-size="14.00">grad 0.0000</text>
</g>
<!-- 5884015088&#45;&gt;5884017632+ -->
<g id="edge12" class="edge">
<title>5884015088&#45;&gt;5884017632+</title>
<path fill="none" stroke="black" d="M450.13,-60.74C459.51,-62.52 468.67,-64.26 476.94,-65.83"/>
<polygon fill="black" stroke="black" points="476.43,-69.3 486.9,-67.73 477.73,-62.42 476.43,-69.3"/>
</g>
<!-- 5884015088*&#45;&gt;5884015088 -->
<g id="edge9" class="edge">
<title>5884015088*&#45;&gt;5884015088</title>
<path fill="none" stroke="black" d="M252.04,-45.5C259.63,-45.5 268.38,-45.5 277.6,-45.5"/>
<polygon fill="black" stroke="black" points="277.76,-49 287.76,-45.5 277.76,-42 277.76,-49"/>
</g>
</g>
</svg>
