<?xml version="1.0" encoding="UTF-8" standalone="no"?>
<!DOCTYPE svg PUBLIC "-//W3C//DTD SVG 1.1//EN"
 "http://www.w3.org/Graphics/SVG/1.1/DTD/svg11.dtd">
<!-- Generated by graphviz version 2.50.0 (0)
 -->
<!-- Pages: 1 -->
<svg width="2515pt" height="182pt"
 viewBox="0.00 0.00 2515.00 182.00" xmlns="http://www.w3.org/2000/svg" xmlns:xlink="http://www.w3.org/1999/xlink">
<g id="graph0" class="graph" transform="scale(1 1) rotate(0) translate(4 178)">
<polygon fill="white" stroke="transparent" points="-4,4 -4,-178 2511,-178 2511,4 -4,4"/>
<!-- 5233941520 -->
<g id="node1" class="node">
<title>5233941520</title>
<polygon fill="none" stroke="black" points="1451,-137.5 1451,-173.5 1618,-173.5 1618,-137.5 1451,-137.5"/>
<text text-anchor="middle" x="1493.5" y="-151.8" font-family="Times,serif" font-size="14.00">data &#45;1.0000</text>
<polyline fill="none" stroke="black" points="1536,-137.5 1536,-173.5 "/>
<text text-anchor="middle" x="1577" y="-151.8" font-family="Times,serif" font-size="14.00">grad 0.0000</text>
</g>
<!-- 5233941616* -->
<g id="node10" class="node">
<title>5233941616*</title>
<ellipse fill="none" stroke="black" cx="1682" cy="-100.5" rx="27" ry="18"/>
<text text-anchor="middle" x="1682" y="-96.8" font-family="Times,serif" font-size="14.00">*</text>
</g>
<!-- 5233941520&#45;&gt;5233941616* -->
<g id="edge13" class="edge">
<title>5233941520&#45;&gt;5233941616*</title>
<path fill="none" stroke="black" d="M1594.19,-137.44C1602.57,-134.59 1611.04,-131.57 1619,-128.5 1629.44,-124.47 1640.64,-119.59 1650.61,-115.04"/>
<polygon fill="black" stroke="black" points="1652.13,-118.19 1659.73,-110.81 1649.18,-111.84 1652.13,-118.19"/>
</g>
<!-- 5233938976 -->
<g id="node2" class="node">
<title>5233938976</title>
<polygon fill="none" stroke="black" points="869,-55.5 869,-91.5 1036,-91.5 1036,-55.5 869,-55.5"/>
<text text-anchor="middle" x="911.5" y="-69.8" font-family="Times,serif" font-size="14.00">data &#45;2.0000</text>
<polyline fill="none" stroke="black" points="954,-55.5 954,-91.5 "/>
<text text-anchor="middle" x="995" y="-69.8" font-family="Times,serif" font-size="14.00">grad 0.0000</text>
</g>
<!-- 5233941664exp -->
<g id="node13" class="node">
<title>5233941664exp</title>
<ellipse fill="none" stroke="black" cx="1099" cy="-73.5" rx="27" ry="18"/>
<text text-anchor="middle" x="1099" y="-69.8" font-family="Times,serif" font-size="14.00">exp</text>
</g>
<!-- 5233938976&#45;&gt;5233941664exp -->
<g id="edge14" class="edge">
<title>5233938976&#45;&gt;5233941664exp</title>
<path fill="none" stroke="black" d="M1036.3,-73.5C1045.14,-73.5 1053.77,-73.5 1061.64,-73.5"/>
<polygon fill="black" stroke="black" points="1061.85,-77 1071.85,-73.5 1061.85,-70 1061.85,-77"/>
</g>
<!-- 5233938976* -->
<g id="node3" class="node">
<title>5233938976*</title>
<ellipse fill="none" stroke="black" cx="806" cy="-73.5" rx="27" ry="18"/>
<text text-anchor="middle" x="806" y="-69.8" font-family="Times,serif" font-size="14.00">*</text>
</g>
<!-- 5233938976*&#45;&gt;5233938976 -->
<g id="edge1" class="edge">
<title>5233938976*&#45;&gt;5233938976</title>
<path fill="none" stroke="black" d="M833.17,-73.5C840.75,-73.5 849.5,-73.5 858.74,-73.5"/>
<polygon fill="black" stroke="black" points="858.92,-77 868.92,-73.5 858.92,-70 858.92,-77"/>
</g>
<!-- 5233939504 -->
<g id="node4" class="node">
<title>5233939504</title>
<polygon fill="none" stroke="black" points="1453.5,-27.5 1453.5,-63.5 1615.5,-63.5 1615.5,-27.5 1453.5,-27.5"/>
<text text-anchor="middle" x="1493.5" y="-41.8" font-family="Times,serif" font-size="14.00">data 1.1353</text>
<polyline fill="none" stroke="black" points="1533.5,-27.5 1533.5,-63.5 "/>
<text text-anchor="middle" x="1574.5" y="-41.8" font-family="Times,serif" font-size="14.00">grad 0.0000</text>
</g>
<!-- 5233942000**&#45;1 -->
<g id="node25" class="node">
<title>5233942000**&#45;1</title>
<ellipse fill="none" stroke="black" cx="1682" cy="-45.5" rx="27" ry="18"/>
<text text-anchor="middle" x="1682" y="-41.8" font-family="Times,serif" font-size="14.00">**&#45;1</text>
</g>
<!-- 5233939504&#45;&gt;5233942000**&#45;1 -->
<g id="edge21" class="edge">
<title>5233939504&#45;&gt;5233942000**&#45;1</title>
<path fill="none" stroke="black" d="M1615.91,-45.5C1625.91,-45.5 1635.71,-45.5 1644.56,-45.5"/>
<polygon fill="black" stroke="black" points="1644.81,-49 1654.81,-45.5 1644.81,-42 1644.81,-49"/>
</g>
<!-- 5233939504+ -->
<g id="node5" class="node">
<title>5233939504+</title>
<ellipse fill="none" stroke="black" cx="1387" cy="-45.5" rx="27" ry="18"/>
<text text-anchor="middle" x="1387" y="-41.8" font-family="Times,serif" font-size="14.00">+</text>
</g>
<!-- 5233939504+&#45;&gt;5233939504 -->
<g id="edge2" class="edge">
<title>5233939504+&#45;&gt;5233939504</title>
<path fill="none" stroke="black" d="M1414.01,-45.5C1422.56,-45.5 1432.6,-45.5 1443.17,-45.5"/>
<polygon fill="black" stroke="black" points="1443.43,-49 1453.43,-45.5 1443.43,-42 1443.43,-49"/>
</g>
<!-- 5233552928 -->
<g id="node6" class="node">
<title>5233552928</title>
<polygon fill="none" stroke="black" points="288,-56.5 288,-92.5 450,-92.5 450,-56.5 288,-56.5"/>
<text text-anchor="middle" x="328" y="-70.8" font-family="Times,serif" font-size="14.00">data 2.0000</text>
<polyline fill="none" stroke="black" points="368,-56.5 368,-92.5 "/>
<text text-anchor="middle" x="409" y="-70.8" font-family="Times,serif" font-size="14.00">grad 0.0000</text>
</g>
<!-- 5231702416+ -->
<g id="node20" class="node">
<title>5231702416+</title>
<ellipse fill="none" stroke="black" cx="513" cy="-46.5" rx="27" ry="18"/>
<text text-anchor="middle" x="513" y="-42.8" font-family="Times,serif" font-size="14.00">+</text>
</g>
<!-- 5233552928&#45;&gt;5231702416+ -->
<g id="edge19" class="edge">
<title>5233552928&#45;&gt;5231702416+</title>
<path fill="none" stroke="black" d="M450.13,-58.7C459.51,-56.85 468.67,-55.04 476.94,-53.41"/>
<polygon fill="black" stroke="black" points="477.77,-56.82 486.9,-51.45 476.42,-49.95 477.77,-56.82"/>
</g>
<!-- 5233552928* -->
<g id="node7" class="node">
<title>5233552928*</title>
<ellipse fill="none" stroke="black" cx="225" cy="-74.5" rx="27" ry="18"/>
<text text-anchor="middle" x="225" y="-70.8" font-family="Times,serif" font-size="14.00">*</text>
</g>
<!-- 5233552928*&#45;&gt;5233552928 -->
<g id="edge3" class="edge">
<title>5233552928*&#45;&gt;5233552928</title>
<path fill="none" stroke="black" d="M252.04,-74.5C259.63,-74.5 268.38,-74.5 277.6,-74.5"/>
<polygon fill="black" stroke="black" points="277.76,-78 287.76,-74.5 277.76,-71 277.76,-78"/>
</g>
<!-- 5233551392 -->
<g id="node8" class="node">
<title>5233551392</title>
<polygon fill="none" stroke="black" points="0,-84.5 0,-120.5 162,-120.5 162,-84.5 0,-84.5"/>
<text text-anchor="middle" x="40" y="-98.8" font-family="Times,serif" font-size="14.00">data 1.0000</text>
<polyline fill="none" stroke="black" points="80,-84.5 80,-120.5 "/>
<text text-anchor="middle" x="121" y="-98.8" font-family="Times,serif" font-size="14.00">grad 0.0000</text>
</g>
<!-- 5233551392&#45;&gt;5233552928* -->
<g id="edge10" class="edge">
<title>5233551392&#45;&gt;5233552928*</title>
<path fill="none" stroke="black" d="M162.13,-86.7C171.51,-84.85 180.67,-83.04 188.94,-81.41"/>
<polygon fill="black" stroke="black" points="189.77,-84.82 198.9,-79.45 188.42,-77.95 189.77,-84.82"/>
</g>
<!-- 5233941616 -->
<g id="node9" class="node">
<title>5233941616</title>
<polygon fill="none" stroke="black" points="1745,-82.5 1745,-118.5 1919,-118.5 1919,-82.5 1745,-82.5"/>
<text text-anchor="middle" x="1791" y="-96.8" font-family="Times,serif" font-size="14.00">data &#45;10.0000</text>
<polyline fill="none" stroke="black" points="1837,-82.5 1837,-118.5 "/>
<text text-anchor="middle" x="1878" y="-96.8" font-family="Times,serif" font-size="14.00">grad 0.0000</text>
</g>
<!-- 5233940176+ -->
<g id="node15" class="node">
<title>5233940176+</title>
<ellipse fill="none" stroke="black" cx="1982" cy="-72.5" rx="27" ry="18"/>
<text text-anchor="middle" x="1982" y="-68.8" font-family="Times,serif" font-size="14.00">+</text>
</g>
<!-- 5233941616&#45;&gt;5233940176+ -->
<g id="edge20" class="edge">
<title>5233941616&#45;&gt;5233940176+</title>
<path fill="none" stroke="black" d="M1919.09,-84.21C1928.48,-82.44 1937.6,-80.71 1945.83,-79.15"/>
<polygon fill="black" stroke="black" points="1946.56,-82.58 1955.73,-77.28 1945.25,-75.7 1946.56,-82.58"/>
</g>
<!-- 5233941616*&#45;&gt;5233941616 -->
<g id="edge4" class="edge">
<title>5233941616*&#45;&gt;5233941616</title>
<path fill="none" stroke="black" d="M1709.12,-100.5C1716.68,-100.5 1725.4,-100.5 1734.64,-100.5"/>
<polygon fill="black" stroke="black" points="1734.83,-104 1744.83,-100.5 1734.83,-97 1734.83,-104"/>
</g>
<!-- 5233551488 -->
<g id="node11" class="node">
<title>5233551488</title>
<polygon fill="none" stroke="black" points="1450,-82.5 1450,-118.5 1619,-118.5 1619,-82.5 1450,-82.5"/>
<text text-anchor="middle" x="1493.5" y="-96.8" font-family="Times,serif" font-size="14.00">data 10.0000</text>
<polyline fill="none" stroke="black" points="1537,-82.5 1537,-118.5 "/>
<text text-anchor="middle" x="1578" y="-96.8" font-family="Times,serif" font-size="14.00">grad 0.0000</text>
</g>
<!-- 5233551488&#45;&gt;5233941616* -->
<g id="edge16" class="edge">
<title>5233551488&#45;&gt;5233941616*</title>
<path fill="none" stroke="black" d="M1619.29,-100.5C1628.15,-100.5 1636.79,-100.5 1644.66,-100.5"/>
<polygon fill="black" stroke="black" points="1644.87,-104 1654.87,-100.5 1644.87,-97 1644.87,-104"/>
</g>
<!-- 5233941664 -->
<g id="node12" class="node">
<title>5233941664</title>
<polygon fill="none" stroke="black" points="1162,-55.5 1162,-91.5 1324,-91.5 1324,-55.5 1162,-55.5"/>
<text text-anchor="middle" x="1202" y="-69.8" font-family="Times,serif" font-size="14.00">data 0.1353</text>
<polyline fill="none" stroke="black" points="1242,-55.5 1242,-91.5 "/>
<text text-anchor="middle" x="1283" y="-69.8" font-family="Times,serif" font-size="14.00">grad 0.0000</text>
</g>
<!-- 5233941664&#45;&gt;5233939504+ -->
<g id="edge12" class="edge">
<title>5233941664&#45;&gt;5233939504+</title>
<path fill="none" stroke="black" d="M1324.13,-57.7C1333.51,-55.85 1342.67,-54.04 1350.94,-52.41"/>
<polygon fill="black" stroke="black" points="1351.77,-55.82 1360.9,-50.45 1350.42,-48.95 1351.77,-55.82"/>
</g>
<!-- 5233941664exp&#45;&gt;5233941664 -->
<g id="edge5" class="edge">
<title>5233941664exp&#45;&gt;5233941664</title>
<path fill="none" stroke="black" d="M1126.04,-73.5C1133.63,-73.5 1142.38,-73.5 1151.6,-73.5"/>
<polygon fill="black" stroke="black" points="1151.76,-77 1161.76,-73.5 1151.76,-70 1151.76,-77"/>
</g>
<!-- 5233940176 -->
<g id="node14" class="node">
<title>5233940176</title>
<polygon fill="none" stroke="black" points="2045,-54.5 2045,-90.5 2212,-90.5 2212,-54.5 2045,-54.5"/>
<text text-anchor="middle" x="2087.5" y="-68.8" font-family="Times,serif" font-size="14.00">data &#45;9.1192</text>
<polyline fill="none" stroke="black" points="2130,-54.5 2130,-90.5 "/>
<text text-anchor="middle" x="2171" y="-68.8" font-family="Times,serif" font-size="14.00">grad 0.0000</text>
</g>
<!-- 5233938832**2 -->
<g id="node22" class="node">
<title>5233938832**2</title>
<ellipse fill="none" stroke="black" cx="2275" cy="-72.5" rx="27" ry="18"/>
<text text-anchor="middle" x="2275" y="-68.8" font-family="Times,serif" font-size="14.00">**2</text>
</g>
<!-- 5233940176&#45;&gt;5233938832**2 -->
<g id="edge22" class="edge">
<title>5233940176&#45;&gt;5233938832**2</title>
<path fill="none" stroke="black" d="M2212.3,-72.5C2221.14,-72.5 2229.77,-72.5 2237.64,-72.5"/>
<polygon fill="black" stroke="black" points="2237.85,-76 2247.85,-72.5 2237.85,-69 2237.85,-76"/>
</g>
<!-- 5233940176+&#45;&gt;5233940176 -->
<g id="edge6" class="edge">
<title>5233940176+&#45;&gt;5233940176</title>
<path fill="none" stroke="black" d="M2009.17,-72.5C2016.75,-72.5 2025.5,-72.5 2034.74,-72.5"/>
<polygon fill="black" stroke="black" points="2034.92,-76 2044.92,-72.5 2034.92,-69 2034.92,-76"/>
</g>
<!-- 5233928176 -->
<g id="node16" class="node">
<title>5233928176</title>
<polygon fill="none" stroke="black" points="288,-1.5 288,-37.5 450,-37.5 450,-1.5 288,-1.5"/>
<text text-anchor="middle" x="328" y="-15.8" font-family="Times,serif" font-size="14.00">data 0.0000</text>
<polyline fill="none" stroke="black" points="368,-1.5 368,-37.5 "/>
<text text-anchor="middle" x="409" y="-15.8" font-family="Times,serif" font-size="14.00">grad 0.0000</text>
</g>
<!-- 5233928176&#45;&gt;5231702416+ -->
<g id="edge23" class="edge">
<title>5233928176&#45;&gt;5231702416+</title>
<path fill="none" stroke="black" d="M450.13,-34.74C459.51,-36.52 468.67,-38.26 476.94,-39.83"/>
<polygon fill="black" stroke="black" points="476.43,-43.3 486.9,-41.73 477.73,-36.42 476.43,-43.3"/>
</g>
<!-- 5233941280 -->
<g id="node17" class="node">
<title>5233941280</title>
<polygon fill="none" stroke="black" points="576,-83.5 576,-119.5 743,-119.5 743,-83.5 576,-83.5"/>
<text text-anchor="middle" x="618.5" y="-97.8" font-family="Times,serif" font-size="14.00">data &#45;1.0000</text>
<polyline fill="none" stroke="black" points="661,-83.5 661,-119.5 "/>
<text text-anchor="middle" x="702" y="-97.8" font-family="Times,serif" font-size="14.00">grad 0.0000</text>
</g>
<!-- 5233941280&#45;&gt;5233938976* -->
<g id="edge15" class="edge">
<title>5233941280&#45;&gt;5233938976*</title>
<path fill="none" stroke="black" d="M743.3,-85.46C752.61,-83.65 761.68,-81.89 769.88,-80.31"/>
<polygon fill="black" stroke="black" points="770.59,-83.73 779.75,-78.39 769.26,-76.86 770.59,-83.73"/>
</g>
<!-- 5233939792 -->
<g id="node18" class="node">
<title>5233939792</title>
<polygon fill="none" stroke="black" points="1162,-0.5 1162,-36.5 1324,-36.5 1324,-0.5 1162,-0.5"/>
<text text-anchor="middle" x="1202" y="-14.8" font-family="Times,serif" font-size="14.00">data 1.0000</text>
<polyline fill="none" stroke="black" points="1242,-0.5 1242,-36.5 "/>
<text text-anchor="middle" x="1283" y="-14.8" font-family="Times,serif" font-size="14.00">grad 0.0000</text>
</g>
<!-- 5233939792&#45;&gt;5233939504+ -->
<g id="edge17" class="edge">
<title>5233939792&#45;&gt;5233939504+</title>
<path fill="none" stroke="black" d="M1324.13,-33.74C1333.51,-35.52 1342.67,-37.26 1350.94,-38.83"/>
<polygon fill="black" stroke="black" points="1350.43,-42.3 1360.9,-40.73 1351.73,-35.42 1350.43,-42.3"/>
</g>
<!-- 5231702416 -->
<g id="node19" class="node">
<title>5231702416</title>
<polygon fill="none" stroke="black" points="578.5,-28.5 578.5,-64.5 740.5,-64.5 740.5,-28.5 578.5,-28.5"/>
<text text-anchor="middle" x="618.5" y="-42.8" font-family="Times,serif" font-size="14.00">data 2.0000</text>
<polyline fill="none" stroke="black" points="658.5,-28.5 658.5,-64.5 "/>
<text text-anchor="middle" x="699.5" y="-42.8" font-family="Times,serif" font-size="14.00">grad 0.0000</text>
</g>
<!-- 5231702416&#45;&gt;5233938976* -->
<g id="edge11" class="edge">
<title>5231702416&#45;&gt;5233938976*</title>
<path fill="none" stroke="black" d="M740.78,-61.5C750.96,-63.4 760.92,-65.26 769.85,-66.93"/>
<polygon fill="black" stroke="black" points="769.33,-70.4 779.8,-68.79 770.61,-63.51 769.33,-70.4"/>
</g>
<!-- 5231702416+&#45;&gt;5231702416 -->
<g id="edge7" class="edge">
<title>5231702416+&#45;&gt;5231702416</title>
<path fill="none" stroke="black" d="M540.17,-46.5C548.4,-46.5 558.01,-46.5 568.12,-46.5"/>
<polygon fill="black" stroke="black" points="568.37,-50 578.37,-46.5 568.37,-43 568.37,-50"/>
</g>
<!-- 5233938832 -->
<g id="node21" class="node">
<title>5233938832</title>
<polygon fill="none" stroke="black" points="2338,-54.5 2338,-90.5 2507,-90.5 2507,-54.5 2338,-54.5"/>
<text text-anchor="middle" x="2381.5" y="-68.8" font-family="Times,serif" font-size="14.00">data 83.1599</text>
<polyline fill="none" stroke="black" points="2425,-54.5 2425,-90.5 "/>
<text text-anchor="middle" x="2466" y="-68.8" font-family="Times,serif" font-size="14.00">grad 0.0000</text>
</g>
<!-- 5233938832**2&#45;&gt;5233938832 -->
<g id="edge8" class="edge">
<title>5233938832**2&#45;&gt;5233938832</title>
<path fill="none" stroke="black" d="M2302.01,-72.5C2309.58,-72.5 2318.31,-72.5 2327.54,-72.5"/>
<polygon fill="black" stroke="black" points="2327.72,-76 2337.72,-72.5 2327.72,-69 2327.72,-76"/>
</g>
<!-- 5233551824 -->
<g id="node23" class="node">
<title>5233551824</title>
<polygon fill="none" stroke="black" points="0,-29.5 0,-65.5 162,-65.5 162,-29.5 0,-29.5"/>
<text text-anchor="middle" x="40" y="-43.8" font-family="Times,serif" font-size="14.00">data 2.0000</text>
<polyline fill="none" stroke="black" points="80,-29.5 80,-65.5 "/>
<text text-anchor="middle" x="121" y="-43.8" font-family="Times,serif" font-size="14.00">grad 0.0000</text>
</g>
<!-- 5233551824&#45;&gt;5233552928* -->
<g id="edge24" class="edge">
<title>5233551824&#45;&gt;5233552928*</title>
<path fill="none" stroke="black" d="M162.13,-62.74C171.51,-64.52 180.67,-66.26 188.94,-67.83"/>
<polygon fill="black" stroke="black" points="188.43,-71.3 198.9,-69.73 189.73,-64.42 188.43,-71.3"/>
</g>
<!-- 5233942000 -->
<g id="node24" class="node">
<title>5233942000</title>
<polygon fill="none" stroke="black" points="1751,-27.5 1751,-63.5 1913,-63.5 1913,-27.5 1751,-27.5"/>
<text text-anchor="middle" x="1791" y="-41.8" font-family="Times,serif" font-size="14.00">data 0.8808</text>
<polyline fill="none" stroke="black" points="1831,-27.5 1831,-63.5 "/>
<text text-anchor="middle" x="1872" y="-41.8" font-family="Times,serif" font-size="14.00">grad 0.0000</text>
</g>
<!-- 5233942000&#45;&gt;5233940176+ -->
<g id="edge18" class="edge">
<title>5233942000&#45;&gt;5233940176+</title>
<path fill="none" stroke="black" d="M1913.06,-60.11C1924.59,-62.21 1935.92,-64.28 1945.92,-66.1"/>
<polygon fill="black" stroke="black" points="1945.35,-69.55 1955.82,-67.91 1946.61,-62.67 1945.35,-69.55"/>
</g>
<!-- 5233942000**&#45;1&#45;&gt;5233942000 -->
<g id="edge9" class="edge">
<title>5233942000**&#45;1&#45;&gt;5233942000</title>
<path fill="none" stroke="black" d="M1709.12,-45.5C1718.3,-45.5 1729.2,-45.5 1740.65,-45.5"/>
<polygon fill="black" stroke="black" points="1740.82,-49 1750.82,-45.5 1740.82,-42 1740.82,-49"/>
</g>
</g>
</svg>
