<?xml version="1.0" encoding="UTF-8" standalone="no"?>
<!DOCTYPE svg PUBLIC "-//W3C//DTD SVG 1.1//EN"
 "http://www.w3.org/Graphics/SVG/1.1/DTD/svg11.dtd">
<!-- Generated by graphviz version 12.2.1 (20241206.2353)
 -->
<!-- Pages: 1 -->
<svg width="2505pt" height="263pt"
 viewBox="0.00 0.00 2504.87 263.00" xmlns="http://www.w3.org/2000/svg" xmlns:xlink="http://www.w3.org/1999/xlink">
<g id="graph0" class="graph" transform="scale(1 1) rotate(0) translate(4 259)">
<polygon fill="white" stroke="none" points="-4,4 -4,-259 2500.87,-259 2500.87,4 -4,4"/>
<!-- 6263092224 -->
<g id="node1" class="node">
<title>6263092224</title>
<polygon fill="none" stroke="black" points="865.5,-81.5 865.5,-117.5 1031,-117.5 1031,-81.5 865.5,-81.5"/>
<text text-anchor="middle" x="907.62" y="-94.7" font-family="Times,serif" font-size="14.00">data &#45;2.0000</text>
<polyline fill="none" stroke="black" points="949.75,-82 949.75,-117.5"/>
<text text-anchor="middle" x="990.38" y="-94.7" font-family="Times,serif" font-size="14.00">grad 0.0000</text>
</g>
<!-- 6263092320exp -->
<g id="node8" class="node">
<title>6263092320exp</title>
<ellipse fill="none" stroke="black" cx="1094" cy="-99.5" rx="27" ry="18"/>
<text text-anchor="middle" x="1094" y="-94.45" font-family="Times,serif" font-size="14.00">exp</text>
</g>
<!-- 6263092224&#45;&gt;6263092320exp -->
<g id="edge14" class="edge">
<title>6263092224&#45;&gt;6263092320exp</title>
<path fill="none" stroke="black" d="M1031.2,-99.5C1039.64,-99.5 1047.9,-99.5 1055.48,-99.5"/>
<polygon fill="black" stroke="black" points="1055.27,-103 1065.27,-99.5 1055.27,-96 1055.27,-103"/>
</g>
<!-- 6263092224* -->
<g id="node2" class="node">
<title>6263092224*</title>
<ellipse fill="none" stroke="black" cx="802.5" cy="-99.5" rx="27" ry="18"/>
<text text-anchor="middle" x="802.5" y="-94.45" font-family="Times,serif" font-size="14.00">*</text>
</g>
<!-- 6263092224*&#45;&gt;6263092224 -->
<g id="edge1" class="edge">
<title>6263092224*&#45;&gt;6263092224</title>
<path fill="none" stroke="black" d="M829.87,-99.5C836.97,-99.5 845.07,-99.5 853.64,-99.5"/>
<polygon fill="black" stroke="black" points="853.59,-103 863.59,-99.5 853.59,-96 853.59,-103"/>
</g>
<!-- 6263093280 -->
<g id="node3" class="node">
<title>6263093280</title>
<polygon fill="none" stroke="black" points="0,-55.5 0,-91.5 161,-91.5 161,-55.5 0,-55.5"/>
<text text-anchor="middle" x="39.88" y="-68.7" font-family="Times,serif" font-size="14.00">data 2.0000</text>
<polyline fill="none" stroke="black" points="79.75,-56 79.75,-91.5"/>
<text text-anchor="middle" x="120.38" y="-68.7" font-family="Times,serif" font-size="14.00">grad 0.0000</text>
</g>
<!-- 6263092464* -->
<g id="node15" class="node">
<title>6263092464*</title>
<ellipse fill="none" stroke="black" cx="224" cy="-45.5" rx="27" ry="18"/>
<text text-anchor="middle" x="224" y="-40.45" font-family="Times,serif" font-size="14.00">*</text>
</g>
<!-- 6263093280&#45;&gt;6263092464* -->
<g id="edge18" class="edge">
<title>6263093280&#45;&gt;6263092464*</title>
<path fill="none" stroke="black" d="M161.35,-57.7C170.09,-55.97 178.64,-54.28 186.46,-52.73"/>
<polygon fill="black" stroke="black" points="187.08,-56.18 196.21,-50.8 185.72,-49.31 187.08,-56.18"/>
</g>
<!-- 6263092800 -->
<g id="node4" class="node">
<title>6263092800</title>
<polygon fill="none" stroke="black" points="574,-109.5 574,-145.5 739.5,-145.5 739.5,-109.5 574,-109.5"/>
<text text-anchor="middle" x="616.12" y="-122.7" font-family="Times,serif" font-size="14.00">data &#45;1.0000</text>
<polyline fill="none" stroke="black" points="658.25,-110 658.25,-145.5"/>
<text text-anchor="middle" x="698.88" y="-122.7" font-family="Times,serif" font-size="14.00">grad 0.0000</text>
</g>
<!-- 6263092800&#45;&gt;6263092224* -->
<g id="edge15" class="edge">
<title>6263092800&#45;&gt;6263092224*</title>
<path fill="none" stroke="black" d="M739.7,-111.54C748.5,-109.82 757.08,-108.15 764.92,-106.62"/>
<polygon fill="black" stroke="black" points="765.55,-110.07 774.7,-104.72 764.21,-103.2 765.55,-110.07"/>
</g>
<!-- 6262649952 -->
<g id="node5" class="node">
<title>6262649952</title>
<polygon fill="none" stroke="black" points="1744.99,-108.5 1744.99,-144.5 1905.99,-144.5 1905.99,-108.5 1744.99,-108.5"/>
<text text-anchor="middle" x="1784.87" y="-121.7" font-family="Times,serif" font-size="14.00">data 0.8808</text>
<polyline fill="none" stroke="black" points="1824.74,-109 1824.74,-144.5"/>
<text text-anchor="middle" x="1865.37" y="-121.7" font-family="Times,serif" font-size="14.00">grad 0.0000</text>
</g>
<!-- 4419903792+ -->
<g id="node17" class="node">
<title>4419903792+</title>
<ellipse fill="none" stroke="black" cx="1974.62" cy="-153.5" rx="27" ry="18"/>
<text text-anchor="middle" x="1974.62" y="-148.45" font-family="Times,serif" font-size="14.00">+</text>
</g>
<!-- 6262649952&#45;&gt;4419903792+ -->
<g id="edge23" class="edge">
<title>6262649952&#45;&gt;4419903792+</title>
<path fill="none" stroke="black" d="M1906.08,-141.11C1916.96,-143.1 1927.66,-145.07 1937.23,-146.82"/>
<polygon fill="black" stroke="black" points="1936.31,-150.21 1946.78,-148.57 1937.57,-143.33 1936.31,-150.21"/>
</g>
<!-- 6262649952**&#45;1 -->
<g id="node6" class="node">
<title>6262649952**&#45;1</title>
<ellipse fill="none" stroke="black" cx="1675.56" cy="-126.5" rx="27.81" ry="18"/>
<text text-anchor="middle" x="1675.56" y="-121.45" font-family="Times,serif" font-size="14.00">**&#45;1</text>
</g>
<!-- 6262649952**&#45;1&#45;&gt;6262649952 -->
<g id="edge2" class="edge">
<title>6262649952**&#45;1&#45;&gt;6262649952</title>
<path fill="none" stroke="black" d="M1703.69,-126.5C1712.42,-126.5 1722.63,-126.5 1733.34,-126.5"/>
<polygon fill="black" stroke="black" points="1733.14,-130 1743.14,-126.5 1733.14,-123 1733.14,-130"/>
</g>
<!-- 6263092320 -->
<g id="node7" class="node">
<title>6263092320</title>
<polygon fill="none" stroke="black" points="1157,-81.5 1157,-117.5 1318,-117.5 1318,-81.5 1157,-81.5"/>
<text text-anchor="middle" x="1196.88" y="-94.7" font-family="Times,serif" font-size="14.00">data 0.1353</text>
<polyline fill="none" stroke="black" points="1236.75,-82 1236.75,-117.5"/>
<text text-anchor="middle" x="1277.38" y="-94.7" font-family="Times,serif" font-size="14.00">grad 0.0000</text>
</g>
<!-- 6262649328+ -->
<g id="node25" class="node">
<title>6262649328+</title>
<ellipse fill="none" stroke="black" cx="1381" cy="-126.5" rx="27" ry="18"/>
<text text-anchor="middle" x="1381" y="-121.45" font-family="Times,serif" font-size="14.00">+</text>
</g>
<!-- 6263092320&#45;&gt;6262649328+ -->
<g id="edge13" class="edge">
<title>6263092320&#45;&gt;6262649328+</title>
<path fill="none" stroke="black" d="M1318.35,-114.74C1327.09,-116.4 1335.64,-118.04 1343.46,-119.53"/>
<polygon fill="black" stroke="black" points="1342.73,-122.95 1353.21,-121.39 1344.04,-116.08 1342.73,-122.95"/>
</g>
<!-- 6263092320exp&#45;&gt;6263092320 -->
<g id="edge3" class="edge">
<title>6263092320exp&#45;&gt;6263092320</title>
<path fill="none" stroke="black" d="M1121.28,-99.5C1128.4,-99.5 1136.52,-99.5 1145.08,-99.5"/>
<polygon fill="black" stroke="black" points="1145.04,-103 1155.04,-99.5 1145.04,-96 1145.04,-103"/>
</g>
<!-- 6262651008 -->
<g id="node9" class="node">
<title>6262651008</title>
<polygon fill="none" stroke="black" points="1157,-136.5 1157,-172.5 1318,-172.5 1318,-136.5 1157,-136.5"/>
<text text-anchor="middle" x="1196.88" y="-149.7" font-family="Times,serif" font-size="14.00">data 1.0000</text>
<polyline fill="none" stroke="black" points="1236.75,-137 1236.75,-172.5"/>
<text text-anchor="middle" x="1277.38" y="-149.7" font-family="Times,serif" font-size="14.00">grad 0.0000</text>
</g>
<!-- 6262651008&#45;&gt;6262649328+ -->
<g id="edge21" class="edge">
<title>6262651008&#45;&gt;6262649328+</title>
<path fill="none" stroke="black" d="M1318.35,-138.7C1327.09,-136.97 1335.64,-135.28 1343.46,-133.73"/>
<polygon fill="black" stroke="black" points="1344.08,-137.18 1353.21,-131.8 1342.72,-130.31 1344.08,-137.18"/>
</g>
<!-- 6262650000 -->
<g id="node10" class="node">
<title>6262650000</title>
<polygon fill="none" stroke="black" points="1445.12,-218.5 1445.12,-254.5 1610.62,-254.5 1610.62,-218.5 1445.12,-218.5"/>
<text text-anchor="middle" x="1487.25" y="-231.7" font-family="Times,serif" font-size="14.00">data &#45;1.0000</text>
<polyline fill="none" stroke="black" points="1529.38,-219 1529.38,-254.5"/>
<text text-anchor="middle" x="1570" y="-231.7" font-family="Times,serif" font-size="14.00">grad 0.0000</text>
</g>
<!-- 4419903984* -->
<g id="node13" class="node">
<title>4419903984*</title>
<ellipse fill="none" stroke="black" cx="1675.56" cy="-181.5" rx="27" ry="18"/>
<text text-anchor="middle" x="1675.56" y="-176.45" font-family="Times,serif" font-size="14.00">*</text>
</g>
<!-- 6262650000&#45;&gt;4419903984* -->
<g id="edge11" class="edge">
<title>6262650000&#45;&gt;4419903984*</title>
<path fill="none" stroke="black" d="M1588,-218.08C1596.03,-215.33 1604.12,-212.43 1611.75,-209.5 1621.98,-205.57 1632.95,-200.85 1642.81,-196.43"/>
<polygon fill="black" stroke="black" points="1643.97,-199.74 1651.62,-192.41 1641.06,-193.38 1643.97,-199.74"/>
</g>
<!-- 6263093424 -->
<g id="node11" class="node">
<title>6263093424</title>
<polygon fill="none" stroke="black" points="287,-82.5 287,-118.5 448,-118.5 448,-82.5 287,-82.5"/>
<text text-anchor="middle" x="326.88" y="-95.7" font-family="Times,serif" font-size="14.00">data 0.0000</text>
<polyline fill="none" stroke="black" points="366.75,-83 366.75,-118.5"/>
<text text-anchor="middle" x="407.38" y="-95.7" font-family="Times,serif" font-size="14.00">grad 0.0000</text>
</g>
<!-- 6263093616+ -->
<g id="node22" class="node">
<title>6263093616+</title>
<ellipse fill="none" stroke="black" cx="511" cy="-72.5" rx="27" ry="18"/>
<text text-anchor="middle" x="511" y="-67.45" font-family="Times,serif" font-size="14.00">+</text>
</g>
<!-- 6263093424&#45;&gt;6263093616+ -->
<g id="edge16" class="edge">
<title>6263093424&#45;&gt;6263093616+</title>
<path fill="none" stroke="black" d="M448.35,-84.7C457.09,-82.97 465.64,-81.28 473.46,-79.73"/>
<polygon fill="black" stroke="black" points="474.08,-83.18 483.21,-77.8 472.72,-76.31 474.08,-83.18"/>
</g>
<!-- 4419903984 -->
<g id="node12" class="node">
<title>4419903984</title>
<polygon fill="none" stroke="black" points="1739.37,-163.5 1739.37,-199.5 1911.62,-199.5 1911.62,-163.5 1739.37,-163.5"/>
<text text-anchor="middle" x="1784.87" y="-176.7" font-family="Times,serif" font-size="14.00">data &#45;10.0000</text>
<polyline fill="none" stroke="black" points="1830.37,-164 1830.37,-199.5"/>
<text text-anchor="middle" x="1870.99" y="-176.7" font-family="Times,serif" font-size="14.00">grad 0.0000</text>
</g>
<!-- 4419903984&#45;&gt;4419903792+ -->
<g id="edge22" class="edge">
<title>4419903984&#45;&gt;4419903792+</title>
<path fill="none" stroke="black" d="M1912.07,-165.21C1920.81,-163.55 1929.31,-161.93 1937.06,-160.46"/>
<polygon fill="black" stroke="black" points="1937.54,-163.93 1946.71,-158.62 1936.23,-157.05 1937.54,-163.93"/>
</g>
<!-- 4419903984*&#45;&gt;4419903984 -->
<g id="edge4" class="edge">
<title>4419903984*&#45;&gt;4419903984</title>
<path fill="none" stroke="black" d="M1703.01,-181.5C1710.31,-181.5 1718.69,-181.5 1727.55,-181.5"/>
<polygon fill="black" stroke="black" points="1727.49,-185 1737.49,-181.5 1727.49,-178 1727.49,-185"/>
</g>
<!-- 6263092464 -->
<g id="node14" class="node">
<title>6263092464</title>
<polygon fill="none" stroke="black" points="287,-27.5 287,-63.5 448,-63.5 448,-27.5 287,-27.5"/>
<text text-anchor="middle" x="326.88" y="-40.7" font-family="Times,serif" font-size="14.00">data 2.0000</text>
<polyline fill="none" stroke="black" points="366.75,-28 366.75,-63.5"/>
<text text-anchor="middle" x="407.38" y="-40.7" font-family="Times,serif" font-size="14.00">grad 0.0000</text>
</g>
<!-- 6263092464&#45;&gt;6263093616+ -->
<g id="edge12" class="edge">
<title>6263092464&#45;&gt;6263093616+</title>
<path fill="none" stroke="black" d="M448.35,-60.74C457.09,-62.4 465.64,-64.04 473.46,-65.53"/>
<polygon fill="black" stroke="black" points="472.73,-68.95 483.21,-67.39 474.04,-62.08 472.73,-68.95"/>
</g>
<!-- 6263092464*&#45;&gt;6263092464 -->
<g id="edge5" class="edge">
<title>6263092464*&#45;&gt;6263092464</title>
<path fill="none" stroke="black" d="M251.28,-45.5C258.4,-45.5 266.52,-45.5 275.08,-45.5"/>
<polygon fill="black" stroke="black" points="275.04,-49 285.04,-45.5 275.04,-42 275.04,-49"/>
</g>
<!-- 4419903792 -->
<g id="node16" class="node">
<title>4419903792</title>
<polygon fill="none" stroke="black" points="2037.62,-135.5 2037.62,-171.5 2203.12,-171.5 2203.12,-135.5 2037.62,-135.5"/>
<text text-anchor="middle" x="2079.74" y="-148.7" font-family="Times,serif" font-size="14.00">data &#45;9.1192</text>
<polyline fill="none" stroke="black" points="2121.87,-136 2121.87,-171.5"/>
<text text-anchor="middle" x="2162.49" y="-148.7" font-family="Times,serif" font-size="14.00">grad 0.0000</text>
</g>
<!-- 4419904320**2 -->
<g id="node19" class="node">
<title>4419904320**2</title>
<ellipse fill="none" stroke="black" cx="2266.12" cy="-153.5" rx="27" ry="18"/>
<text text-anchor="middle" x="2266.12" y="-148.45" font-family="Times,serif" font-size="14.00">**2</text>
</g>
<!-- 4419903792&#45;&gt;4419904320**2 -->
<g id="edge20" class="edge">
<title>4419903792&#45;&gt;4419904320**2</title>
<path fill="none" stroke="black" d="M2203.32,-153.5C2211.76,-153.5 2220.01,-153.5 2227.6,-153.5"/>
<polygon fill="black" stroke="black" points="2227.38,-157 2237.38,-153.5 2227.38,-150 2227.38,-157"/>
</g>
<!-- 4419903792+&#45;&gt;4419903792 -->
<g id="edge6" class="edge">
<title>4419903792+&#45;&gt;4419903792</title>
<path fill="none" stroke="black" d="M2001.98,-153.5C2009.08,-153.5 2017.19,-153.5 2025.75,-153.5"/>
<polygon fill="black" stroke="black" points="2025.71,-157 2035.71,-153.5 2025.71,-150 2025.71,-157"/>
</g>
<!-- 4419904320 -->
<g id="node18" class="node">
<title>4419904320</title>
<polygon fill="none" stroke="black" points="2329.12,-135.5 2329.12,-171.5 2496.87,-171.5 2496.87,-135.5 2329.12,-135.5"/>
<text text-anchor="middle" x="2372.37" y="-148.7" font-family="Times,serif" font-size="14.00">data 83.1599</text>
<polyline fill="none" stroke="black" points="2415.62,-136 2415.62,-171.5"/>
<text text-anchor="middle" x="2456.24" y="-148.7" font-family="Times,serif" font-size="14.00">grad 0.0000</text>
</g>
<!-- 4419904320**2&#45;&gt;4419904320 -->
<g id="edge7" class="edge">
<title>4419904320**2&#45;&gt;4419904320</title>
<path fill="none" stroke="black" d="M2293.35,-153.5C2300.58,-153.5 2308.85,-153.5 2317.6,-153.5"/>
<polygon fill="black" stroke="black" points="2317.38,-157 2327.38,-153.5 2317.38,-150 2317.38,-157"/>
</g>
<!-- 6263095152 -->
<g id="node20" class="node">
<title>6263095152</title>
<polygon fill="none" stroke="black" points="0,-0.5 0,-36.5 161,-36.5 161,-0.5 0,-0.5"/>
<text text-anchor="middle" x="39.88" y="-13.7" font-family="Times,serif" font-size="14.00">data 1.0000</text>
<polyline fill="none" stroke="black" points="79.75,-1 79.75,-36.5"/>
<text text-anchor="middle" x="120.38" y="-13.7" font-family="Times,serif" font-size="14.00">grad 0.0000</text>
</g>
<!-- 6263095152&#45;&gt;6263092464* -->
<g id="edge19" class="edge">
<title>6263095152&#45;&gt;6263092464*</title>
<path fill="none" stroke="black" d="M161.35,-33.74C170.09,-35.4 178.64,-37.04 186.46,-38.53"/>
<polygon fill="black" stroke="black" points="185.73,-41.95 196.21,-40.39 187.04,-35.08 185.73,-41.95"/>
</g>
<!-- 6263093616 -->
<g id="node21" class="node">
<title>6263093616</title>
<polygon fill="none" stroke="black" points="576.25,-54.5 576.25,-90.5 737.25,-90.5 737.25,-54.5 576.25,-54.5"/>
<text text-anchor="middle" x="616.12" y="-67.7" font-family="Times,serif" font-size="14.00">data 2.0000</text>
<polyline fill="none" stroke="black" points="656,-55 656,-90.5"/>
<text text-anchor="middle" x="696.62" y="-67.7" font-family="Times,serif" font-size="14.00">grad 0.0000</text>
</g>
<!-- 6263093616&#45;&gt;6263092224* -->
<g id="edge10" class="edge">
<title>6263093616&#45;&gt;6263092224*</title>
<path fill="none" stroke="black" d="M737.61,-87.5C747.1,-89.28 756.4,-91.03 764.84,-92.61"/>
<polygon fill="black" stroke="black" points="764.16,-96.05 774.64,-94.45 765.46,-89.17 764.16,-96.05"/>
</g>
<!-- 6263093616+&#45;&gt;6263093616 -->
<g id="edge8" class="edge">
<title>6263093616+&#45;&gt;6263093616</title>
<path fill="none" stroke="black" d="M538.37,-72.5C546.17,-72.5 555.2,-72.5 564.7,-72.5"/>
<polygon fill="black" stroke="black" points="564.52,-76 574.52,-72.5 564.52,-69 564.52,-76"/>
</g>
<!-- 6263093184 -->
<g id="node23" class="node">
<title>6263093184</title>
<polygon fill="none" stroke="black" points="1444,-163.5 1444,-199.5 1611.75,-199.5 1611.75,-163.5 1444,-163.5"/>
<text text-anchor="middle" x="1487.25" y="-176.7" font-family="Times,serif" font-size="14.00">data 10.0000</text>
<polyline fill="none" stroke="black" points="1530.5,-164 1530.5,-199.5"/>
<text text-anchor="middle" x="1571.12" y="-176.7" font-family="Times,serif" font-size="14.00">grad 0.0000</text>
</g>
<!-- 6263093184&#45;&gt;4419903984* -->
<g id="edge24" class="edge">
<title>6263093184&#45;&gt;4419903984*</title>
<path fill="none" stroke="black" d="M1611.93,-181.5C1620.67,-181.5 1629.21,-181.5 1637.04,-181.5"/>
<polygon fill="black" stroke="black" points="1636.78,-185 1646.78,-181.5 1636.78,-178 1636.78,-185"/>
</g>
<!-- 6262649328 -->
<g id="node24" class="node">
<title>6262649328</title>
<polygon fill="none" stroke="black" points="1447.38,-108.5 1447.38,-144.5 1608.38,-144.5 1608.38,-108.5 1447.38,-108.5"/>
<text text-anchor="middle" x="1487.25" y="-121.7" font-family="Times,serif" font-size="14.00">data 1.1353</text>
<polyline fill="none" stroke="black" points="1527.12,-109 1527.12,-144.5"/>
<text text-anchor="middle" x="1567.75" y="-121.7" font-family="Times,serif" font-size="14.00">grad 0.0000</text>
</g>
<!-- 6262649328&#45;&gt;6262649952**&#45;1 -->
<g id="edge17" class="edge">
<title>6262649328&#45;&gt;6262649952**&#45;1</title>
<path fill="none" stroke="black" d="M1608.54,-126.5C1618.02,-126.5 1627.34,-126.5 1635.86,-126.5"/>
<polygon fill="black" stroke="black" points="1635.79,-130 1645.79,-126.5 1635.79,-123 1635.79,-130"/>
</g>
<!-- 6262649328+&#45;&gt;6262649328 -->
<g id="edge9" class="edge">
<title>6262649328+&#45;&gt;6262649328</title>
<path fill="none" stroke="black" d="M1408.24,-126.5C1416.35,-126.5 1425.8,-126.5 1435.75,-126.5"/>
<polygon fill="black" stroke="black" points="1435.64,-130 1445.64,-126.5 1435.64,-123 1435.64,-130"/>
</g>
</g>
</svg>
