<?xml version="1.0" encoding="UTF-8" standalone="no"?>
<!DOCTYPE svg PUBLIC "-//W3C//DTD SVG 1.1//EN"
 "http://www.w3.org/Graphics/SVG/1.1/DTD/svg11.dtd">
<!-- Generated by graphviz version 2.50.0 (0)
 -->
<!-- Pages: 1 -->
<svg width="2515pt" height="183pt"
 viewBox="0.00 0.00 2515.00 183.00" xmlns="http://www.w3.org/2000/svg" xmlns:xlink="http://www.w3.org/1999/xlink">
<g id="graph0" class="graph" transform="scale(1 1) rotate(0) translate(4 179)">
<polygon fill="white" stroke="transparent" points="-4,4 -4,-179 2511,-179 2511,4 -4,4"/>
<!-- 5078946336 -->
<g id="node1" class="node">
<title>5078946336</title>
<polygon fill="none" stroke="black" points="1745,-55.5 1745,-91.5 1919,-91.5 1919,-55.5 1745,-55.5"/>
<text text-anchor="middle" x="1791" y="-69.8" font-family="Times,serif" font-size="14.00">data &#45;10.0000</text>
<polyline fill="none" stroke="black" points="1837,-55.5 1837,-91.5 "/>
<text text-anchor="middle" x="1878" y="-69.8" font-family="Times,serif" font-size="14.00">grad 0.0000</text>
</g>
<!-- 5078946048+ -->
<g id="node17" class="node">
<title>5078946048+</title>
<ellipse fill="none" stroke="black" cx="1982" cy="-100.5" rx="27" ry="18"/>
<text text-anchor="middle" x="1982" y="-96.8" font-family="Times,serif" font-size="14.00">+</text>
</g>
<!-- 5078946336&#45;&gt;5078946048+ -->
<g id="edge12" class="edge">
<title>5078946336&#45;&gt;5078946048+</title>
<path fill="none" stroke="black" d="M1919.09,-89.21C1928.48,-90.92 1937.6,-92.58 1945.83,-94.08"/>
<polygon fill="black" stroke="black" points="1945.27,-97.54 1955.73,-95.89 1946.52,-90.65 1945.27,-97.54"/>
</g>
<!-- 5078946336* -->
<g id="node2" class="node">
<title>5078946336*</title>
<ellipse fill="none" stroke="black" cx="1682" cy="-73.5" rx="27" ry="18"/>
<text text-anchor="middle" x="1682" y="-69.8" font-family="Times,serif" font-size="14.00">*</text>
</g>
<!-- 5078946336*&#45;&gt;5078946336 -->
<g id="edge1" class="edge">
<title>5078946336*&#45;&gt;5078946336</title>
<path fill="none" stroke="black" d="M1709.12,-73.5C1716.68,-73.5 1725.4,-73.5 1734.64,-73.5"/>
<polygon fill="black" stroke="black" points="1734.83,-77 1744.83,-73.5 1734.83,-70 1734.83,-77"/>
</g>
<!-- 5084421664 -->
<g id="node3" class="node">
<title>5084421664</title>
<polygon fill="none" stroke="black" points="869,-83.5 869,-119.5 1036,-119.5 1036,-83.5 869,-83.5"/>
<text text-anchor="middle" x="911.5" y="-97.8" font-family="Times,serif" font-size="14.00">data &#45;2.0000</text>
<polyline fill="none" stroke="black" points="954,-83.5 954,-119.5 "/>
<text text-anchor="middle" x="995" y="-97.8" font-family="Times,serif" font-size="14.00">grad 0.0000</text>
</g>
<!-- 5084419552exp -->
<g id="node25" class="node">
<title>5084419552exp</title>
<ellipse fill="none" stroke="black" cx="1099" cy="-101.5" rx="27" ry="18"/>
<text text-anchor="middle" x="1099" y="-97.8" font-family="Times,serif" font-size="14.00">exp</text>
</g>
<!-- 5084421664&#45;&gt;5084419552exp -->
<g id="edge11" class="edge">
<title>5084421664&#45;&gt;5084419552exp</title>
<path fill="none" stroke="black" d="M1036.3,-101.5C1045.14,-101.5 1053.77,-101.5 1061.64,-101.5"/>
<polygon fill="black" stroke="black" points="1061.85,-105 1071.85,-101.5 1061.85,-98 1061.85,-105"/>
</g>
<!-- 5084421664* -->
<g id="node4" class="node">
<title>5084421664*</title>
<ellipse fill="none" stroke="black" cx="806" cy="-101.5" rx="27" ry="18"/>
<text text-anchor="middle" x="806" y="-97.8" font-family="Times,serif" font-size="14.00">*</text>
</g>
<!-- 5084421664*&#45;&gt;5084421664 -->
<g id="edge2" class="edge">
<title>5084421664*&#45;&gt;5084421664</title>
<path fill="none" stroke="black" d="M833.17,-101.5C840.75,-101.5 849.5,-101.5 858.74,-101.5"/>
<polygon fill="black" stroke="black" points="858.92,-105 868.92,-101.5 858.92,-98 858.92,-105"/>
</g>
<!-- 5084418112 -->
<g id="node5" class="node">
<title>5084418112</title>
<polygon fill="none" stroke="black" points="1453.5,-110.5 1453.5,-146.5 1615.5,-146.5 1615.5,-110.5 1453.5,-110.5"/>
<text text-anchor="middle" x="1493.5" y="-124.8" font-family="Times,serif" font-size="14.00">data 1.1353</text>
<polyline fill="none" stroke="black" points="1533.5,-110.5 1533.5,-146.5 "/>
<text text-anchor="middle" x="1574.5" y="-124.8" font-family="Times,serif" font-size="14.00">grad 0.0000</text>
</g>
<!-- 5084419696**&#45;1 -->
<g id="node9" class="node">
<title>5084419696**&#45;1</title>
<ellipse fill="none" stroke="black" cx="1682" cy="-128.5" rx="27" ry="18"/>
<text text-anchor="middle" x="1682" y="-124.8" font-family="Times,serif" font-size="14.00">**&#45;1</text>
</g>
<!-- 5084418112&#45;&gt;5084419696**&#45;1 -->
<g id="edge14" class="edge">
<title>5084418112&#45;&gt;5084419696**&#45;1</title>
<path fill="none" stroke="black" d="M1615.91,-128.5C1625.91,-128.5 1635.71,-128.5 1644.56,-128.5"/>
<polygon fill="black" stroke="black" points="1644.81,-132 1654.81,-128.5 1644.81,-125 1644.81,-132"/>
</g>
<!-- 5084418112+ -->
<g id="node6" class="node">
<title>5084418112+</title>
<ellipse fill="none" stroke="black" cx="1387" cy="-128.5" rx="27" ry="18"/>
<text text-anchor="middle" x="1387" y="-124.8" font-family="Times,serif" font-size="14.00">+</text>
</g>
<!-- 5084418112+&#45;&gt;5084418112 -->
<g id="edge3" class="edge">
<title>5084418112+&#45;&gt;5084418112</title>
<path fill="none" stroke="black" d="M1414.01,-128.5C1422.56,-128.5 1432.6,-128.5 1443.17,-128.5"/>
<polygon fill="black" stroke="black" points="1443.43,-132 1453.43,-128.5 1443.43,-125 1443.43,-132"/>
</g>
<!-- 5084296768 -->
<g id="node7" class="node">
<title>5084296768</title>
<polygon fill="none" stroke="black" points="288,-84.5 288,-120.5 450,-120.5 450,-84.5 288,-84.5"/>
<text text-anchor="middle" x="328" y="-98.8" font-family="Times,serif" font-size="14.00">data 0.0000</text>
<polyline fill="none" stroke="black" points="368,-84.5 368,-120.5 "/>
<text text-anchor="middle" x="409" y="-98.8" font-family="Times,serif" font-size="14.00">grad 0.0000</text>
</g>
<!-- 5084418448+ -->
<g id="node23" class="node">
<title>5084418448+</title>
<ellipse fill="none" stroke="black" cx="513" cy="-74.5" rx="27" ry="18"/>
<text text-anchor="middle" x="513" y="-70.8" font-family="Times,serif" font-size="14.00">+</text>
</g>
<!-- 5084296768&#45;&gt;5084418448+ -->
<g id="edge13" class="edge">
<title>5084296768&#45;&gt;5084418448+</title>
<path fill="none" stroke="black" d="M450.13,-86.7C459.51,-84.85 468.67,-83.04 476.94,-81.41"/>
<polygon fill="black" stroke="black" points="477.77,-84.82 486.9,-79.45 476.42,-77.95 477.77,-84.82"/>
</g>
<!-- 5084419696 -->
<g id="node8" class="node">
<title>5084419696</title>
<polygon fill="none" stroke="black" points="1751,-110.5 1751,-146.5 1913,-146.5 1913,-110.5 1751,-110.5"/>
<text text-anchor="middle" x="1791" y="-124.8" font-family="Times,serif" font-size="14.00">data 0.8808</text>
<polyline fill="none" stroke="black" points="1831,-110.5 1831,-146.5 "/>
<text text-anchor="middle" x="1872" y="-124.8" font-family="Times,serif" font-size="14.00">grad 0.0000</text>
</g>
<!-- 5084419696&#45;&gt;5078946048+ -->
<g id="edge19" class="edge">
<title>5084419696&#45;&gt;5078946048+</title>
<path fill="none" stroke="black" d="M1913.06,-113.35C1924.59,-111.17 1935.92,-109.03 1945.92,-107.14"/>
<polygon fill="black" stroke="black" points="1946.64,-110.56 1955.82,-105.26 1945.34,-103.68 1946.64,-110.56"/>
</g>
<!-- 5084419696**&#45;1&#45;&gt;5084419696 -->
<g id="edge4" class="edge">
<title>5084419696**&#45;1&#45;&gt;5084419696</title>
<path fill="none" stroke="black" d="M1709.12,-128.5C1718.3,-128.5 1729.2,-128.5 1740.65,-128.5"/>
<polygon fill="black" stroke="black" points="1740.82,-132 1750.82,-128.5 1740.82,-125 1740.82,-132"/>
</g>
<!-- 5084418160 -->
<g id="node10" class="node">
<title>5084418160</title>
<polygon fill="none" stroke="black" points="288,-29.5 288,-65.5 450,-65.5 450,-29.5 288,-29.5"/>
<text text-anchor="middle" x="328" y="-43.8" font-family="Times,serif" font-size="14.00">data 2.0000</text>
<polyline fill="none" stroke="black" points="368,-29.5 368,-65.5 "/>
<text text-anchor="middle" x="409" y="-43.8" font-family="Times,serif" font-size="14.00">grad 0.0000</text>
</g>
<!-- 5084418160&#45;&gt;5084418448+ -->
<g id="edge22" class="edge">
<title>5084418160&#45;&gt;5084418448+</title>
<path fill="none" stroke="black" d="M450.13,-62.74C459.51,-64.52 468.67,-66.26 476.94,-67.83"/>
<polygon fill="black" stroke="black" points="476.43,-71.3 486.9,-69.73 477.73,-64.42 476.43,-71.3"/>
</g>
<!-- 5084418160* -->
<g id="node11" class="node">
<title>5084418160*</title>
<ellipse fill="none" stroke="black" cx="225" cy="-47.5" rx="27" ry="18"/>
<text text-anchor="middle" x="225" y="-43.8" font-family="Times,serif" font-size="14.00">*</text>
</g>
<!-- 5084418160*&#45;&gt;5084418160 -->
<g id="edge5" class="edge">
<title>5084418160*&#45;&gt;5084418160</title>
<path fill="none" stroke="black" d="M252.04,-47.5C259.63,-47.5 268.38,-47.5 277.6,-47.5"/>
<polygon fill="black" stroke="black" points="277.76,-51 287.76,-47.5 277.76,-44 277.76,-51"/>
</g>
<!-- 5084419216 -->
<g id="node12" class="node">
<title>5084419216</title>
<polygon fill="none" stroke="black" points="1162,-138.5 1162,-174.5 1324,-174.5 1324,-138.5 1162,-138.5"/>
<text text-anchor="middle" x="1202" y="-152.8" font-family="Times,serif" font-size="14.00">data 1.0000</text>
<polyline fill="none" stroke="black" points="1242,-138.5 1242,-174.5 "/>
<text text-anchor="middle" x="1283" y="-152.8" font-family="Times,serif" font-size="14.00">grad 0.0000</text>
</g>
<!-- 5084419216&#45;&gt;5084418112+ -->
<g id="edge16" class="edge">
<title>5084419216&#45;&gt;5084418112+</title>
<path fill="none" stroke="black" d="M1324.13,-140.7C1333.51,-138.85 1342.67,-137.04 1350.94,-135.41"/>
<polygon fill="black" stroke="black" points="1351.77,-138.82 1360.9,-133.45 1350.42,-131.95 1351.77,-138.82"/>
</g>
<!-- 5084297440 -->
<g id="node13" class="node">
<title>5084297440</title>
<polygon fill="none" stroke="black" points="0,-57.5 0,-93.5 162,-93.5 162,-57.5 0,-57.5"/>
<text text-anchor="middle" x="40" y="-71.8" font-family="Times,serif" font-size="14.00">data 1.0000</text>
<polyline fill="none" stroke="black" points="80,-57.5 80,-93.5 "/>
<text text-anchor="middle" x="121" y="-71.8" font-family="Times,serif" font-size="14.00">grad 0.0000</text>
</g>
<!-- 5084297440&#45;&gt;5084418160* -->
<g id="edge17" class="edge">
<title>5084297440&#45;&gt;5084418160*</title>
<path fill="none" stroke="black" d="M162.13,-59.7C171.51,-57.85 180.67,-56.04 188.94,-54.41"/>
<polygon fill="black" stroke="black" points="189.77,-57.82 198.9,-52.45 188.42,-50.95 189.77,-57.82"/>
</g>
<!-- 5084361968 -->
<g id="node14" class="node">
<title>5084361968</title>
<polygon fill="none" stroke="black" points="2338,-82.5 2338,-118.5 2507,-118.5 2507,-82.5 2338,-82.5"/>
<text text-anchor="middle" x="2381.5" y="-96.8" font-family="Times,serif" font-size="14.00">data 83.1599</text>
<polyline fill="none" stroke="black" points="2425,-82.5 2425,-118.5 "/>
<text text-anchor="middle" x="2466" y="-96.8" font-family="Times,serif" font-size="14.00">grad 0.0000</text>
</g>
<!-- 5084361968**2 -->
<g id="node15" class="node">
<title>5084361968**2</title>
<ellipse fill="none" stroke="black" cx="2275" cy="-100.5" rx="27" ry="18"/>
<text text-anchor="middle" x="2275" y="-96.8" font-family="Times,serif" font-size="14.00">**2</text>
</g>
<!-- 5084361968**2&#45;&gt;5084361968 -->
<g id="edge6" class="edge">
<title>5084361968**2&#45;&gt;5084361968</title>
<path fill="none" stroke="black" d="M2302.01,-100.5C2309.58,-100.5 2318.31,-100.5 2327.54,-100.5"/>
<polygon fill="black" stroke="black" points="2327.72,-104 2337.72,-100.5 2327.72,-97 2327.72,-104"/>
</g>
<!-- 5078946048 -->
<g id="node16" class="node">
<title>5078946048</title>
<polygon fill="none" stroke="black" points="2045,-82.5 2045,-118.5 2212,-118.5 2212,-82.5 2045,-82.5"/>
<text text-anchor="middle" x="2087.5" y="-96.8" font-family="Times,serif" font-size="14.00">data &#45;9.1192</text>
<polyline fill="none" stroke="black" points="2130,-82.5 2130,-118.5 "/>
<text text-anchor="middle" x="2171" y="-96.8" font-family="Times,serif" font-size="14.00">grad 0.0000</text>
</g>
<!-- 5078946048&#45;&gt;5084361968**2 -->
<g id="edge15" class="edge">
<title>5078946048&#45;&gt;5084361968**2</title>
<path fill="none" stroke="black" d="M2212.3,-100.5C2221.14,-100.5 2229.77,-100.5 2237.64,-100.5"/>
<polygon fill="black" stroke="black" points="2237.85,-104 2247.85,-100.5 2237.85,-97 2237.85,-104"/>
</g>
<!-- 5078946048+&#45;&gt;5078946048 -->
<g id="edge7" class="edge">
<title>5078946048+&#45;&gt;5078946048</title>
<path fill="none" stroke="black" d="M2009.17,-100.5C2016.75,-100.5 2025.5,-100.5 2034.74,-100.5"/>
<polygon fill="black" stroke="black" points="2034.92,-104 2044.92,-100.5 2034.92,-97 2034.92,-104"/>
</g>
<!-- 5084296432 -->
<g id="node18" class="node">
<title>5084296432</title>
<polygon fill="none" stroke="black" points="0,-2.5 0,-38.5 162,-38.5 162,-2.5 0,-2.5"/>
<text text-anchor="middle" x="40" y="-16.8" font-family="Times,serif" font-size="14.00">data 2.0000</text>
<polyline fill="none" stroke="black" points="80,-2.5 80,-38.5 "/>
<text text-anchor="middle" x="121" y="-16.8" font-family="Times,serif" font-size="14.00">grad 0.0000</text>
</g>
<!-- 5084296432&#45;&gt;5084418160* -->
<g id="edge24" class="edge">
<title>5084296432&#45;&gt;5084418160*</title>
<path fill="none" stroke="black" d="M162.13,-35.74C171.51,-37.52 180.67,-39.26 188.94,-40.83"/>
<polygon fill="black" stroke="black" points="188.43,-44.3 198.9,-42.73 189.73,-37.42 188.43,-44.3"/>
</g>
<!-- 5084421904 -->
<g id="node19" class="node">
<title>5084421904</title>
<polygon fill="none" stroke="black" points="576,-111.5 576,-147.5 743,-147.5 743,-111.5 576,-111.5"/>
<text text-anchor="middle" x="618.5" y="-125.8" font-family="Times,serif" font-size="14.00">data &#45;1.0000</text>
<polyline fill="none" stroke="black" points="661,-111.5 661,-147.5 "/>
<text text-anchor="middle" x="702" y="-125.8" font-family="Times,serif" font-size="14.00">grad 0.0000</text>
</g>
<!-- 5084421904&#45;&gt;5084421664* -->
<g id="edge18" class="edge">
<title>5084421904&#45;&gt;5084421664*</title>
<path fill="none" stroke="black" d="M743.3,-113.46C752.61,-111.65 761.68,-109.89 769.88,-108.31"/>
<polygon fill="black" stroke="black" points="770.59,-111.73 779.75,-106.39 769.26,-104.86 770.59,-111.73"/>
</g>
<!-- 5084295472 -->
<g id="node20" class="node">
<title>5084295472</title>
<polygon fill="none" stroke="black" points="1450,-55.5 1450,-91.5 1619,-91.5 1619,-55.5 1450,-55.5"/>
<text text-anchor="middle" x="1493.5" y="-69.8" font-family="Times,serif" font-size="14.00">data 10.0000</text>
<polyline fill="none" stroke="black" points="1537,-55.5 1537,-91.5 "/>
<text text-anchor="middle" x="1578" y="-69.8" font-family="Times,serif" font-size="14.00">grad 0.0000</text>
</g>
<!-- 5084295472&#45;&gt;5078946336* -->
<g id="edge10" class="edge">
<title>5084295472&#45;&gt;5078946336*</title>
<path fill="none" stroke="black" d="M1619.29,-73.5C1628.15,-73.5 1636.79,-73.5 1644.66,-73.5"/>
<polygon fill="black" stroke="black" points="1644.87,-77 1654.87,-73.5 1644.87,-70 1644.87,-77"/>
</g>
<!-- 5084421472 -->
<g id="node21" class="node">
<title>5084421472</title>
<polygon fill="none" stroke="black" points="1451,-0.5 1451,-36.5 1618,-36.5 1618,-0.5 1451,-0.5"/>
<text text-anchor="middle" x="1493.5" y="-14.8" font-family="Times,serif" font-size="14.00">data &#45;1.0000</text>
<polyline fill="none" stroke="black" points="1536,-0.5 1536,-36.5 "/>
<text text-anchor="middle" x="1577" y="-14.8" font-family="Times,serif" font-size="14.00">grad 0.0000</text>
</g>
<!-- 5084421472&#45;&gt;5078946336* -->
<g id="edge21" class="edge">
<title>5084421472&#45;&gt;5078946336*</title>
<path fill="none" stroke="black" d="M1594.19,-36.56C1602.57,-39.41 1611.04,-42.43 1619,-45.5 1629.44,-49.53 1640.64,-54.41 1650.61,-58.96"/>
<polygon fill="black" stroke="black" points="1649.18,-62.16 1659.73,-63.19 1652.13,-55.81 1649.18,-62.16"/>
</g>
<!-- 5084418448 -->
<g id="node22" class="node">
<title>5084418448</title>
<polygon fill="none" stroke="black" points="578.5,-56.5 578.5,-92.5 740.5,-92.5 740.5,-56.5 578.5,-56.5"/>
<text text-anchor="middle" x="618.5" y="-70.8" font-family="Times,serif" font-size="14.00">data 2.0000</text>
<polyline fill="none" stroke="black" points="658.5,-56.5 658.5,-92.5 "/>
<text text-anchor="middle" x="699.5" y="-70.8" font-family="Times,serif" font-size="14.00">grad 0.0000</text>
</g>
<!-- 5084418448&#45;&gt;5084421664* -->
<g id="edge23" class="edge">
<title>5084418448&#45;&gt;5084421664*</title>
<path fill="none" stroke="black" d="M740.78,-89.5C750.96,-91.4 760.92,-93.26 769.85,-94.93"/>
<polygon fill="black" stroke="black" points="769.33,-98.4 779.8,-96.79 770.61,-91.51 769.33,-98.4"/>
</g>
<!-- 5084418448+&#45;&gt;5084418448 -->
<g id="edge8" class="edge">
<title>5084418448+&#45;&gt;5084418448</title>
<path fill="none" stroke="black" d="M540.17,-74.5C548.4,-74.5 558.01,-74.5 568.12,-74.5"/>
<polygon fill="black" stroke="black" points="568.37,-78 578.37,-74.5 568.37,-71 568.37,-78"/>
</g>
<!-- 5084419552 -->
<g id="node24" class="node">
<title>5084419552</title>
<polygon fill="none" stroke="black" points="1162,-83.5 1162,-119.5 1324,-119.5 1324,-83.5 1162,-83.5"/>
<text text-anchor="middle" x="1202" y="-97.8" font-family="Times,serif" font-size="14.00">data 0.1353</text>
<polyline fill="none" stroke="black" points="1242,-83.5 1242,-119.5 "/>
<text text-anchor="middle" x="1283" y="-97.8" font-family="Times,serif" font-size="14.00">grad 0.0000</text>
</g>
<!-- 5084419552&#45;&gt;5084418112+ -->
<g id="edge20" class="edge">
<title>5084419552&#45;&gt;5084418112+</title>
<path fill="none" stroke="black" d="M1324.13,-116.74C1333.51,-118.52 1342.67,-120.26 1350.94,-121.83"/>
<polygon fill="black" stroke="black" points="1350.43,-125.3 1360.9,-123.73 1351.73,-118.42 1350.43,-125.3"/>
</g>
<!-- 5084419552exp&#45;&gt;5084419552 -->
<g id="edge9" class="edge">
<title>5084419552exp&#45;&gt;5084419552</title>
<path fill="none" stroke="black" d="M1126.04,-101.5C1133.63,-101.5 1142.38,-101.5 1151.6,-101.5"/>
<polygon fill="black" stroke="black" points="1151.76,-105 1161.76,-101.5 1151.76,-98 1151.76,-105"/>
</g>
</g>
</svg>
