<?xml version="1.0" encoding="UTF-8" standalone="no"?>
<!DOCTYPE svg PUBLIC "-//W3C//DTD SVG 1.1//EN"
 "http://www.w3.org/Graphics/SVG/1.1/DTD/svg11.dtd">
<!-- Generated by graphviz version 2.50.0 (0)
 -->
<!-- Pages: 1 -->
<svg width="2515pt" height="184pt"
 viewBox="0.00 0.00 2515.00 184.00" xmlns="http://www.w3.org/2000/svg" xmlns:xlink="http://www.w3.org/1999/xlink">
<g id="graph0" class="graph" transform="scale(1 1) rotate(0) translate(4 180)">
<polygon fill="white" stroke="transparent" points="-4,4 -4,-180 2511,-180 2511,4 -4,4"/>
<!-- 5619283472 -->
<g id="node1" class="node">
<title>5619283472</title>
<polygon fill="none" stroke="black" points="1451,-137.5 1451,-173.5 1618,-173.5 1618,-137.5 1451,-137.5"/>
<text text-anchor="middle" x="1493.5" y="-151.8" font-family="Times,serif" font-size="14.00">data &#45;1.0000</text>
<polyline fill="none" stroke="black" points="1536,-137.5 1536,-173.5 "/>
<text text-anchor="middle" x="1577" y="-151.8" font-family="Times,serif" font-size="14.00">grad 0.0000</text>
</g>
<!-- 5619282080* -->
<g id="node13" class="node">
<title>5619282080*</title>
<ellipse fill="none" stroke="black" cx="1682" cy="-100.5" rx="27" ry="18"/>
<text text-anchor="middle" x="1682" y="-96.8" font-family="Times,serif" font-size="14.00">*</text>
</g>
<!-- 5619283472&#45;&gt;5619282080* -->
<g id="edge23" class="edge">
<title>5619283472&#45;&gt;5619282080*</title>
<path fill="none" stroke="black" d="M1594.19,-137.44C1602.57,-134.59 1611.04,-131.57 1619,-128.5 1629.44,-124.47 1640.64,-119.59 1650.61,-115.04"/>
<polygon fill="black" stroke="black" points="1652.13,-118.19 1659.73,-110.81 1649.18,-111.84 1652.13,-118.19"/>
</g>
<!-- 5619281984 -->
<g id="node2" class="node">
<title>5619281984</title>
<polygon fill="none" stroke="black" points="2338,-54.5 2338,-90.5 2507,-90.5 2507,-54.5 2338,-54.5"/>
<text text-anchor="middle" x="2381.5" y="-68.8" font-family="Times,serif" font-size="14.00">data 83.1599</text>
<polyline fill="none" stroke="black" points="2425,-54.5 2425,-90.5 "/>
<text text-anchor="middle" x="2466" y="-68.8" font-family="Times,serif" font-size="14.00">grad 0.0000</text>
</g>
<!-- 5619281984**2 -->
<g id="node3" class="node">
<title>5619281984**2</title>
<ellipse fill="none" stroke="black" cx="2275" cy="-72.5" rx="27" ry="18"/>
<text text-anchor="middle" x="2275" y="-68.8" font-family="Times,serif" font-size="14.00">**2</text>
</g>
<!-- 5619281984**2&#45;&gt;5619281984 -->
<g id="edge1" class="edge">
<title>5619281984**2&#45;&gt;5619281984</title>
<path fill="none" stroke="black" d="M2302.01,-72.5C2309.58,-72.5 2318.31,-72.5 2327.54,-72.5"/>
<polygon fill="black" stroke="black" points="2327.72,-76 2337.72,-72.5 2327.72,-69 2327.72,-76"/>
</g>
<!-- 5619284048 -->
<g id="node4" class="node">
<title>5619284048</title>
<polygon fill="none" stroke="black" points="578.5,-83.5 578.5,-119.5 740.5,-119.5 740.5,-83.5 578.5,-83.5"/>
<text text-anchor="middle" x="618.5" y="-97.8" font-family="Times,serif" font-size="14.00">data 2.0000</text>
<polyline fill="none" stroke="black" points="658.5,-83.5 658.5,-119.5 "/>
<text text-anchor="middle" x="699.5" y="-97.8" font-family="Times,serif" font-size="14.00">grad 0.0000</text>
</g>
<!-- 5619285296* -->
<g id="node21" class="node">
<title>5619285296*</title>
<ellipse fill="none" stroke="black" cx="806" cy="-73.5" rx="27" ry="18"/>
<text text-anchor="middle" x="806" y="-69.8" font-family="Times,serif" font-size="14.00">*</text>
</g>
<!-- 5619284048&#45;&gt;5619285296* -->
<g id="edge19" class="edge">
<title>5619284048&#45;&gt;5619285296*</title>
<path fill="none" stroke="black" d="M740.78,-85.94C750.96,-83.97 760.92,-82.04 769.85,-80.31"/>
<polygon fill="black" stroke="black" points="770.65,-83.72 779.8,-78.38 769.32,-76.85 770.65,-83.72"/>
</g>
<!-- 5619284048+ -->
<g id="node5" class="node">
<title>5619284048+</title>
<ellipse fill="none" stroke="black" cx="513" cy="-101.5" rx="27" ry="18"/>
<text text-anchor="middle" x="513" y="-97.8" font-family="Times,serif" font-size="14.00">+</text>
</g>
<!-- 5619284048+&#45;&gt;5619284048 -->
<g id="edge2" class="edge">
<title>5619284048+&#45;&gt;5619284048</title>
<path fill="none" stroke="black" d="M540.17,-101.5C548.4,-101.5 558.01,-101.5 568.12,-101.5"/>
<polygon fill="black" stroke="black" points="568.37,-105 578.37,-101.5 568.37,-98 568.37,-105"/>
</g>
<!-- 5619285104 -->
<g id="node6" class="node">
<title>5619285104</title>
<polygon fill="none" stroke="black" points="2045,-54.5 2045,-90.5 2212,-90.5 2212,-54.5 2045,-54.5"/>
<text text-anchor="middle" x="2087.5" y="-68.8" font-family="Times,serif" font-size="14.00">data &#45;9.1192</text>
<polyline fill="none" stroke="black" points="2130,-54.5 2130,-90.5 "/>
<text text-anchor="middle" x="2171" y="-68.8" font-family="Times,serif" font-size="14.00">grad 0.0000</text>
</g>
<!-- 5619285104&#45;&gt;5619281984**2 -->
<g id="edge24" class="edge">
<title>5619285104&#45;&gt;5619281984**2</title>
<path fill="none" stroke="black" d="M2212.3,-72.5C2221.14,-72.5 2229.77,-72.5 2237.64,-72.5"/>
<polygon fill="black" stroke="black" points="2237.85,-76 2247.85,-72.5 2237.85,-69 2237.85,-76"/>
</g>
<!-- 5619285104+ -->
<g id="node7" class="node">
<title>5619285104+</title>
<ellipse fill="none" stroke="black" cx="1982" cy="-72.5" rx="27" ry="18"/>
<text text-anchor="middle" x="1982" y="-68.8" font-family="Times,serif" font-size="14.00">+</text>
</g>
<!-- 5619285104+&#45;&gt;5619285104 -->
<g id="edge3" class="edge">
<title>5619285104+&#45;&gt;5619285104</title>
<path fill="none" stroke="black" d="M2009.17,-72.5C2016.75,-72.5 2025.5,-72.5 2034.74,-72.5"/>
<polygon fill="black" stroke="black" points="2034.92,-76 2044.92,-72.5 2034.92,-69 2034.92,-76"/>
</g>
<!-- 5619283568 -->
<g id="node8" class="node">
<title>5619283568</title>
<polygon fill="none" stroke="black" points="1162,-55.5 1162,-91.5 1324,-91.5 1324,-55.5 1162,-55.5"/>
<text text-anchor="middle" x="1202" y="-69.8" font-family="Times,serif" font-size="14.00">data 0.1353</text>
<polyline fill="none" stroke="black" points="1242,-55.5 1242,-91.5 "/>
<text text-anchor="middle" x="1283" y="-69.8" font-family="Times,serif" font-size="14.00">grad 0.0000</text>
</g>
<!-- 5619282848+ -->
<g id="node24" class="node">
<title>5619282848+</title>
<ellipse fill="none" stroke="black" cx="1387" cy="-45.5" rx="27" ry="18"/>
<text text-anchor="middle" x="1387" y="-41.8" font-family="Times,serif" font-size="14.00">+</text>
</g>
<!-- 5619283568&#45;&gt;5619282848+ -->
<g id="edge21" class="edge">
<title>5619283568&#45;&gt;5619282848+</title>
<path fill="none" stroke="black" d="M1324.13,-57.7C1333.51,-55.85 1342.67,-54.04 1350.94,-52.41"/>
<polygon fill="black" stroke="black" points="1351.77,-55.82 1360.9,-50.45 1350.42,-48.95 1351.77,-55.82"/>
</g>
<!-- 5619283568exp -->
<g id="node9" class="node">
<title>5619283568exp</title>
<ellipse fill="none" stroke="black" cx="1099" cy="-73.5" rx="27" ry="18"/>
<text text-anchor="middle" x="1099" y="-69.8" font-family="Times,serif" font-size="14.00">exp</text>
</g>
<!-- 5619283568exp&#45;&gt;5619283568 -->
<g id="edge4" class="edge">
<title>5619283568exp&#45;&gt;5619283568</title>
<path fill="none" stroke="black" d="M1126.04,-73.5C1133.63,-73.5 1142.38,-73.5 1151.6,-73.5"/>
<polygon fill="black" stroke="black" points="1151.76,-77 1161.76,-73.5 1151.76,-70 1151.76,-77"/>
</g>
<!-- 5619283904 -->
<g id="node10" class="node">
<title>5619283904</title>
<polygon fill="none" stroke="black" points="288,-111.5 288,-147.5 450,-147.5 450,-111.5 288,-111.5"/>
<text text-anchor="middle" x="328" y="-125.8" font-family="Times,serif" font-size="14.00">data 2.0000</text>
<polyline fill="none" stroke="black" points="368,-111.5 368,-147.5 "/>
<text text-anchor="middle" x="409" y="-125.8" font-family="Times,serif" font-size="14.00">grad 0.0000</text>
</g>
<!-- 5619283904&#45;&gt;5619284048+ -->
<g id="edge18" class="edge">
<title>5619283904&#45;&gt;5619284048+</title>
<path fill="none" stroke="black" d="M450.13,-113.7C459.51,-111.85 468.67,-110.04 476.94,-108.41"/>
<polygon fill="black" stroke="black" points="477.77,-111.82 486.9,-106.45 476.42,-104.95 477.77,-111.82"/>
</g>
<!-- 5619283904* -->
<g id="node11" class="node">
<title>5619283904*</title>
<ellipse fill="none" stroke="black" cx="225" cy="-129.5" rx="27" ry="18"/>
<text text-anchor="middle" x="225" y="-125.8" font-family="Times,serif" font-size="14.00">*</text>
</g>
<!-- 5619283904*&#45;&gt;5619283904 -->
<g id="edge5" class="edge">
<title>5619283904*&#45;&gt;5619283904</title>
<path fill="none" stroke="black" d="M252.04,-129.5C259.63,-129.5 268.38,-129.5 277.6,-129.5"/>
<polygon fill="black" stroke="black" points="277.76,-133 287.76,-129.5 277.76,-126 277.76,-133"/>
</g>
<!-- 5619282080 -->
<g id="node12" class="node">
<title>5619282080</title>
<polygon fill="none" stroke="black" points="1745,-82.5 1745,-118.5 1919,-118.5 1919,-82.5 1745,-82.5"/>
<text text-anchor="middle" x="1791" y="-96.8" font-family="Times,serif" font-size="14.00">data &#45;10.0000</text>
<polyline fill="none" stroke="black" points="1837,-82.5 1837,-118.5 "/>
<text text-anchor="middle" x="1878" y="-96.8" font-family="Times,serif" font-size="14.00">grad 0.0000</text>
</g>
<!-- 5619282080&#45;&gt;5619285104+ -->
<g id="edge17" class="edge">
<title>5619282080&#45;&gt;5619285104+</title>
<path fill="none" stroke="black" d="M1919.09,-84.21C1928.48,-82.44 1937.6,-80.71 1945.83,-79.15"/>
<polygon fill="black" stroke="black" points="1946.56,-82.58 1955.73,-77.28 1945.25,-75.7 1946.56,-82.58"/>
</g>
<!-- 5619282080*&#45;&gt;5619282080 -->
<g id="edge6" class="edge">
<title>5619282080*&#45;&gt;5619282080</title>
<path fill="none" stroke="black" d="M1709.12,-100.5C1716.68,-100.5 1725.4,-100.5 1734.64,-100.5"/>
<polygon fill="black" stroke="black" points="1734.83,-104 1744.83,-100.5 1734.83,-97 1734.83,-104"/>
</g>
<!-- 5619285680 -->
<g id="node14" class="node">
<title>5619285680</title>
<polygon fill="none" stroke="black" points="1450,-82.5 1450,-118.5 1619,-118.5 1619,-82.5 1450,-82.5"/>
<text text-anchor="middle" x="1493.5" y="-96.8" font-family="Times,serif" font-size="14.00">data 10.0000</text>
<polyline fill="none" stroke="black" points="1537,-82.5 1537,-118.5 "/>
<text text-anchor="middle" x="1578" y="-96.8" font-family="Times,serif" font-size="14.00">grad 0.0000</text>
</g>
<!-- 5619285680&#45;&gt;5619282080* -->
<g id="edge22" class="edge">
<title>5619285680&#45;&gt;5619282080*</title>
<path fill="none" stroke="black" d="M1619.29,-100.5C1628.15,-100.5 1636.79,-100.5 1644.66,-100.5"/>
<polygon fill="black" stroke="black" points="1644.87,-104 1654.87,-100.5 1644.87,-97 1644.87,-104"/>
</g>
<!-- 5619282608 -->
<g id="node15" class="node">
<title>5619282608</title>
<polygon fill="none" stroke="black" points="576,-28.5 576,-64.5 743,-64.5 743,-28.5 576,-28.5"/>
<text text-anchor="middle" x="618.5" y="-42.8" font-family="Times,serif" font-size="14.00">data &#45;1.0000</text>
<polyline fill="none" stroke="black" points="661,-28.5 661,-64.5 "/>
<text text-anchor="middle" x="702" y="-42.8" font-family="Times,serif" font-size="14.00">grad 0.0000</text>
</g>
<!-- 5619282608&#45;&gt;5619285296* -->
<g id="edge15" class="edge">
<title>5619282608&#45;&gt;5619285296*</title>
<path fill="none" stroke="black" d="M743.3,-61.97C752.61,-63.71 761.68,-65.41 769.88,-66.94"/>
<polygon fill="black" stroke="black" points="769.27,-70.38 779.75,-68.78 770.56,-63.5 769.27,-70.38"/>
</g>
<!-- 5619284720 -->
<g id="node16" class="node">
<title>5619284720</title>
<polygon fill="none" stroke="black" points="1751,-27.5 1751,-63.5 1913,-63.5 1913,-27.5 1751,-27.5"/>
<text text-anchor="middle" x="1791" y="-41.8" font-family="Times,serif" font-size="14.00">data 0.8808</text>
<polyline fill="none" stroke="black" points="1831,-27.5 1831,-63.5 "/>
<text text-anchor="middle" x="1872" y="-41.8" font-family="Times,serif" font-size="14.00">grad 0.0000</text>
</g>
<!-- 5619284720&#45;&gt;5619285104+ -->
<g id="edge11" class="edge">
<title>5619284720&#45;&gt;5619285104+</title>
<path fill="none" stroke="black" d="M1913.06,-60.11C1924.59,-62.21 1935.92,-64.28 1945.92,-66.1"/>
<polygon fill="black" stroke="black" points="1945.35,-69.55 1955.82,-67.91 1946.61,-62.67 1945.35,-69.55"/>
</g>
<!-- 5619284720**&#45;1 -->
<g id="node17" class="node">
<title>5619284720**&#45;1</title>
<ellipse fill="none" stroke="black" cx="1682" cy="-45.5" rx="27" ry="18"/>
<text text-anchor="middle" x="1682" y="-41.8" font-family="Times,serif" font-size="14.00">**&#45;1</text>
</g>
<!-- 5619284720**&#45;1&#45;&gt;5619284720 -->
<g id="edge7" class="edge">
<title>5619284720**&#45;1&#45;&gt;5619284720</title>
<path fill="none" stroke="black" d="M1709.12,-45.5C1718.3,-45.5 1729.2,-45.5 1740.65,-45.5"/>
<polygon fill="black" stroke="black" points="1740.82,-49 1750.82,-45.5 1740.82,-42 1740.82,-49"/>
</g>
<!-- 5619283184 -->
<g id="node18" class="node">
<title>5619283184</title>
<polygon fill="none" stroke="black" points="0,-139.5 0,-175.5 162,-175.5 162,-139.5 0,-139.5"/>
<text text-anchor="middle" x="40" y="-153.8" font-family="Times,serif" font-size="14.00">data 1.0000</text>
<polyline fill="none" stroke="black" points="80,-139.5 80,-175.5 "/>
<text text-anchor="middle" x="121" y="-153.8" font-family="Times,serif" font-size="14.00">grad 0.0000</text>
</g>
<!-- 5619283184&#45;&gt;5619283904* -->
<g id="edge14" class="edge">
<title>5619283184&#45;&gt;5619283904*</title>
<path fill="none" stroke="black" d="M162.13,-141.7C171.51,-139.85 180.67,-138.04 188.94,-136.41"/>
<polygon fill="black" stroke="black" points="189.77,-139.82 198.9,-134.45 188.42,-132.95 189.77,-139.82"/>
</g>
<!-- 5619284768 -->
<g id="node19" class="node">
<title>5619284768</title>
<polygon fill="none" stroke="black" points="0,-84.5 0,-120.5 162,-120.5 162,-84.5 0,-84.5"/>
<text text-anchor="middle" x="40" y="-98.8" font-family="Times,serif" font-size="14.00">data 2.0000</text>
<polyline fill="none" stroke="black" points="80,-84.5 80,-120.5 "/>
<text text-anchor="middle" x="121" y="-98.8" font-family="Times,serif" font-size="14.00">grad 0.0000</text>
</g>
<!-- 5619284768&#45;&gt;5619283904* -->
<g id="edge20" class="edge">
<title>5619284768&#45;&gt;5619283904*</title>
<path fill="none" stroke="black" d="M162.13,-117.74C171.51,-119.52 180.67,-121.26 188.94,-122.83"/>
<polygon fill="black" stroke="black" points="188.43,-126.3 198.9,-124.73 189.73,-119.42 188.43,-126.3"/>
</g>
<!-- 5619285296 -->
<g id="node20" class="node">
<title>5619285296</title>
<polygon fill="none" stroke="black" points="869,-55.5 869,-91.5 1036,-91.5 1036,-55.5 869,-55.5"/>
<text text-anchor="middle" x="911.5" y="-69.8" font-family="Times,serif" font-size="14.00">data &#45;2.0000</text>
<polyline fill="none" stroke="black" points="954,-55.5 954,-91.5 "/>
<text text-anchor="middle" x="995" y="-69.8" font-family="Times,serif" font-size="14.00">grad 0.0000</text>
</g>
<!-- 5619285296&#45;&gt;5619283568exp -->
<g id="edge12" class="edge">
<title>5619285296&#45;&gt;5619283568exp</title>
<path fill="none" stroke="black" d="M1036.3,-73.5C1045.14,-73.5 1053.77,-73.5 1061.64,-73.5"/>
<polygon fill="black" stroke="black" points="1061.85,-77 1071.85,-73.5 1061.85,-70 1061.85,-77"/>
</g>
<!-- 5619285296*&#45;&gt;5619285296 -->
<g id="edge8" class="edge">
<title>5619285296*&#45;&gt;5619285296</title>
<path fill="none" stroke="black" d="M833.17,-73.5C840.75,-73.5 849.5,-73.5 858.74,-73.5"/>
<polygon fill="black" stroke="black" points="858.92,-77 868.92,-73.5 858.92,-70 858.92,-77"/>
</g>
<!-- 5619282224 -->
<g id="node22" class="node">
<title>5619282224</title>
<polygon fill="none" stroke="black" points="288,-56.5 288,-92.5 450,-92.5 450,-56.5 288,-56.5"/>
<text text-anchor="middle" x="328" y="-70.8" font-family="Times,serif" font-size="14.00">data 0.0000</text>
<polyline fill="none" stroke="black" points="368,-56.5 368,-92.5 "/>
<text text-anchor="middle" x="409" y="-70.8" font-family="Times,serif" font-size="14.00">grad 0.0000</text>
</g>
<!-- 5619282224&#45;&gt;5619284048+ -->
<g id="edge13" class="edge">
<title>5619282224&#45;&gt;5619284048+</title>
<path fill="none" stroke="black" d="M450.13,-89.74C459.51,-91.52 468.67,-93.26 476.94,-94.83"/>
<polygon fill="black" stroke="black" points="476.43,-98.3 486.9,-96.73 477.73,-91.42 476.43,-98.3"/>
</g>
<!-- 5619282848 -->
<g id="node23" class="node">
<title>5619282848</title>
<polygon fill="none" stroke="black" points="1453.5,-27.5 1453.5,-63.5 1615.5,-63.5 1615.5,-27.5 1453.5,-27.5"/>
<text text-anchor="middle" x="1493.5" y="-41.8" font-family="Times,serif" font-size="14.00">data 1.1353</text>
<polyline fill="none" stroke="black" points="1533.5,-27.5 1533.5,-63.5 "/>
<text text-anchor="middle" x="1574.5" y="-41.8" font-family="Times,serif" font-size="14.00">grad 0.0000</text>
</g>
<!-- 5619282848&#45;&gt;5619284720**&#45;1 -->
<g id="edge16" class="edge">
<title>5619282848&#45;&gt;5619284720**&#45;1</title>
<path fill="none" stroke="black" d="M1615.91,-45.5C1625.91,-45.5 1635.71,-45.5 1644.56,-45.5"/>
<polygon fill="black" stroke="black" points="1644.81,-49 1654.81,-45.5 1644.81,-42 1644.81,-49"/>
</g>
<!-- 5619282848+&#45;&gt;5619282848 -->
<g id="edge9" class="edge">
<title>5619282848+&#45;&gt;5619282848</title>
<path fill="none" stroke="black" d="M1414.01,-45.5C1422.56,-45.5 1432.6,-45.5 1443.17,-45.5"/>
<polygon fill="black" stroke="black" points="1443.43,-49 1453.43,-45.5 1443.43,-42 1443.43,-49"/>
</g>
<!-- 5619282368 -->
<g id="node25" class="node">
<title>5619282368</title>
<polygon fill="none" stroke="black" points="1162,-0.5 1162,-36.5 1324,-36.5 1324,-0.5 1162,-0.5"/>
<text text-anchor="middle" x="1202" y="-14.8" font-family="Times,serif" font-size="14.00">data 1.0000</text>
<polyline fill="none" stroke="black" points="1242,-0.5 1242,-36.5 "/>
<text text-anchor="middle" x="1283" y="-14.8" font-family="Times,serif" font-size="14.00">grad 0.0000</text>
</g>
<!-- 5619282368&#45;&gt;5619282848+ -->
<g id="edge10" class="edge">
<title>5619282368&#45;&gt;5619282848+</title>
<path fill="none" stroke="black" d="M1324.13,-33.74C1333.51,-35.52 1342.67,-37.26 1350.94,-38.83"/>
<polygon fill="black" stroke="black" points="1350.43,-42.3 1360.9,-40.73 1351.73,-35.42 1350.43,-42.3"/>
</g>
</g>
</svg>
